<?xml version="1.0" standalone="no"?>
<!DOCTYPE svg PUBLIC "-//W3C//DTD SVG 20010904//EN"
 "http://www.w3.org/TR/2001/REC-SVG-20010904/DTD/svg10.dtd">
<svg version="1.0" xmlns="http://www.w3.org/2000/svg"
 width="513.000000pt" height="513.000000pt" viewBox="0 0 513.000000 513.000000"
 preserveAspectRatio="xMidYMid meet">
<metadata>
Created by potrace 1.14, written by Peter Selinger 2001-2017
</metadata>
<g transform="translate(0.000000,513.000000) scale(0.100000,-0.100000)"
fill="#000000" stroke="none">
<path d="M2678 5125 c-2 -2 -111 -5 -244 -9 -265 -6 -325 -17 -414 -74 -226
-146 -305 -408 -193 -640 55 -113 177 -214 306 -254 64 -19 83 -20 283 -14
118 4 214 3 215 -1 4 -36 7 -74 14 -178 4 -66 9 -140 10 -165 2 -25 6 -106 10
-180 4 -74 8 -162 10 -195 25 -383 25 -899 0 -1170 -6 -71 -24 -216 -31 -250
-2 -11 -7 -40 -10 -65 -7 -51 -6 -48 -28 -155 -82 -399 -159 -546 -361 -690
-124 -88 -252 -116 -342 -75 -50 22 -112 82 -147 143 -20 34 -81 246 -99 345
-10 54 -53 175 -79 222 -16 30 -56 80 -87 110 -193 185 -487 186 -676 4 -95
-92 -156 -241 -150 -364 5 -77 103 -478 147 -600 71 -197 159 -332 312 -485
124 -123 140 -136 244 -201 121 -77 283 -140 412 -162 83 -13 340 -7 425 11
44 10 91 19 105 22 14 3 68 19 120 36 465 153 876 586 1033 1089 34 110 78
289 91 375 6 40 22 128 31 174 2 13 7 49 10 80 3 31 7 67 9 81 8 42 15 112 21
185 3 39 7 88 10 110 2 22 7 83 11 135 3 52 7 115 9 140 24 296 24 701 0 1050
-2 30 -6 111 -10 180 -4 69 -8 141 -10 160 -2 19 -6 87 -10 150 -4 63 -7 117
-7 120 -1 18 3 31 10 27 4 -3 97 -8 207 -11 171 -6 211 -5 269 10 152 38 299
178 340 324 30 105 26 247 -9 335 -32 79 -134 195 -213 241 -81 48 -131 60
-292 70 -83 5 -1247 13 -1252 9z"/>
</g>
</svg>
