<svg width="152" height="184" viewBox="0 0 152 184" fill="none" xmlns="http://www.w3.org/2000/svg">
<path d="M1.16778 105.171C1.53927 104.799 1.98041 104.504 2.46601 104.303C2.95161 104.101 3.47211 103.998 3.99778 103.998C4.52344 103.998 5.04395 104.101 5.52955 104.303C6.01514 104.504 6.45629 104.799 6.82778 105.171L71.9978 170.341L71.9978 4.00076C71.9978 2.93989 72.4192 1.92248 73.1694 1.17233C73.9195 0.422173 74.9369 0.000756202 75.9978 0.000756295C77.0587 0.000756388 78.0761 0.422174 78.8262 1.17233C79.5764 1.92248 79.9978 2.93989 79.9978 4.00076L79.9978 170.341L145.168 105.171C145.539 104.799 145.981 104.504 146.466 104.303C146.952 104.102 147.472 103.999 147.998 103.999C148.523 103.999 149.044 104.102 149.529 104.303C150.015 104.504 150.456 104.799 150.828 105.171C151.199 105.542 151.494 105.984 151.695 106.469C151.896 106.955 152 107.475 152 108.001C152 108.526 151.896 109.047 151.695 109.532C151.494 110.018 151.199 110.459 150.828 110.831L78.8278 182.831C78.4563 183.203 78.0151 183.498 77.5295 183.699C77.0439 183.9 76.5234 184.004 75.9978 184.004C75.4721 184.004 74.9516 183.9 74.466 183.699C73.9804 183.498 73.5393 183.203 73.1678 182.831L1.16778 110.831C0.795874 110.459 0.50083 110.018 0.299537 109.533C0.0982426 109.047 -0.0053645 108.526 -0.00536445 108.001C-0.0053644 107.475 0.0982428 106.955 0.299537 106.469C0.500831 105.983 0.795875 105.542 1.16778 105.171Z" fill="black"/>
</svg>
