<svg width="410" height="122" viewBox="0 0 410 122" fill="none" xmlns="http://www.w3.org/2000/svg">
<path d="M400.574 21.3623L409.314 34.1963H405.68L398.642 23.2943L391.374 34.1963H387.924L396.756 21.3623L388.43 9.40234H391.926L398.734 19.5223L405.496 9.40234H408.9L400.574 21.3623Z" fill="#333333"/>
<path d="M367.756 31.2524V44.0404H364.628V9.40238H367.71V12.8984C368.446 11.641 369.473 10.675 370.792 10.0004C372.141 9.29505 373.598 8.94238 375.162 8.94238C376.634 8.94238 377.968 9.18772 379.164 9.67838C380.39 10.1384 381.433 10.8284 382.292 11.7484C383.15 12.6377 383.81 13.7417 384.27 15.0604C384.76 16.379 385.006 17.8817 385.006 19.5684V23.9384C385.006 25.625 384.76 27.1277 384.27 28.4464C383.779 29.765 383.089 30.8844 382.2 31.8044C381.341 32.6937 380.298 33.3684 379.072 33.8284C377.876 34.319 376.572 34.5644 375.162 34.5644C373.414 34.5644 371.911 34.227 370.654 33.5524C369.427 32.9084 368.476 32.1417 367.802 31.2524H367.756ZM381.878 20.0284C381.878 17.3604 381.249 15.3211 379.992 13.9104C378.765 12.4997 377.094 11.7944 374.978 11.7944C374.119 11.7944 373.26 11.9477 372.402 12.2544C371.543 12.561 370.761 13.021 370.056 13.6344C369.381 14.217 368.829 14.9377 368.4 15.7964C367.97 16.6244 367.756 17.5904 367.756 18.6944V25.9624C367.756 26.6984 367.924 27.4191 368.262 28.1244C368.63 28.7991 369.136 29.4124 369.78 29.9644C370.424 30.5164 371.175 30.9611 372.034 31.2984C372.923 31.6357 373.904 31.8044 374.978 31.8044C377.094 31.8044 378.765 31.0837 379.992 29.6424C381.249 28.1704 381.878 26.1157 381.878 23.4784V20.0284Z" fill="#333333"/>
<path d="M355.584 5.40041C354.541 4.78708 353.422 4.31175 352.226 3.97441C351.06 3.60641 349.834 3.42242 348.546 3.42242C346.982 3.42242 345.663 3.74441 344.59 4.38841C343.516 5.00175 342.627 5.90641 341.922 7.10241C341.216 8.29841 340.68 9.77041 340.312 11.5184C339.944 13.2357 339.698 15.1984 339.576 17.4064C339.821 16.9157 340.174 16.3944 340.634 15.8424C341.124 15.2904 341.707 14.7844 342.382 14.3244C343.087 13.8644 343.9 13.4964 344.82 13.2204C345.74 12.9137 346.782 12.7604 347.948 12.7604C349.358 12.7604 350.692 12.9904 351.95 13.4504C353.238 13.9104 354.357 14.5851 355.308 15.4744C356.289 16.3331 357.056 17.4064 357.608 18.6944C358.19 19.9517 358.482 21.3931 358.482 23.0184V24.1224C358.482 25.7477 358.206 27.2197 357.654 28.5384C357.102 29.8264 356.335 30.9304 355.354 31.8504C354.403 32.7704 353.253 33.4757 351.904 33.9664C350.585 34.4571 349.159 34.7024 347.626 34.7024C346.062 34.7024 344.59 34.4264 343.21 33.8744C341.86 33.3531 340.68 32.5404 339.668 31.4364C338.656 30.3324 337.858 28.9371 337.276 27.2504C336.693 25.5331 336.402 23.5244 336.402 21.2244V20.1204C336.402 16.5631 336.678 13.5424 337.23 11.0584C337.812 8.57441 338.625 6.55041 339.668 4.98641C340.71 3.42241 341.983 2.28775 343.486 1.58241C344.988 0.877081 346.69 0.524414 348.592 0.524414C350.094 0.524414 351.566 0.723747 353.008 1.12241C354.48 1.52108 355.844 2.07308 357.102 2.77842L355.584 5.40041ZM339.898 23.4784C339.898 24.7357 340.082 25.8704 340.45 26.8824C340.818 27.8944 341.339 28.7684 342.014 29.5044C342.688 30.2404 343.486 30.8078 344.406 31.2064C345.356 31.6051 346.399 31.8044 347.534 31.8044C348.668 31.8044 349.711 31.6357 350.662 31.2984C351.612 30.9304 352.425 30.4244 353.1 29.7804C353.805 29.1057 354.342 28.2931 354.71 27.3424C355.108 26.3611 355.308 25.2417 355.308 23.9844V23.2944C355.308 22.0677 355.093 20.9791 354.664 20.0284C354.234 19.0471 353.667 18.2344 352.962 17.5904C352.256 16.9157 351.428 16.4097 350.478 16.0724C349.558 15.7351 348.592 15.5664 347.58 15.5664C346.598 15.5664 345.648 15.7504 344.728 16.1184C343.808 16.4864 342.995 16.9924 342.29 17.6364C341.584 18.2804 341.002 19.0624 340.542 19.9824C340.112 20.8717 339.898 21.8377 339.898 22.8804V23.4784Z" fill="#333333"/>
<path d="M327.404 13.4503V23.8923H332.28V26.8363H327.404V34.1963H324.184V26.8363H307.578V23.8923L323.678 1.03027H327.358L311.304 23.8923H324.184V13.4503H327.404Z" fill="#333333"/>
<path d="M288.675 20.1664V19.7524C288.675 17.1457 288.077 15.1524 286.881 13.7724C285.685 12.3924 283.999 11.7024 281.821 11.7024C279.613 11.7024 277.896 12.4384 276.669 13.9104C275.473 15.3517 274.875 17.299 274.875 19.7524V20.1664H288.675ZM291.251 31.7584C290.27 32.4637 289.043 33.1077 287.571 33.6904C286.099 34.273 284.321 34.5644 282.235 34.5644C278.923 34.5644 276.347 33.583 274.507 31.6204C272.667 29.627 271.747 26.821 271.747 23.2024V20.1204C271.747 16.5937 272.637 13.8491 274.415 11.8864C276.225 9.92372 278.693 8.94238 281.821 8.94238C285.072 8.94238 287.541 9.95438 289.227 11.9784C290.945 13.9717 291.803 16.7164 291.803 20.2124V22.7884H274.875V23.2024C274.875 25.9624 275.535 28.0937 276.853 29.5964C278.172 31.0684 279.981 31.8044 282.281 31.8044C283.937 31.8044 285.394 31.5591 286.651 31.0684C287.909 30.5777 288.982 30.0104 289.871 29.3664L291.251 31.7584Z" fill="#333333"/>
<path d="M267.896 12.6224C267.037 12.285 266.041 12.1164 264.906 12.1164C263.894 12.1164 262.974 12.3157 262.146 12.7144C261.318 13.113 260.613 13.665 260.03 14.3704C259.447 15.0757 259.003 15.919 258.696 16.9004C258.389 17.8817 258.236 18.9551 258.236 20.1204V34.1964H255.108V9.40238H258.19V13.7724C258.466 13.1897 258.803 12.607 259.202 12.0244C259.631 11.4417 260.137 10.9204 260.72 10.4604C261.333 10.0004 262.008 9.63238 262.744 9.35638C263.511 9.08038 264.369 8.94238 265.32 8.94238C266.025 8.94238 266.654 8.98838 267.206 9.08038C267.789 9.14172 268.341 9.26438 268.862 9.44838L267.896 12.6224Z" fill="#333333"/>
<path d="M237.297 34.5644C234.935 34.5644 233.019 33.9357 231.547 32.6784C230.075 31.4211 229.339 29.6884 229.339 27.4804V26.4684C229.339 24.4444 230.075 22.8037 231.547 21.5464C233.019 20.289 235.196 19.6604 238.079 19.6604H245.071V17.3604C245.071 15.5511 244.565 14.171 243.553 13.2204C242.571 12.239 241.115 11.7484 239.183 11.7484C237.833 11.7484 236.545 11.9937 235.319 12.4844C234.092 12.9444 232.942 13.5424 231.869 14.2784L230.351 11.8864C231.516 11.089 232.804 10.399 234.215 9.81638C235.656 9.23372 237.327 8.94238 239.229 8.94238C242.019 8.94238 244.197 9.63238 245.761 11.0124C247.355 12.3924 248.153 14.3397 248.153 16.8544V34.1964H245.117V31.1604H245.071C244.825 31.559 244.457 31.9731 243.967 32.4024C243.507 32.8011 242.955 33.1691 242.311 33.5064C240.9 34.2117 239.229 34.5644 237.297 34.5644ZM245.071 22.2824H238.125C236.131 22.2824 234.69 22.681 233.801 23.4784C232.911 24.2757 232.467 25.3184 232.467 26.6064V27.3424C232.467 28.1397 232.62 28.8297 232.927 29.4124C233.233 29.9644 233.632 30.4244 234.123 30.7924C234.644 31.1604 235.211 31.4364 235.825 31.6204C236.469 31.7737 237.113 31.8504 237.757 31.8504C238.738 31.8504 239.627 31.7277 240.425 31.4824C241.222 31.237 241.989 30.8844 242.725 30.4244C243.399 29.995 243.951 29.4737 244.381 28.8604C244.841 28.2164 245.071 27.419 245.071 26.4684V22.2824Z" fill="#333333"/>
<path d="M212.451 34.5643C209.63 34.5643 207.483 33.7823 206.011 32.2183C204.539 30.6543 203.803 28.5843 203.803 26.0083V9.40234H206.931V25.2263C206.931 26.1157 207.008 26.959 207.161 27.7563C207.345 28.523 207.652 29.213 208.081 29.8263C208.51 30.409 209.108 30.869 209.875 31.2063C210.672 31.5437 211.684 31.7123 212.911 31.7123C213.954 31.7123 214.904 31.5283 215.763 31.1603C216.652 30.7923 217.404 30.317 218.017 29.7343C218.661 29.121 219.152 28.4463 219.489 27.7103C219.857 26.9743 220.041 26.2383 220.041 25.5023V9.40234H223.169V34.1963H220.087V30.7463C219.504 31.697 218.569 32.571 217.281 33.3683C216.024 34.1657 214.414 34.5643 212.451 34.5643Z" fill="#333333"/>
<path d="M193.494 30.9304H193.448C192.743 32.1877 191.7 33.1077 190.32 33.6904C188.971 34.273 187.576 34.5644 186.134 34.5644C184.693 34.5644 183.374 34.319 182.178 33.8284C180.982 33.3684 179.94 32.6937 179.05 31.8044C178.161 30.8844 177.471 29.765 176.98 28.4464C176.49 27.1277 176.244 25.625 176.244 23.9384V19.5684C176.244 17.8817 176.49 16.379 176.98 15.0604C177.471 13.7417 178.146 12.6377 179.004 11.7484C179.894 10.8284 180.936 10.1384 182.132 9.67838C183.359 9.18772 184.678 8.94238 186.088 8.94238C187.928 8.94238 189.462 9.29505 190.688 10.0004C191.946 10.7057 192.896 11.5184 193.54 12.4384V9.40238H196.622V44.0404H193.494V30.9304ZM179.372 23.4784C179.372 26.1464 180.001 28.201 181.258 29.6424C182.516 31.0837 184.187 31.8044 186.272 31.8044C187.284 31.8044 188.22 31.6817 189.078 31.4364C189.968 31.1604 190.734 30.7617 191.378 30.2404C192.022 29.6884 192.528 29.0137 192.896 28.2164C193.295 27.3884 193.494 26.4224 193.494 25.3184V17.8664C193.494 17.1304 193.31 16.4097 192.942 15.7044C192.605 14.9684 192.114 14.309 191.47 13.7264C190.826 13.113 190.06 12.6224 189.17 12.2544C188.281 11.8864 187.315 11.7024 186.272 11.7024C184.156 11.7024 182.47 12.4384 181.212 13.9104C179.986 15.3517 179.372 17.391 179.372 20.0284V23.4784Z" fill="#333333"/>
<path d="M159.664 31.7124C160.952 31.7124 162.102 31.5591 163.114 31.2524C164.157 30.9457 165.031 30.5317 165.736 30.0104C166.472 29.4584 167.024 28.8451 167.392 28.1704C167.76 27.4651 167.944 26.7444 167.944 26.0084V25.0424C167.944 24.2757 167.821 23.5857 167.576 22.9724C167.331 22.3591 166.886 21.8071 166.242 21.3164C165.598 20.7951 164.709 20.3351 163.574 19.9364C162.47 19.5071 161.029 19.0931 159.25 18.6944C157.318 18.2651 155.693 17.7744 154.374 17.2224C153.086 16.6397 152.043 15.9957 151.246 15.2904C150.479 14.5544 149.927 13.7571 149.59 12.8984C149.283 12.0091 149.13 11.0431 149.13 10.0004V8.94242C149.13 7.68508 149.391 6.55042 149.912 5.53842C150.464 4.49575 151.215 3.60641 152.166 2.87041C153.147 2.13441 154.297 1.56708 155.616 1.16841C156.965 0.73908 158.422 0.524414 159.986 0.524414C162.225 0.524414 164.141 0.800414 165.736 1.35241C167.331 1.87375 168.695 2.53308 169.83 3.33041L168.312 5.95241C167.239 5.18575 166.012 4.58775 164.632 4.15841C163.252 3.69841 161.703 3.46841 159.986 3.46841C158.974 3.46841 158.008 3.59108 157.088 3.83641C156.168 4.08175 155.355 4.44975 154.65 4.94041C153.975 5.40041 153.423 5.96775 152.994 6.64241C152.595 7.31708 152.396 8.08375 152.396 8.94242V9.86242C152.396 10.5677 152.519 11.2117 152.764 11.7944C153.04 12.3771 153.469 12.8984 154.052 13.3584C154.665 13.8184 155.478 14.2477 156.49 14.6464C157.502 15.0451 158.759 15.4131 160.262 15.7504C162.409 16.2411 164.187 16.7777 165.598 17.3604C167.009 17.9124 168.128 18.5564 168.956 19.2924C169.784 20.0284 170.367 20.8564 170.704 21.7764C171.041 22.6964 171.21 23.7544 171.21 24.9504V26.0084C171.21 27.2044 170.949 28.3238 170.428 29.3664C169.907 30.4091 169.155 31.3291 168.174 32.1264C167.223 32.9237 166.027 33.5524 164.586 34.0124C163.175 34.4724 161.581 34.7024 159.802 34.7024C157.594 34.7024 155.524 34.3651 153.592 33.6904C151.691 33.0464 150.004 32.1571 148.532 31.0224L150.188 28.3084C151.844 29.5044 153.454 30.3784 155.018 30.9304C156.613 31.4517 158.161 31.7124 159.664 31.7124Z" fill="#333333"/>
<path d="M134.137 8.94238C136.958 8.94238 139.013 9.70905 140.301 11.2424C141.62 12.7757 142.279 14.861 142.279 17.4984V34.1964H139.151V18.3264C139.151 17.3144 139.059 16.4097 138.875 15.6124C138.722 14.815 138.43 14.1404 138.001 13.5884C137.602 13.0057 137.035 12.561 136.299 12.2544C135.594 11.9477 134.689 11.7944 133.585 11.7944C132.573 11.7944 131.684 11.9784 130.917 12.3464C130.15 12.7144 129.491 13.1897 128.939 13.7724C128.418 14.355 128.004 15.0144 127.697 15.7504C127.421 16.4864 127.268 17.207 127.237 17.9124V34.1964H124.109V18.3264C124.109 17.3144 124.017 16.4097 123.833 15.6124C123.68 14.815 123.388 14.1404 122.959 13.5884C122.56 13.0057 121.993 12.561 121.257 12.2544C120.552 11.9477 119.647 11.7944 118.543 11.7944C117.531 11.7944 116.626 11.9937 115.829 12.3924C115.032 12.7604 114.357 13.2511 113.805 13.8644C113.284 14.4777 112.885 15.1524 112.609 15.8884C112.333 16.6244 112.195 17.3604 112.195 18.0964V34.1964H109.067V9.40238H112.149V12.8524C112.425 12.3617 112.762 11.8864 113.161 11.4264C113.59 10.9357 114.096 10.5064 114.679 10.1384C115.262 9.77038 115.906 9.47905 116.611 9.26438C117.347 9.04972 118.175 8.94238 119.095 8.94238C121.088 8.94238 122.698 9.34105 123.925 10.1384C125.152 10.905 126.041 12.009 126.593 13.4504C126.869 12.929 127.222 12.4077 127.651 11.8864C128.111 11.3344 128.648 10.8437 129.261 10.4144C129.905 9.98505 130.626 9.63238 131.423 9.35638C132.251 9.08038 133.156 8.94238 134.137 8.94238Z" fill="#333333"/>
<path d="M90.9373 34.5643C88.116 34.5643 85.9693 33.7823 84.4973 32.2183C83.0253 30.6543 82.2893 28.5843 82.2893 26.0083V9.40234H85.4173V25.2263C85.4173 26.1157 85.494 26.959 85.6473 27.7563C85.8313 28.523 86.138 29.213 86.5673 29.8263C86.9966 30.409 87.5946 30.869 88.3613 31.2063C89.1586 31.5437 90.1706 31.7123 91.3973 31.7123C92.44 31.7123 93.3906 31.5283 94.2493 31.1603C95.1386 30.7923 95.89 30.317 96.5033 29.7343C97.1473 29.121 97.638 28.4463 97.9753 27.7103C98.3433 26.9743 98.5273 26.2383 98.5273 25.5023V9.40234H101.655V34.1963H98.5733V30.7463C97.9906 31.697 97.0553 32.571 95.7673 33.3683C94.51 34.1657 92.9 34.5643 90.9373 34.5643Z" fill="#333333"/>
<path d="M66.3719 8.94238C69.2239 8.94238 71.4166 9.72438 72.9499 11.2884C74.5139 12.8217 75.2959 14.8917 75.2959 17.4984V34.1964H72.1679V18.2804C72.1679 17.391 72.0759 16.563 71.8919 15.7964C71.7079 14.999 71.3706 14.309 70.8799 13.7264C70.4199 13.113 69.7759 12.6377 68.9479 12.3004C68.1506 11.963 67.1386 11.7944 65.9119 11.7944C64.8692 11.7944 63.9032 11.9937 63.0139 12.3924C62.1552 12.7604 61.4192 13.2511 60.8059 13.8644C60.1926 14.4777 59.7019 15.1524 59.3339 15.8884C58.9966 16.6244 58.8279 17.3604 58.8279 18.0964V34.1964H55.6999V9.40238H58.7819V12.8524C59.0579 12.3924 59.4259 11.9324 59.8859 11.4724C60.3459 10.9817 60.8979 10.5524 61.5419 10.1844C62.1859 9.81638 62.9066 9.52505 63.7039 9.31038C64.5012 9.06505 65.3906 8.94238 66.3719 8.94238Z" fill="#333333"/>
<path d="M37.8885 34.5644C35.5272 34.5644 33.6105 33.9357 32.1385 32.6784C30.6665 31.4211 29.9305 29.6884 29.9305 27.4804V26.4684C29.9305 24.4444 30.6665 22.8037 32.1385 21.5464C33.6105 20.289 35.7879 19.6604 38.6705 19.6604H45.6625V17.3604C45.6625 15.5511 45.1565 14.171 44.1445 13.2204C43.1632 12.239 41.7065 11.7484 39.7745 11.7484C38.4252 11.7484 37.1372 11.9937 35.9105 12.4844C34.6839 12.9444 33.5339 13.5424 32.4605 14.2784L30.9425 11.8864C32.1079 11.089 33.3959 10.399 34.8065 9.81638C36.2479 9.23372 37.9192 8.94238 39.8205 8.94238C42.6112 8.94238 44.7885 9.63238 46.3525 11.0124C47.9472 12.3924 48.7445 14.3397 48.7445 16.8544V34.1964H45.7085V31.1604H45.6625C45.4172 31.559 45.0492 31.9731 44.5585 32.4024C44.0985 32.8011 43.5465 33.1691 42.9025 33.5064C41.4919 34.2117 39.8205 34.5644 37.8885 34.5644ZM45.6625 22.2824H38.7165C36.7232 22.2824 35.2819 22.681 34.3925 23.4784C33.5032 24.2757 33.0585 25.3184 33.0585 26.6064V27.3424C33.0585 28.1397 33.2119 28.8297 33.5185 29.4124C33.8252 29.9644 34.2239 30.4244 34.7145 30.7924C35.2359 31.1604 35.8032 31.4364 36.4165 31.6204C37.0605 31.7737 37.7045 31.8504 38.3485 31.8504C39.3299 31.8504 40.2192 31.7277 41.0165 31.4824C41.8139 31.237 42.5805 30.8844 43.3165 30.4244C43.9912 29.995 44.5432 29.4737 44.9725 28.8604C45.4325 28.2164 45.6625 27.419 45.6625 26.4684V22.2824Z" fill="#333333"/>
<path d="M0 1.03027H3.818L19.044 26.9743C19.32 27.4343 19.5653 27.8943 19.78 28.3543C19.9947 28.7836 20.2707 29.3509 20.608 30.0563V1.03027H23.69V34.1963H19.872L4.6 8.16027C4.324 7.66961 4.07867 7.22494 3.864 6.82628C3.64933 6.42761 3.38867 5.87561 3.082 5.17027V34.1963H0V1.03027Z" fill="#333333"/>
<path d="M156.747 75.4456L160.167 80.4676H158.745L155.991 76.2016L153.147 80.4676H151.797L155.253 75.4456L151.995 70.7656H153.363L156.027 74.7256L158.673 70.7656H160.005L156.747 75.4456Z" fill="#333333"/>
<path d="M143.904 79.3159V84.3199H142.68V70.7659H143.886V72.1339C144.174 71.6419 144.576 71.2639 145.092 70.9999C145.62 70.7239 146.19 70.5859 146.802 70.5859C147.378 70.5859 147.9 70.6819 148.368 70.8739C148.848 71.0539 149.256 71.3239 149.592 71.6839C149.928 72.0319 150.186 72.4639 150.366 72.9799C150.558 73.4959 150.654 74.0839 150.654 74.7439V76.4539C150.654 77.1139 150.558 77.7019 150.366 78.2179C150.174 78.7339 149.904 79.1719 149.556 79.5319C149.22 79.8799 148.812 80.1439 148.332 80.3239C147.864 80.5159 147.354 80.6119 146.802 80.6119C146.118 80.6119 145.53 80.4799 145.038 80.2159C144.558 79.9639 144.186 79.6639 143.922 79.3159H143.904ZM149.43 74.9239C149.43 73.8799 149.184 73.0819 148.692 72.5299C148.212 71.9779 147.558 71.7019 146.73 71.7019C146.394 71.7019 146.058 71.7619 145.722 71.8819C145.386 72.0019 145.08 72.1819 144.804 72.4219C144.54 72.6499 144.324 72.9319 144.156 73.2679C143.988 73.5919 143.904 73.9699 143.904 74.4019V77.2459C143.904 77.5339 143.97 77.8159 144.102 78.0919C144.246 78.3559 144.444 78.5959 144.696 78.8119C144.948 79.0279 145.242 79.2019 145.578 79.3339C145.926 79.4659 146.31 79.5319 146.73 79.5319C147.558 79.5319 148.212 79.2499 148.692 78.6859C149.184 78.1099 149.43 77.3059 149.43 76.2739V74.9239Z" fill="#333333"/>
<path d="M133.309 70.802C133.309 71.15 133.369 71.48 133.489 71.792C133.609 72.104 133.777 72.374 133.993 72.602C134.221 72.83 134.491 73.01 134.803 73.142C135.115 73.274 135.463 73.34 135.847 73.34C136.231 73.34 136.579 73.274 136.891 73.142C137.203 73.01 137.467 72.83 137.683 72.602C137.911 72.374 138.085 72.104 138.205 71.792C138.325 71.48 138.385 71.15 138.385 70.802V70.586C138.385 69.914 138.151 69.386 137.683 69.002C137.227 68.606 136.615 68.408 135.847 68.408C135.067 68.408 134.449 68.606 133.993 69.002C133.537 69.386 133.309 69.914 133.309 70.586V70.802ZM132.949 77.138C132.949 77.474 133.015 77.786 133.147 78.074C133.279 78.362 133.471 78.614 133.723 78.83C133.975 79.046 134.275 79.22 134.623 79.352C134.983 79.472 135.391 79.532 135.847 79.532C136.303 79.532 136.711 79.472 137.071 79.352C137.431 79.22 137.731 79.046 137.971 78.83C138.223 78.614 138.415 78.362 138.547 78.074C138.679 77.786 138.745 77.474 138.745 77.138V76.922C138.745 76.538 138.673 76.19 138.529 75.878C138.385 75.566 138.187 75.296 137.935 75.068C137.683 74.84 137.377 74.666 137.017 74.546C136.669 74.426 136.279 74.366 135.847 74.366C135.427 74.366 135.037 74.426 134.677 74.546C134.329 74.666 134.023 74.84 133.759 75.068C133.507 75.284 133.309 75.548 133.165 75.86C133.021 76.172 132.949 76.526 132.949 76.922V77.138ZM131.671 76.868C131.671 76.148 131.887 75.518 132.319 74.978C132.763 74.426 133.339 74.042 134.047 73.826C133.423 73.538 132.937 73.136 132.589 72.62C132.253 72.104 132.085 71.504 132.085 70.82V70.532C132.085 70.064 132.175 69.632 132.355 69.236C132.547 68.84 132.811 68.498 133.147 68.21C133.483 67.922 133.879 67.7 134.335 67.544C134.803 67.376 135.307 67.292 135.847 67.292C136.387 67.292 136.885 67.376 137.341 67.544C137.809 67.7 138.211 67.922 138.547 68.21C138.883 68.498 139.141 68.84 139.321 69.236C139.513 69.632 139.609 70.064 139.609 70.532V70.82C139.609 71.504 139.435 72.104 139.087 72.62C138.751 73.136 138.265 73.538 137.629 73.826C137.977 73.934 138.295 74.084 138.583 74.276C138.883 74.468 139.135 74.702 139.339 74.978C139.555 75.242 139.723 75.536 139.843 75.86C139.963 76.172 140.023 76.508 140.023 76.868V77.174C140.023 77.69 139.921 78.164 139.717 78.596C139.525 79.028 139.243 79.4 138.871 79.712C138.511 80.012 138.073 80.246 137.557 80.414C137.041 80.582 136.471 80.666 135.847 80.666C135.223 80.666 134.653 80.582 134.137 80.414C133.621 80.246 133.177 80.012 132.805 79.712C132.445 79.4 132.163 79.028 131.959 78.596C131.767 78.164 131.671 77.69 131.671 77.174V76.868Z" fill="#333333"/>
<path d="M125.252 80.4682V69.0742L122.12 70.9822L121.544 69.9742L125.558 67.4902H126.512V80.4682H125.252Z" fill="#333333"/>
<path d="M112.96 74.9779V74.8159C112.96 73.7959 112.726 73.0159 112.258 72.4759C111.79 71.9359 111.13 71.6659 110.278 71.6659C109.414 71.6659 108.742 71.9539 108.262 72.5299C107.794 73.0939 107.56 73.8559 107.56 74.8159V74.9779H112.96ZM113.968 79.5139C113.584 79.7899 113.104 80.0419 112.528 80.2699C111.952 80.4979 111.256 80.6119 110.44 80.6119C109.144 80.6119 108.136 80.2279 107.416 79.4599C106.696 78.6799 106.336 77.5819 106.336 76.1659V74.9599C106.336 73.5799 106.684 72.5059 107.38 71.7379C108.088 70.9699 109.054 70.5859 110.278 70.5859C111.55 70.5859 112.516 70.9819 113.176 71.7739C113.848 72.5539 114.184 73.6279 114.184 74.9959V76.0039H107.56V76.1659C107.56 77.2459 107.818 78.0799 108.334 78.6679C108.85 79.2439 109.558 79.5319 110.458 79.5319C111.106 79.5319 111.676 79.4359 112.168 79.2439C112.66 79.0519 113.08 78.8299 113.428 78.5779L113.968 79.5139Z" fill="#333333"/>
<path d="M104.829 72.0259C104.493 71.8939 104.103 71.8279 103.659 71.8279C103.263 71.8279 102.903 71.9059 102.579 72.0619C102.255 72.2179 101.979 72.4339 101.751 72.7099C101.523 72.9859 101.349 73.3159 101.229 73.6999C101.109 74.0839 101.049 74.5039 101.049 74.9599V80.4679H99.825V70.7659H101.031V72.4759C101.139 72.2479 101.271 72.0199 101.427 71.7919C101.595 71.5639 101.793 71.3599 102.021 71.1799C102.261 70.9999 102.525 70.8559 102.813 70.7479C103.113 70.6399 103.449 70.5859 103.821 70.5859C104.097 70.5859 104.343 70.6039 104.559 70.6399C104.787 70.6639 105.003 70.7119 105.207 70.7839L104.829 72.0259Z" fill="#333333"/>
<path d="M92.8553 80.6119C91.9313 80.6119 91.1813 80.3659 90.6053 79.8739C90.0293 79.3819 89.7413 78.7039 89.7413 77.8399V77.4439C89.7413 76.6519 90.0293 76.0099 90.6053 75.5179C91.1813 75.0259 92.0333 74.7799 93.1613 74.7799H95.8973V73.8799C95.8973 73.1719 95.6993 72.6319 95.3033 72.2599C94.9193 71.8759 94.3493 71.6839 93.5933 71.6839C93.0653 71.6839 92.5613 71.7799 92.0813 71.9719C91.6013 72.1519 91.1513 72.3859 90.7313 72.6739L90.1373 71.7379C90.5933 71.4259 91.0973 71.1559 91.6493 70.9279C92.2133 70.6999 92.8673 70.5859 93.6113 70.5859C94.7033 70.5859 95.5553 70.8559 96.1673 71.3959C96.7913 71.9359 97.1033 72.6979 97.1033 73.6819V80.4679H95.9153V79.2799H95.8973C95.8013 79.4359 95.6573 79.5979 95.4653 79.7659C95.2853 79.9219 95.0693 80.0659 94.8173 80.1979C94.2653 80.4739 93.6113 80.6119 92.8553 80.6119ZM95.8973 75.8059H93.1793C92.3993 75.8059 91.8353 75.9619 91.4873 76.2739C91.1393 76.5859 90.9653 76.9939 90.9653 77.4979V77.7859C90.9653 78.0979 91.0253 78.3679 91.1453 78.5959C91.2653 78.8119 91.4213 78.9919 91.6133 79.1359C91.8173 79.2799 92.0393 79.3879 92.2793 79.4599C92.5313 79.5199 92.7833 79.5499 93.0353 79.5499C93.4193 79.5499 93.7673 79.5019 94.0793 79.4059C94.3913 79.3099 94.6913 79.1719 94.9793 78.9919C95.2433 78.8239 95.4593 78.6199 95.6273 78.3799C95.8073 78.1279 95.8973 77.8159 95.8973 77.4439V75.8059Z" fill="#333333"/>
<path d="M83.1331 80.6116C82.0291 80.6116 81.1891 80.3056 80.6131 79.6936C80.0371 79.0816 79.7491 78.2716 79.7491 77.2636V70.7656H80.9731V76.9576C80.9731 77.3056 81.0031 77.6356 81.0631 77.9476C81.1351 78.2476 81.2551 78.5176 81.4231 78.7576C81.5911 78.9856 81.8251 79.1656 82.1251 79.2976C82.4371 79.4296 82.8331 79.4956 83.3131 79.4956C83.7211 79.4956 84.0931 79.4236 84.4291 79.2796C84.7771 79.1356 85.0711 78.9496 85.3111 78.7216C85.5631 78.4816 85.7551 78.2176 85.8871 77.9296C86.0311 77.6416 86.1031 77.3536 86.1031 77.0656V70.7656H87.3271V80.4676H86.1211V79.1176C85.8931 79.4896 85.5271 79.8316 85.0231 80.1436C84.5311 80.4556 83.9011 80.6116 83.1331 80.6116Z" fill="#333333"/>
<path d="M75.7152 79.1899H75.6972C75.4212 79.6819 75.0132 80.0419 74.4732 80.2699C73.9452 80.4979 73.3992 80.6119 72.8352 80.6119C72.2712 80.6119 71.7552 80.5159 71.2872 80.3239C70.8192 80.1439 70.4112 79.8799 70.0632 79.5319C69.7152 79.1719 69.4452 78.7339 69.2532 78.2179C69.0612 77.7019 68.9652 77.1139 68.9652 76.4539V74.7439C68.9652 74.0839 69.0612 73.4959 69.2532 72.9799C69.4452 72.4639 69.7092 72.0319 70.0452 71.6839C70.3932 71.3239 70.8012 71.0539 71.2692 70.8739C71.7492 70.6819 72.2652 70.5859 72.8172 70.5859C73.5372 70.5859 74.1372 70.7239 74.6172 70.9999C75.1092 71.2759 75.4812 71.5939 75.7332 71.9539V70.7659H76.9392V84.3199H75.7152V79.1899ZM70.1892 76.2739C70.1892 77.3179 70.4352 78.1219 70.9272 78.6859C71.4192 79.2499 72.0732 79.5319 72.8892 79.5319C73.2852 79.5319 73.6512 79.4839 73.9872 79.3879C74.3352 79.2799 74.6352 79.1239 74.8872 78.9199C75.1392 78.7039 75.3372 78.4399 75.4812 78.1279C75.6372 77.8039 75.7152 77.4259 75.7152 76.9939V74.0779C75.7152 73.7899 75.6432 73.5079 75.4992 73.2319C75.3672 72.9439 75.1752 72.6859 74.9232 72.4579C74.6712 72.2179 74.3712 72.0259 74.0232 71.8819C73.6752 71.7379 73.2972 71.6659 72.8892 71.6659C72.0612 71.6659 71.4012 71.9539 70.9092 72.5299C70.4292 73.0939 70.1892 73.8919 70.1892 74.9239V76.2739Z" fill="#333333"/>
<path d="M62.4772 79.496C62.9812 79.496 63.4312 79.436 63.8272 79.316C64.2352 79.196 64.5772 79.034 64.8532 78.83C65.1412 78.614 65.3572 78.374 65.5012 78.11C65.6452 77.834 65.7172 77.552 65.7172 77.264V76.886C65.7172 76.586 65.6692 76.316 65.5732 76.076C65.4772 75.836 65.3032 75.62 65.0512 75.428C64.7992 75.224 64.4512 75.044 64.0072 74.888C63.5752 74.72 63.0112 74.558 62.3152 74.402C61.5592 74.234 60.9232 74.042 60.4072 73.826C59.9032 73.598 59.4952 73.346 59.1832 73.07C58.8832 72.782 58.6672 72.47 58.5352 72.134C58.4152 71.786 58.3552 71.408 58.3552 71V70.586C58.3552 70.094 58.4572 69.65 58.6612 69.254C58.8772 68.846 59.1712 68.498 59.5432 68.21C59.9272 67.922 60.3772 67.7 60.8932 67.544C61.4212 67.376 61.9912 67.292 62.6032 67.292C63.4792 67.292 64.2292 67.4 64.8532 67.616C65.4772 67.82 66.0112 68.078 66.4552 68.39L65.8612 69.416C65.4412 69.116 64.9612 68.882 64.4212 68.714C63.8812 68.534 63.2752 68.444 62.6032 68.444C62.2072 68.444 61.8292 68.492 61.4692 68.588C61.1092 68.684 60.7912 68.828 60.5152 69.02C60.2512 69.2 60.0352 69.422 59.8672 69.686C59.7112 69.95 59.6332 70.25 59.6332 70.586V70.946C59.6332 71.222 59.6812 71.474 59.7772 71.702C59.8852 71.93 60.0532 72.134 60.2812 72.314C60.5212 72.494 60.8392 72.662 61.2352 72.818C61.6312 72.974 62.1232 73.118 62.7112 73.25C63.5512 73.442 64.2472 73.652 64.7992 73.88C65.3512 74.096 65.7892 74.348 66.1132 74.636C66.4372 74.924 66.6652 75.248 66.7972 75.608C66.9292 75.968 66.9952 76.382 66.9952 76.85V77.264C66.9952 77.732 66.8932 78.17 66.6892 78.578C66.4852 78.986 66.1912 79.346 65.8072 79.658C65.4352 79.97 64.9672 80.216 64.4032 80.396C63.8512 80.576 63.2272 80.666 62.5312 80.666C61.6672 80.666 60.8572 80.534 60.1012 80.27C59.3572 80.018 58.6972 79.67 58.1212 79.226L58.7692 78.164C59.4172 78.632 60.0472 78.974 60.6592 79.19C61.2832 79.394 61.8892 79.496 62.4772 79.496Z" fill="#333333"/>
<path d="M52.4885 70.5859C53.5925 70.5859 54.3965 70.8859 54.9005 71.4859C55.4165 72.0859 55.6745 72.9019 55.6745 73.9339V80.4679H54.4505V74.2579C54.4505 73.8619 54.4145 73.5079 54.3425 73.1959C54.2825 72.8839 54.1685 72.6199 54.0005 72.4039C53.8445 72.1759 53.6225 72.0019 53.3345 71.8819C53.0585 71.7619 52.7045 71.7019 52.2725 71.7019C51.8765 71.7019 51.5285 71.7739 51.2285 71.9179C50.9285 72.0619 50.6705 72.2479 50.4545 72.4759C50.2505 72.7039 50.0885 72.9619 49.9685 73.2499C49.8605 73.5379 49.8005 73.8199 49.7885 74.0959V80.4679H48.5645V74.2579C48.5645 73.8619 48.5285 73.5079 48.4565 73.1959C48.3965 72.8839 48.2825 72.6199 48.1145 72.4039C47.9585 72.1759 47.7365 72.0019 47.4485 71.8819C47.1725 71.7619 46.8185 71.7019 46.3865 71.7019C45.9905 71.7019 45.6365 71.7799 45.3245 71.9359C45.0125 72.0799 44.7485 72.2719 44.5325 72.5119C44.3285 72.7519 44.1725 73.0159 44.0645 73.3039C43.9565 73.5919 43.9025 73.8799 43.9025 74.1679V80.4679H42.6785V70.7659H43.8845V72.1159C43.9925 71.9239 44.1245 71.7379 44.2805 71.5579C44.4485 71.3659 44.6465 71.1979 44.8745 71.0539C45.1025 70.9099 45.3545 70.7959 45.6305 70.7119C45.9185 70.6279 46.2425 70.5859 46.6025 70.5859C47.3825 70.5859 48.0125 70.7419 48.4925 71.0539C48.9725 71.3539 49.3205 71.7859 49.5365 72.3499C49.6445 72.1459 49.7825 71.9419 49.9505 71.7379C50.1305 71.5219 50.3405 71.3299 50.5805 71.1619C50.8325 70.9939 51.1145 70.8559 51.4265 70.7479C51.7505 70.6399 52.1045 70.5859 52.4885 70.5859Z" fill="#333333"/>
<path d="M35.5843 80.6116C34.4803 80.6116 33.6403 80.3056 33.0643 79.6936C32.4883 79.0816 32.2003 78.2716 32.2003 77.2636V70.7656H33.4243V76.9576C33.4243 77.3056 33.4543 77.6356 33.5143 77.9476C33.5863 78.2476 33.7063 78.5176 33.8743 78.7576C34.0423 78.9856 34.2763 79.1656 34.5763 79.2976C34.8883 79.4296 35.2843 79.4956 35.7643 79.4956C36.1723 79.4956 36.5443 79.4236 36.8803 79.2796C37.2283 79.1356 37.5223 78.9496 37.7623 78.7216C38.0143 78.4816 38.2063 78.2176 38.3383 77.9296C38.4823 77.6416 38.5543 77.3536 38.5543 77.0656V70.7656H39.7783V80.4676H38.5723V79.1176C38.3443 79.4896 37.9783 79.8316 37.4743 80.1436C36.9823 80.4556 36.3523 80.6116 35.5843 80.6116Z" fill="#333333"/>
<path d="M25.9717 70.5859C27.0877 70.5859 27.9457 70.8919 28.5457 71.5039C29.1577 72.1039 29.4637 72.9139 29.4637 73.9339V80.4679H28.2397V74.2399C28.2397 73.8919 28.2037 73.5679 28.1317 73.2679C28.0597 72.9559 27.9277 72.6859 27.7357 72.4579C27.5557 72.2179 27.3037 72.0319 26.9797 71.8999C26.6677 71.7679 26.2717 71.7019 25.7917 71.7019C25.3837 71.7019 25.0057 71.7799 24.6577 71.9359C24.3217 72.0799 24.0337 72.2719 23.7937 72.5119C23.5537 72.7519 23.3617 73.0159 23.2177 73.3039C23.0857 73.5919 23.0197 73.8799 23.0197 74.1679V80.4679H21.7957V70.7659H23.0017V72.1159C23.1097 71.9359 23.2537 71.7559 23.4337 71.5759C23.6137 71.3839 23.8297 71.2159 24.0817 71.0719C24.3337 70.9279 24.6157 70.8139 24.9277 70.7299C25.2397 70.6339 25.5877 70.5859 25.9717 70.5859Z" fill="#333333"/>
<path d="M14.826 80.6119C13.902 80.6119 13.152 80.3659 12.576 79.8739C12 79.3819 11.712 78.7039 11.712 77.8399V77.4439C11.712 76.6519 12 76.0099 12.576 75.5179C13.152 75.0259 14.004 74.7799 15.132 74.7799H17.868V73.8799C17.868 73.1719 17.67 72.6319 17.274 72.2599C16.89 71.8759 16.32 71.6839 15.564 71.6839C15.036 71.6839 14.532 71.7799 14.052 71.9719C13.572 72.1519 13.122 72.3859 12.702 72.6739L12.108 71.7379C12.564 71.4259 13.068 71.1559 13.62 70.9279C14.184 70.6999 14.838 70.5859 15.582 70.5859C16.674 70.5859 17.526 70.8559 18.138 71.3959C18.762 71.9359 19.074 72.6979 19.074 73.6819V80.4679H17.886V79.2799H17.868C17.772 79.4359 17.628 79.5979 17.436 79.7659C17.256 79.9219 17.04 80.0659 16.788 80.1979C16.236 80.4739 15.582 80.6119 14.826 80.6119ZM17.868 75.8059H15.15C14.37 75.8059 13.806 75.9619 13.458 76.2739C13.11 76.5859 12.936 76.9939 12.936 77.4979V77.7859C12.936 78.0979 12.996 78.3679 13.116 78.5959C13.236 78.8119 13.392 78.9919 13.584 79.1359C13.788 79.2799 14.01 79.3879 14.25 79.4599C14.502 79.5199 14.754 79.5499 15.006 79.5499C15.39 79.5499 15.738 79.5019 16.05 79.4059C16.362 79.3099 16.662 79.1719 16.95 78.9919C17.214 78.8239 17.43 78.6199 17.598 78.3799C17.778 78.1279 17.868 77.8159 17.868 77.4439V75.8059Z" fill="#333333"/>
<path d="M6.10352e-05 67.4902H1.49406L7.45206 77.6422C7.56006 77.8222 7.65606 78.0022 7.74006 78.1822C7.82406 78.3502 7.93206 78.5722 8.06406 78.8482V67.4902H9.27006V80.4682H7.77606L1.80006 70.2802C1.69206 70.0882 1.59606 69.9142 1.51206 69.7582C1.42806 69.6022 1.32606 69.3862 1.20606 69.1102V80.4682H6.10352e-05V67.4902Z" fill="#333333"/>
<path d="M139.33 95.952L142.37 100.416H141.106L138.658 96.624L136.13 100.416H134.93L138.002 95.952L135.106 91.792H136.322L138.69 95.312L141.042 91.792H142.226L139.33 95.952Z" fill="#333333"/>
<path d="M127.915 99.3918V103.84H126.827V91.7918H127.899V93.0078C128.155 92.5705 128.512 92.2345 128.971 91.9998C129.44 91.7545 129.947 91.6318 130.491 91.6318C131.003 91.6318 131.467 91.7172 131.883 91.8878C132.31 92.0478 132.672 92.2878 132.971 92.6078C133.27 92.9172 133.499 93.3012 133.659 93.7598C133.83 94.2185 133.915 94.7412 133.915 95.3278V96.8478C133.915 97.4345 133.83 97.9572 133.659 98.4158C133.488 98.8745 133.248 99.2638 132.939 99.5838C132.64 99.8932 132.278 100.128 131.851 100.288C131.435 100.459 130.982 100.544 130.491 100.544C129.883 100.544 129.36 100.427 128.923 100.192C128.496 99.9678 128.166 99.7012 127.931 99.3918H127.915ZM132.827 95.4878C132.827 94.5598 132.608 93.8505 132.171 93.3598C131.744 92.8692 131.163 92.6238 130.427 92.6238C130.128 92.6238 129.83 92.6772 129.531 92.7838C129.232 92.8905 128.96 93.0505 128.715 93.2638C128.48 93.4665 128.288 93.7172 128.139 94.0158C127.99 94.3038 127.915 94.6398 127.915 95.0238V97.5518C127.915 97.8078 127.974 98.0585 128.091 98.3038C128.219 98.5385 128.395 98.7518 128.619 98.9438C128.843 99.1358 129.104 99.2905 129.403 99.4078C129.712 99.5252 130.054 99.5838 130.427 99.5838C131.163 99.5838 131.744 99.3332 132.171 98.8318C132.608 98.3198 132.827 97.6052 132.827 96.6878V95.4878Z" fill="#333333"/>
<path d="M123.681 90.4001C123.319 90.1868 122.929 90.0214 122.513 89.9041C122.108 89.7761 121.681 89.7121 121.233 89.7121C120.689 89.7121 120.231 89.8241 119.857 90.0481C119.484 90.2614 119.175 90.5761 118.929 90.9921C118.684 91.4081 118.497 91.9201 118.369 92.5281C118.241 93.1254 118.156 93.8081 118.113 94.5761C118.199 94.4054 118.321 94.2241 118.481 94.0321C118.652 93.8401 118.855 93.6641 119.089 93.5041C119.335 93.3441 119.617 93.2161 119.937 93.1201C120.257 93.0134 120.62 92.9601 121.025 92.9601C121.516 92.9601 121.98 93.0401 122.417 93.2001C122.865 93.3601 123.255 93.5948 123.585 93.9041C123.927 94.2028 124.193 94.5761 124.385 95.0241C124.588 95.4614 124.689 95.9628 124.689 96.5281V96.9121C124.689 97.4774 124.593 97.9894 124.401 98.4481C124.209 98.8961 123.943 99.2801 123.601 99.6001C123.271 99.9201 122.871 100.165 122.401 100.336C121.943 100.507 121.447 100.592 120.913 100.592C120.369 100.592 119.857 100.496 119.377 100.304C118.908 100.123 118.497 99.8401 118.145 99.4561C117.793 99.0721 117.516 98.5868 117.313 98.0001C117.111 97.4028 117.009 96.7041 117.009 95.9041V95.5201C117.009 94.2828 117.105 93.2321 117.297 92.3681C117.5 91.5041 117.783 90.8001 118.145 90.2561C118.508 89.7121 118.951 89.3174 119.473 89.0721C119.996 88.8268 120.588 88.7041 121.249 88.7041C121.772 88.7041 122.284 88.7734 122.785 88.9121C123.297 89.0508 123.772 89.2428 124.209 89.4881L123.681 90.4001ZM118.225 96.6881C118.225 97.1254 118.289 97.5201 118.417 97.8721C118.545 98.2241 118.727 98.5281 118.961 98.7841C119.196 99.0401 119.473 99.2374 119.793 99.3761C120.124 99.5148 120.487 99.5841 120.881 99.5841C121.276 99.5841 121.639 99.5254 121.969 99.4081C122.3 99.2801 122.583 99.1041 122.817 98.8801C123.063 98.6454 123.249 98.3628 123.377 98.0321C123.516 97.6908 123.585 97.3014 123.585 96.8641V96.6241C123.585 96.1974 123.511 95.8188 123.361 95.4881C123.212 95.1468 123.015 94.8641 122.769 94.6401C122.524 94.4054 122.236 94.2294 121.905 94.1121C121.585 93.9948 121.249 93.9361 120.897 93.9361C120.556 93.9361 120.225 94.0001 119.905 94.1281C119.585 94.2561 119.303 94.4321 119.057 94.6561C118.812 94.8801 118.609 95.1521 118.449 95.4721C118.3 95.7814 118.225 96.1174 118.225 96.4801V96.6881Z" fill="#333333"/>
<path d="M111.336 100.416V90.2879L108.552 91.9839L108.04 91.0879L111.608 88.8799H112.456V100.416H111.336Z" fill="#333333"/>
<path d="M100.409 95.5358V95.3918C100.409 94.4852 100.201 93.7918 99.7848 93.3118C99.3688 92.8318 98.7822 92.5918 98.0248 92.5918C97.2568 92.5918 96.6595 92.8478 96.2328 93.3598C95.8168 93.8612 95.6088 94.5385 95.6088 95.3918V95.5358H100.409ZM101.305 99.5678C100.963 99.8132 100.537 100.037 100.025 100.24C99.5128 100.443 98.8941 100.544 98.1688 100.544C97.0168 100.544 96.1208 100.203 95.4808 99.5198C94.8408 98.8265 94.5208 97.8505 94.5208 96.5918V95.5198C94.5208 94.2932 94.8301 93.3385 95.4488 92.6558C96.0781 91.9732 96.9368 91.6318 98.0248 91.6318C99.1555 91.6318 100.014 91.9838 100.601 92.6878C101.198 93.3812 101.497 94.3358 101.497 95.5518V96.4478H95.6088V96.5918C95.6088 97.5518 95.8381 98.2932 96.2968 98.8158C96.7555 99.3278 97.3848 99.5838 98.1848 99.5838C98.7608 99.5838 99.2675 99.4985 99.7048 99.3278C100.142 99.1572 100.515 98.9598 100.825 98.7358L101.305 99.5678Z" fill="#333333"/>
<path d="M93.1813 92.9118C92.8826 92.7945 92.5359 92.7358 92.1413 92.7358C91.7893 92.7358 91.4693 92.8052 91.1813 92.9438C90.8933 93.0825 90.6479 93.2745 90.4453 93.5198C90.2426 93.7652 90.0879 94.0585 89.9813 94.3998C89.8746 94.7412 89.8213 95.1145 89.8213 95.5198V100.416H88.7333V91.7918H89.8053V93.3118C89.9013 93.1092 90.0186 92.9065 90.1573 92.7038C90.3066 92.5012 90.4826 92.3198 90.6853 92.1598C90.8986 91.9998 91.1333 91.8718 91.3893 91.7758C91.6559 91.6798 91.9546 91.6318 92.2853 91.6318C92.5306 91.6318 92.7493 91.6478 92.9413 91.6798C93.1439 91.7012 93.3359 91.7438 93.5173 91.8078L93.1813 92.9118Z" fill="#333333"/>
<path d="M82.5381 100.544C81.7167 100.544 81.0501 100.325 80.5381 99.8878C80.0261 99.4505 79.7701 98.8478 79.7701 98.0798V97.7278C79.7701 97.0238 80.0261 96.4532 80.5381 96.0158C81.0501 95.5785 81.8074 95.3598 82.8101 95.3598H85.2421V94.5598C85.2421 93.9305 85.0661 93.4505 84.7141 93.1198C84.3727 92.7785 83.8661 92.6078 83.1941 92.6078C82.7248 92.6078 82.2767 92.6932 81.8501 92.8638C81.4234 93.0238 81.0234 93.2318 80.6501 93.4878L80.1221 92.6558C80.5274 92.3785 80.9754 92.1385 81.4661 91.9358C81.9674 91.7332 82.5487 91.6318 83.2101 91.6318C84.1807 91.6318 84.9381 91.8718 85.4821 92.3518C86.0367 92.8318 86.3141 93.5092 86.3141 94.3838V100.416H85.2581V99.3598H85.2421C85.1567 99.4985 85.0287 99.6425 84.8581 99.7918C84.6981 99.9305 84.5061 100.059 84.2821 100.176C83.7914 100.421 83.2101 100.544 82.5381 100.544ZM85.2421 96.2718H82.8261C82.1327 96.2718 81.6314 96.4105 81.3221 96.6878C81.0127 96.9652 80.8581 97.3278 80.8581 97.7758V98.0318C80.8581 98.3092 80.9114 98.5492 81.0181 98.7518C81.1247 98.9438 81.2634 99.1038 81.4341 99.2318C81.6154 99.3598 81.8128 99.4558 82.0261 99.5198C82.2501 99.5732 82.4741 99.5998 82.6981 99.5998C83.0394 99.5998 83.3488 99.5572 83.6261 99.4718C83.9034 99.3865 84.1701 99.2638 84.4261 99.1038C84.6607 98.9545 84.8527 98.7732 85.0021 98.5598C85.1621 98.3358 85.2421 98.0585 85.2421 97.7278V96.2718Z" fill="#333333"/>
<path d="M73.8961 100.544C72.9147 100.544 72.1681 100.272 71.6561 99.728C71.1441 99.184 70.8881 98.464 70.8881 97.568V91.792H71.9761V97.296C71.9761 97.6053 72.0027 97.8987 72.0561 98.176C72.1201 98.4427 72.2267 98.6827 72.3761 98.896C72.5254 99.0987 72.7334 99.2587 73.0001 99.376C73.2774 99.4933 73.6294 99.552 74.0561 99.552C74.4187 99.552 74.7494 99.488 75.0481 99.36C75.3574 99.232 75.6187 99.0667 75.8321 98.864C76.0561 98.6507 76.2267 98.416 76.3441 98.16C76.4721 97.904 76.5361 97.648 76.5361 97.392V91.792H77.6241V100.416H76.5521V99.216C76.3494 99.5467 76.0241 99.8507 75.5761 100.128C75.1387 100.405 74.5787 100.544 73.8961 100.544Z" fill="#333333"/>
<path d="M67.3024 99.2798H67.2864C67.0411 99.7172 66.6784 100.037 66.1984 100.24C65.7291 100.443 65.2438 100.544 64.7424 100.544C64.2411 100.544 63.7824 100.459 63.3664 100.288C62.9504 100.128 62.5878 99.8932 62.2784 99.5838C61.9691 99.2638 61.7291 98.8745 61.5584 98.4158C61.3878 97.9572 61.3024 97.4345 61.3024 96.8478V95.3278C61.3024 94.7412 61.3878 94.2185 61.5584 93.7598C61.7291 93.3012 61.9638 92.9172 62.2624 92.6078C62.5718 92.2878 62.9344 92.0478 63.3504 91.8878C63.7771 91.7172 64.2358 91.6318 64.7264 91.6318C65.3664 91.6318 65.8998 91.7545 66.3264 91.9998C66.7638 92.2452 67.0944 92.5278 67.3184 92.8478V91.7918H68.3904V103.84H67.3024V99.2798ZM62.3904 96.6878C62.3904 97.6158 62.6091 98.3305 63.0464 98.8318C63.4838 99.3332 64.0651 99.5838 64.7904 99.5838C65.1424 99.5838 65.4678 99.5412 65.7664 99.4558C66.0758 99.3598 66.3424 99.2212 66.5664 99.0398C66.7904 98.8478 66.9664 98.6132 67.0944 98.3358C67.2331 98.0478 67.3024 97.7118 67.3024 97.3278V94.7358C67.3024 94.4798 67.2384 94.2292 67.1104 93.9838C66.9931 93.7278 66.8224 93.4985 66.5984 93.2958C66.3744 93.0825 66.1078 92.9118 65.7984 92.7838C65.4891 92.6558 65.1531 92.5918 64.7904 92.5918C64.0544 92.5918 63.4678 92.8478 63.0304 93.3598C62.6038 93.8612 62.3904 94.5705 62.3904 95.4878V96.6878Z" fill="#333333"/>
<path d="M55.5353 99.5521C55.9833 99.5521 56.3833 99.4988 56.7353 99.3921C57.098 99.2854 57.402 99.1414 57.6473 98.9601C57.9033 98.7681 58.0953 98.5548 58.2233 98.3201C58.3513 98.0748 58.4153 97.8241 58.4153 97.5681V97.2321C58.4153 96.9654 58.3727 96.7254 58.2873 96.5121C58.202 96.2988 58.0473 96.1068 57.8233 95.9361C57.5993 95.7548 57.29 95.5948 56.8953 95.4561C56.5113 95.3068 56.01 95.1628 55.3913 95.0241C54.7193 94.8748 54.154 94.7041 53.6953 94.5121C53.2473 94.3094 52.8847 94.0854 52.6073 93.8401C52.3407 93.5841 52.1487 93.3068 52.0313 93.0081C51.9247 92.6988 51.8713 92.3628 51.8713 92.0001V91.6321C51.8713 91.1948 51.962 90.8001 52.1433 90.4481C52.3353 90.0854 52.5967 89.7761 52.9273 89.5201C53.2687 89.2641 53.6687 89.0668 54.1273 88.9281C54.5967 88.7788 55.1033 88.7041 55.6473 88.7041C56.426 88.7041 57.0927 88.8001 57.6473 88.9921C58.202 89.1734 58.6767 89.4028 59.0713 89.6801L58.5433 90.5921C58.17 90.3254 57.7433 90.1174 57.2633 89.9681C56.7833 89.8081 56.2447 89.7281 55.6473 89.7281C55.2953 89.7281 54.9593 89.7708 54.6393 89.8561C54.3193 89.9414 54.0367 90.0694 53.7913 90.2401C53.5567 90.4001 53.3647 90.5974 53.2153 90.8321C53.0767 91.0668 53.0073 91.3334 53.0073 91.6321V91.9521C53.0073 92.1974 53.05 92.4214 53.1353 92.6241C53.2313 92.8268 53.3807 93.0081 53.5833 93.1681C53.7967 93.3281 54.0793 93.4774 54.4313 93.6161C54.7833 93.7548 55.2207 93.8828 55.7433 94.0001C56.49 94.1708 57.1087 94.3574 57.5993 94.5601C58.09 94.7521 58.4793 94.9761 58.7673 95.2321C59.0553 95.4881 59.258 95.7761 59.3753 96.0961C59.4927 96.4161 59.5513 96.7841 59.5513 97.2001V97.5681C59.5513 97.9841 59.4607 98.3734 59.2793 98.7361C59.098 99.0988 58.8367 99.4188 58.4953 99.6961C58.1647 99.9734 57.7487 100.192 57.2473 100.352C56.7567 100.512 56.202 100.592 55.5833 100.592C54.8153 100.592 54.0953 100.475 53.4233 100.24C52.762 100.016 52.1753 99.7068 51.6633 99.3121L52.2393 98.3681C52.8153 98.7841 53.3753 99.0881 53.9193 99.2801C54.474 99.4614 55.0127 99.5521 55.5353 99.5521Z" fill="#333333"/>
<path d="M46.6565 91.6318C47.6378 91.6318 48.3525 91.8985 48.8005 92.4318C49.2591 92.9652 49.4885 93.6905 49.4885 94.6078V100.416H48.4005V94.8958C48.4005 94.5438 48.3685 94.2292 48.3045 93.9518C48.2511 93.6745 48.1498 93.4398 48.0005 93.2478C47.8618 93.0452 47.6645 92.8905 47.4085 92.7838C47.1631 92.6772 46.8485 92.6238 46.4645 92.6238C46.1125 92.6238 45.8031 92.6878 45.5365 92.8158C45.2698 92.9438 45.0405 93.1092 44.8485 93.3118C44.6671 93.5145 44.5231 93.7438 44.4165 93.9998C44.3205 94.2558 44.2671 94.5065 44.2565 94.7518V100.416H43.1685V94.8958C43.1685 94.5438 43.1365 94.2292 43.0725 93.9518C43.0191 93.6745 42.9178 93.4398 42.7685 93.2478C42.6298 93.0452 42.4325 92.8905 42.1765 92.7838C41.9311 92.6772 41.6165 92.6238 41.2325 92.6238C40.8805 92.6238 40.5658 92.6932 40.2885 92.8318C40.0111 92.9598 39.7765 93.1305 39.5845 93.3438C39.4031 93.5572 39.2645 93.7918 39.1685 94.0478C39.0725 94.3038 39.0245 94.5598 39.0245 94.8158V100.416H37.9365V91.7918H39.0085V92.9918C39.1045 92.8212 39.2218 92.6558 39.3605 92.4958C39.5098 92.3252 39.6858 92.1758 39.8885 92.0478C40.0911 91.9198 40.3151 91.8185 40.5605 91.7438C40.8165 91.6692 41.1045 91.6318 41.4245 91.6318C42.1178 91.6318 42.6778 91.7705 43.1045 92.0478C43.5311 92.3145 43.8405 92.6985 44.0325 93.1998C44.1285 93.0185 44.2511 92.8372 44.4005 92.6558C44.5605 92.4638 44.7471 92.2932 44.9605 92.1438C45.1845 91.9945 45.4351 91.8718 45.7125 91.7758C46.0005 91.6798 46.3151 91.6318 46.6565 91.6318Z" fill="#333333"/>
<path d="M31.6304 100.544C30.6491 100.544 29.9024 100.272 29.3904 99.728C28.8784 99.184 28.6224 98.464 28.6224 97.568V91.792H29.7104V97.296C29.7104 97.6053 29.7371 97.8987 29.7904 98.176C29.8544 98.4427 29.9611 98.6827 30.1104 98.896C30.2598 99.0987 30.4678 99.2587 30.7344 99.376C31.0118 99.4933 31.3638 99.552 31.7904 99.552C32.1531 99.552 32.4838 99.488 32.7824 99.36C33.0918 99.232 33.3531 99.0667 33.5664 98.864C33.7904 98.6507 33.9611 98.416 34.0784 98.16C34.2064 97.904 34.2704 97.648 34.2704 97.392V91.792H35.3584V100.416H34.2864V99.216C34.0838 99.5467 33.7584 99.8507 33.3104 100.128C32.8731 100.405 32.3131 100.544 31.6304 100.544Z" fill="#333333"/>
<path d="M23.086 91.6318C24.078 91.6318 24.8406 91.9038 25.374 92.4478C25.918 92.9812 26.19 93.7012 26.19 94.6078V100.416H25.102V94.8798C25.102 94.5705 25.07 94.2825 25.006 94.0158C24.942 93.7385 24.8246 93.4985 24.654 93.2958C24.494 93.0825 24.27 92.9172 23.982 92.7998C23.7046 92.6825 23.3526 92.6238 22.926 92.6238C22.5633 92.6238 22.2273 92.6932 21.918 92.8318C21.6193 92.9598 21.3633 93.1305 21.15 93.3438C20.9366 93.5572 20.766 93.7918 20.638 94.0478C20.5206 94.3038 20.462 94.5598 20.462 94.8158V100.416H19.374V91.7918H20.446V92.9918C20.542 92.8318 20.67 92.6718 20.83 92.5118C20.99 92.3412 21.182 92.1918 21.406 92.0638C21.63 91.9358 21.8806 91.8345 22.158 91.7598C22.4353 91.6745 22.7446 91.6318 23.086 91.6318Z" fill="#333333"/>
<path d="M13.1787 100.544C12.3574 100.544 11.6907 100.325 11.1787 99.8878C10.6667 99.4505 10.4107 98.8478 10.4107 98.0798V97.7278C10.4107 97.0238 10.6667 96.4532 11.1787 96.0158C11.6907 95.5785 12.448 95.3598 13.4507 95.3598H15.8827V94.5598C15.8827 93.9305 15.7067 93.4505 15.3547 93.1198C15.0134 92.7785 14.5067 92.6078 13.8347 92.6078C13.3654 92.6078 12.9174 92.6932 12.4907 92.8638C12.064 93.0238 11.664 93.2318 11.2907 93.4878L10.7627 92.6558C11.168 92.3785 11.616 92.1385 12.1067 91.9358C12.608 91.7332 13.1894 91.6318 13.8507 91.6318C14.8214 91.6318 15.5787 91.8718 16.1227 92.3518C16.6774 92.8318 16.9547 93.5092 16.9547 94.3838V100.416H15.8987V99.3598H15.8827C15.7974 99.4985 15.6694 99.6425 15.4987 99.7918C15.3387 99.9305 15.1467 100.059 14.9227 100.176C14.432 100.421 13.8507 100.544 13.1787 100.544ZM15.8827 96.2718H13.4667C12.7734 96.2718 12.272 96.4105 11.9627 96.6878C11.6534 96.9652 11.4987 97.3278 11.4987 97.7758V98.0318C11.4987 98.3092 11.552 98.5492 11.6587 98.7518C11.7654 98.9438 11.904 99.1038 12.0747 99.2318C12.256 99.3598 12.4534 99.4558 12.6667 99.5198C12.8907 99.5732 13.1147 99.5998 13.3387 99.5998C13.68 99.5998 13.9894 99.5572 14.2667 99.4718C14.544 99.3865 14.8107 99.2638 15.0667 99.1038C15.3014 98.9545 15.4934 98.7732 15.6427 98.5598C15.8027 98.3358 15.8827 98.0585 15.8827 97.7278V96.2718Z" fill="#333333"/>
<path d="M6.10352e-05 88.8799H1.32806L6.62406 97.9039C6.72006 98.0639 6.80539 98.2239 6.88006 98.3839C6.95473 98.5332 7.05073 98.7306 7.16806 98.9759V88.8799H8.24006V100.416H6.91206L1.60006 91.3599C1.50406 91.1892 1.41873 91.0345 1.34406 90.8959C1.26939 90.7572 1.17873 90.5652 1.07206 90.3199V100.416H6.10352e-05V88.8799Z" fill="#333333"/>
<path d="M174.163 55.9412L177.963 61.5212H176.383L173.323 56.7812L170.163 61.5212H168.663L172.503 55.9412L168.883 50.7412H170.403L173.363 55.1412L176.303 50.7412H177.783L174.163 55.9412Z" fill="#333333"/>
<path d="M159.894 60.241V65.801H158.534V50.741H159.874V52.261C160.194 51.7143 160.64 51.2943 161.214 51.001C161.8 50.6943 162.434 50.541 163.114 50.541C163.754 50.541 164.334 50.6477 164.854 50.861C165.387 51.061 165.84 51.361 166.214 51.761C166.587 52.1477 166.874 52.6277 167.074 53.201C167.287 53.7743 167.394 54.4277 167.394 55.161V57.061C167.394 57.7943 167.287 58.4477 167.074 59.021C166.86 59.5943 166.56 60.081 166.174 60.481C165.8 60.8677 165.347 61.161 164.814 61.361C164.294 61.5743 163.727 61.681 163.114 61.681C162.354 61.681 161.7 61.5343 161.154 61.241C160.62 60.961 160.207 60.6277 159.914 60.241H159.894ZM166.034 55.361C166.034 54.201 165.76 53.3143 165.214 52.701C164.68 52.0877 163.954 51.781 163.034 51.781C162.66 51.781 162.287 51.8477 161.914 51.981C161.54 52.1143 161.2 52.3143 160.894 52.581C160.6 52.8343 160.36 53.1477 160.174 53.521C159.987 53.881 159.894 54.301 159.894 54.781V57.941C159.894 58.261 159.967 58.5743 160.114 58.881C160.274 59.1743 160.494 59.441 160.774 59.681C161.054 59.921 161.38 60.1143 161.754 60.261C162.14 60.4077 162.567 60.481 163.034 60.481C163.954 60.481 164.68 60.1677 165.214 59.541C165.76 58.901 166.034 58.0077 166.034 56.861V55.361Z" fill="#333333"/>
<path d="M155.842 55.4209C155.842 57.4609 155.455 59.0275 154.682 60.1209C153.908 61.2009 152.655 61.7409 150.922 61.7409C149.215 61.7409 147.975 61.1942 147.202 60.1009C146.428 59.0075 146.042 57.4475 146.042 55.4209V53.1809C146.042 51.1675 146.435 49.6142 147.222 48.5209C148.008 47.4275 149.242 46.8809 150.922 46.8809C152.628 46.8809 153.875 47.4275 154.662 48.5209C155.448 49.6009 155.842 51.1542 155.842 53.1809V55.4209ZM154.402 53.1609C154.402 51.3742 154.108 50.0942 153.522 49.3209C152.948 48.5342 152.082 48.1409 150.922 48.1409C149.815 48.1409 148.962 48.5342 148.362 49.3209C147.775 50.1075 147.482 51.3875 147.482 53.1609V55.4409C147.482 57.2275 147.775 58.5142 148.362 59.3009C148.962 60.0875 149.815 60.4809 150.922 60.4809C152.068 60.4809 152.935 60.0942 153.522 59.3209C154.108 58.5342 154.402 57.2409 154.402 55.4409V53.1609Z" fill="#333333"/>
<path d="M139.869 54.0209C140.269 53.5542 140.589 53.1542 140.829 52.8209C141.069 52.4875 141.249 52.1942 141.369 51.9409C141.503 51.6742 141.589 51.4409 141.629 51.2409C141.683 51.0409 141.709 50.8475 141.709 50.6609V50.5009C141.709 49.7809 141.469 49.2142 140.989 48.8009C140.523 48.3742 139.849 48.1609 138.969 48.1609C138.329 48.1609 137.729 48.3142 137.169 48.6209C136.609 48.9275 136.096 49.5009 135.629 50.3409L134.509 49.6409C134.683 49.3342 134.896 49.0209 135.149 48.7009C135.403 48.3675 135.709 48.0675 136.069 47.8009C136.429 47.5342 136.843 47.3142 137.309 47.1409C137.789 46.9675 138.329 46.8809 138.929 46.8809C139.569 46.8809 140.149 46.9675 140.669 47.1409C141.189 47.3142 141.629 47.5609 141.989 47.8809C142.349 48.1875 142.629 48.5675 142.829 49.0209C143.029 49.4609 143.129 49.9475 143.129 50.4809V50.6809C143.129 51.0675 143.063 51.4475 142.929 51.8209C142.796 52.1809 142.616 52.5342 142.389 52.8809C142.176 53.2275 141.923 53.5742 141.629 53.9209C141.336 54.2675 141.036 54.6209 140.729 54.9809L136.249 60.2409H143.649V61.5209H134.489V60.3209L139.869 54.0209Z" fill="#333333"/>
<path d="M125.511 55.421V55.241C125.511 54.1077 125.251 53.241 124.731 52.641C124.211 52.041 123.478 51.741 122.531 51.741C121.571 51.741 120.824 52.061 120.291 52.701C119.771 53.3277 119.511 54.1743 119.511 55.241V55.421H125.511ZM126.631 60.461C126.204 60.7677 125.671 61.0477 125.031 61.301C124.391 61.5543 123.618 61.681 122.711 61.681C121.271 61.681 120.151 61.2543 119.351 60.401C118.551 59.5343 118.151 58.3143 118.151 56.741V55.401C118.151 53.8677 118.538 52.6743 119.311 51.821C120.098 50.9677 121.171 50.541 122.531 50.541C123.944 50.541 125.018 50.981 125.751 51.861C126.498 52.7277 126.871 53.921 126.871 55.441V56.561H119.511V56.741C119.511 57.941 119.798 58.8677 120.371 59.521C120.944 60.161 121.731 60.481 122.731 60.481C123.451 60.481 124.084 60.3743 124.631 60.161C125.178 59.9477 125.644 59.701 126.031 59.421L126.631 60.461Z" fill="#333333"/>
<path d="M116.477 52.141C116.103 51.9943 115.67 51.921 115.177 51.921C114.737 51.921 114.337 52.0077 113.977 52.181C113.617 52.3543 113.31 52.5943 113.057 52.901C112.803 53.2077 112.61 53.5743 112.477 54.001C112.343 54.4277 112.277 54.8943 112.277 55.401V61.521H110.917V50.741H112.257V52.641C112.377 52.3877 112.523 52.1343 112.697 51.881C112.883 51.6277 113.103 51.401 113.357 51.201C113.623 51.001 113.917 50.841 114.237 50.721C114.57 50.601 114.943 50.541 115.357 50.541C115.663 50.541 115.937 50.561 116.177 50.601C116.43 50.6277 116.67 50.681 116.897 50.761L116.477 52.141Z" fill="#333333"/>
<path d="M103.173 61.681C102.146 61.681 101.313 61.4077 100.673 60.861C100.033 60.3143 99.7125 59.561 99.7125 58.601V58.161C99.7125 57.281 100.033 56.5677 100.673 56.021C101.313 55.4743 102.259 55.201 103.513 55.201H106.553V54.201C106.553 53.4143 106.333 52.8143 105.893 52.401C105.466 51.9743 104.833 51.761 103.993 51.761C103.406 51.761 102.846 51.8677 102.313 52.081C101.779 52.281 101.279 52.541 100.813 52.861L100.153 51.821C100.659 51.4743 101.219 51.1743 101.833 50.921C102.459 50.6677 103.186 50.541 104.013 50.541C105.226 50.541 106.173 50.841 106.853 51.441C107.546 52.041 107.893 52.8877 107.893 53.981V61.521H106.573V60.201H106.553C106.446 60.3743 106.286 60.5543 106.073 60.741C105.873 60.9143 105.633 61.0743 105.353 61.221C104.739 61.5277 104.013 61.681 103.173 61.681ZM106.553 56.341H103.533C102.666 56.341 102.039 56.5143 101.653 56.861C101.266 57.2077 101.073 57.661 101.073 58.221V58.541C101.073 58.8877 101.139 59.1877 101.273 59.441C101.406 59.681 101.579 59.881 101.793 60.041C102.019 60.201 102.266 60.321 102.533 60.401C102.813 60.4677 103.093 60.501 103.373 60.501C103.799 60.501 104.186 60.4477 104.533 60.341C104.879 60.2343 105.213 60.081 105.533 59.881C105.826 59.6943 106.066 59.4677 106.253 59.201C106.453 58.921 106.553 58.5743 106.553 58.161V56.341Z" fill="#333333"/>
<path d="M92.37 61.6812C91.1433 61.6812 90.21 61.3412 89.57 60.6612C88.93 59.9812 88.61 59.0812 88.61 57.9612V50.7412H89.97V57.6212C89.97 58.0079 90.0033 58.3745 90.07 58.7212C90.15 59.0545 90.2833 59.3545 90.47 59.6212C90.6567 59.8745 90.9167 60.0745 91.25 60.2212C91.5967 60.3679 92.0367 60.4412 92.57 60.4412C93.0233 60.4412 93.4367 60.3612 93.81 60.2012C94.1967 60.0412 94.5233 59.8345 94.79 59.5812C95.07 59.3145 95.2833 59.0212 95.43 58.7012C95.59 58.3812 95.67 58.0612 95.67 57.7412V50.7412H97.03V61.5212H95.69V60.0212C95.4367 60.4345 95.03 60.8145 94.47 61.1612C93.9233 61.5079 93.2233 61.6812 92.37 61.6812Z" fill="#333333"/>
<path d="M84.128 60.101H84.108C83.8013 60.6477 83.348 61.0477 82.748 61.301C82.1613 61.5543 81.5547 61.681 80.928 61.681C80.3013 61.681 79.728 61.5743 79.208 61.361C78.688 61.161 78.2347 60.8677 77.848 60.481C77.4613 60.081 77.1613 59.5943 76.948 59.021C76.7347 58.4477 76.628 57.7943 76.628 57.061V55.161C76.628 54.4277 76.7347 53.7743 76.948 53.201C77.1613 52.6277 77.4547 52.1477 77.828 51.761C78.2147 51.361 78.668 51.061 79.188 50.861C79.7213 50.6477 80.2947 50.541 80.908 50.541C81.708 50.541 82.3747 50.6943 82.908 51.001C83.4547 51.3077 83.868 51.661 84.148 52.061V50.741H85.488V65.801H84.128V60.101ZM77.988 56.861C77.988 58.021 78.2613 58.9143 78.808 59.541C79.3547 60.1677 80.0813 60.481 80.988 60.481C81.428 60.481 81.8347 60.4277 82.208 60.321C82.5947 60.201 82.928 60.0277 83.208 59.801C83.488 59.561 83.708 59.2677 83.868 58.921C84.0413 58.561 84.128 58.141 84.128 57.661V54.421C84.128 54.101 84.048 53.7877 83.888 53.481C83.7413 53.161 83.528 52.8743 83.248 52.621C82.968 52.3543 82.6347 52.141 82.248 51.981C81.8613 51.821 81.4413 51.741 80.988 51.741C80.068 51.741 79.3347 52.061 78.788 52.701C78.2547 53.3277 77.988 54.2143 77.988 55.361V56.861Z" fill="#333333"/>
<path d="M69.419 60.4409C69.979 60.4409 70.479 60.3742 70.919 60.2409C71.3724 60.1075 71.7524 59.9275 72.059 59.7009C72.379 59.4609 72.619 59.1942 72.779 58.9009C72.939 58.5942 73.019 58.2809 73.019 57.9609V57.5409C73.019 57.2075 72.9657 56.9075 72.859 56.6409C72.7524 56.3742 72.559 56.1342 72.279 55.9209C71.999 55.6942 71.6124 55.4942 71.119 55.3209C70.639 55.1342 70.0124 54.9542 69.239 54.7809C68.399 54.5942 67.6924 54.3809 67.119 54.1409C66.559 53.8875 66.1057 53.6075 65.759 53.3009C65.4257 52.9809 65.1857 52.6342 65.039 52.2609C64.9057 51.8742 64.839 51.4542 64.839 51.0009V50.5409C64.839 49.9942 64.9524 49.5009 65.179 49.0609C65.419 48.6075 65.7457 48.2209 66.159 47.9009C66.5857 47.5809 67.0857 47.3342 67.659 47.1609C68.2457 46.9742 68.879 46.8809 69.559 46.8809C70.5324 46.8809 71.3657 47.0009 72.059 47.2409C72.7524 47.4675 73.3457 47.7542 73.839 48.1009L73.179 49.2409C72.7124 48.9075 72.179 48.6475 71.579 48.4609C70.979 48.2609 70.3057 48.1609 69.559 48.1609C69.119 48.1609 68.699 48.2142 68.299 48.3209C67.899 48.4275 67.5457 48.5875 67.239 48.8009C66.9457 49.0009 66.7057 49.2475 66.519 49.5409C66.3457 49.8342 66.259 50.1675 66.259 50.5409V50.9409C66.259 51.2475 66.3124 51.5275 66.419 51.7809C66.539 52.0342 66.7257 52.2609 66.979 52.4609C67.2457 52.6609 67.599 52.8475 68.039 53.0209C68.479 53.1942 69.0257 53.3542 69.679 53.5009C70.6124 53.7142 71.3857 53.9475 71.999 54.2009C72.6124 54.4409 73.099 54.7209 73.459 55.0409C73.819 55.3609 74.0724 55.7209 74.219 56.1209C74.3657 56.5209 74.439 56.9809 74.439 57.5009V57.9609C74.439 58.4809 74.3257 58.9675 74.099 59.4209C73.8724 59.8742 73.5457 60.2742 73.119 60.6209C72.7057 60.9675 72.1857 61.2409 71.559 61.4409C70.9457 61.6409 70.2524 61.7409 69.479 61.7409C68.519 61.7409 67.619 61.5942 66.779 61.3009C65.9524 61.0209 65.219 60.6342 64.579 60.1409L65.299 58.9609C66.019 59.4809 66.719 59.8609 67.399 60.1009C68.0924 60.3275 68.7657 60.4409 69.419 60.4409Z" fill="#333333"/>
<path d="M58.3205 50.541C59.5471 50.541 60.4405 50.8743 61.0005 51.541C61.5738 52.2077 61.8605 53.1143 61.8605 54.261V61.521H60.5005V54.621C60.5005 54.181 60.4605 53.7877 60.3805 53.441C60.3138 53.0943 60.1871 52.801 60.0005 52.561C59.8271 52.3077 59.5805 52.1143 59.2605 51.981C58.9538 51.8477 58.5605 51.781 58.0805 51.781C57.6405 51.781 57.2538 51.861 56.9205 52.021C56.5871 52.181 56.3005 52.3877 56.0605 52.641C55.8338 52.8943 55.6538 53.181 55.5205 53.501C55.4005 53.821 55.3338 54.1343 55.3205 54.441V61.521H53.9605V54.621C53.9605 54.181 53.9205 53.7877 53.8405 53.441C53.7738 53.0943 53.6471 52.801 53.4605 52.561C53.2871 52.3077 53.0405 52.1143 52.7205 51.981C52.4138 51.8477 52.0205 51.781 51.5405 51.781C51.1005 51.781 50.7071 51.8677 50.3605 52.041C50.0138 52.201 49.7205 52.4143 49.4805 52.681C49.2538 52.9477 49.0805 53.241 48.9605 53.561C48.8405 53.881 48.7805 54.201 48.7805 54.521V61.521H47.4205V50.741H48.7605V52.241C48.8805 52.0277 49.0271 51.821 49.2005 51.621C49.3871 51.4077 49.6071 51.221 49.8605 51.061C50.1138 50.901 50.3938 50.7743 50.7005 50.681C51.0205 50.5877 51.3805 50.541 51.7805 50.541C52.6471 50.541 53.3471 50.7143 53.8805 51.061C54.4138 51.3943 54.8005 51.8743 55.0405 52.501C55.1605 52.2743 55.3138 52.0477 55.5005 51.821C55.7005 51.581 55.9338 51.3677 56.2005 51.181C56.4805 50.9943 56.7938 50.841 57.1405 50.721C57.5005 50.601 57.8938 50.541 58.3205 50.541Z" fill="#333333"/>
<path d="M39.538 61.6812C38.3113 61.6812 37.378 61.3412 36.738 60.6612C36.098 59.9812 35.778 59.0812 35.778 57.9612V50.7412H37.138V57.6212C37.138 58.0079 37.1713 58.3745 37.238 58.7212C37.318 59.0545 37.4513 59.3545 37.638 59.6212C37.8246 59.8745 38.0846 60.0745 38.418 60.2212C38.7646 60.3679 39.2046 60.4412 39.738 60.4412C40.1913 60.4412 40.6046 60.3612 40.978 60.2012C41.3646 60.0412 41.6913 59.8345 41.958 59.5812C42.238 59.3145 42.4513 59.0212 42.598 58.7012C42.758 58.3812 42.838 58.0612 42.838 57.7412V50.7412H44.198V61.5212H42.858V60.0212C42.6046 60.4345 42.198 60.8145 41.638 61.1612C41.0913 61.5079 40.3913 61.6812 39.538 61.6812Z" fill="#333333"/>
<path d="M28.8573 50.541C30.0973 50.541 31.0507 50.881 31.7173 51.561C32.3973 52.2277 32.7373 53.1277 32.7373 54.261V61.521H31.3773V54.601C31.3773 54.2143 31.3373 53.8543 31.2573 53.521C31.1773 53.1743 31.0307 52.8743 30.8173 52.621C30.6173 52.3543 30.3373 52.1477 29.9773 52.001C29.6307 51.8543 29.1907 51.781 28.6573 51.781C28.204 51.781 27.784 51.8677 27.3973 52.041C27.024 52.201 26.704 52.4143 26.4373 52.681C26.1707 52.9477 25.9573 53.241 25.7973 53.561C25.6507 53.881 25.5773 54.201 25.5773 54.521V61.521H24.2173V50.741H25.5573V52.241C25.6773 52.041 25.8373 51.841 26.0373 51.641C26.2373 51.4277 26.4773 51.241 26.7573 51.081C27.0373 50.921 27.3507 50.7943 27.6973 50.701C28.044 50.5943 28.4307 50.541 28.8573 50.541Z" fill="#333333"/>
<path d="M16.4733 61.681C15.4466 61.681 14.6133 61.4077 13.9733 60.861C13.3333 60.3143 13.0133 59.561 13.0133 58.601V58.161C13.0133 57.281 13.3333 56.5677 13.9733 56.021C14.6133 55.4743 15.56 55.201 16.8133 55.201H19.8533V54.201C19.8533 53.4143 19.6333 52.8143 19.1933 52.401C18.7666 51.9743 18.1333 51.761 17.2933 51.761C16.7066 51.761 16.1466 51.8677 15.6133 52.081C15.08 52.281 14.58 52.541 14.1133 52.861L13.4533 51.821C13.96 51.4743 14.52 51.1743 15.1333 50.921C15.76 50.6677 16.4866 50.541 17.3133 50.541C18.5266 50.541 19.4733 50.841 20.1533 51.441C20.8466 52.041 21.1933 52.8877 21.1933 53.981V61.521H19.8733V60.201H19.8533C19.7466 60.3743 19.5866 60.5543 19.3733 60.741C19.1733 60.9143 18.9333 61.0743 18.6533 61.221C18.04 61.5277 17.3133 61.681 16.4733 61.681ZM19.8533 56.341H16.8333C15.9666 56.341 15.34 56.5143 14.9533 56.861C14.5666 57.2077 14.3733 57.661 14.3733 58.221V58.541C14.3733 58.8877 14.44 59.1877 14.5733 59.441C14.7066 59.681 14.88 59.881 15.0933 60.041C15.32 60.201 15.5666 60.321 15.8333 60.401C16.1133 60.4677 16.3933 60.501 16.6733 60.501C17.1 60.501 17.4866 60.4477 17.8333 60.341C18.18 60.2343 18.5133 60.081 18.8333 59.881C19.1266 59.6943 19.3666 59.4677 19.5533 59.201C19.7533 58.921 19.8533 58.5743 19.8533 58.161V56.341Z" fill="#333333"/>
<path d="M0 47.1006H1.66L8.28 58.3806C8.4 58.5806 8.50667 58.7806 8.6 58.9806C8.69333 59.1673 8.81333 59.4139 8.96 59.7206V47.1006H10.3V61.5206H8.64L2 50.2006C1.88 49.9873 1.77333 49.7939 1.68 49.6206C1.58667 49.4473 1.47333 49.2073 1.34 48.9006V61.5206H0V47.1006Z" fill="#333333"/>
<path d="M104.498 115.965L106.778 119.313H105.83L103.994 116.469L102.098 119.313H101.198L103.502 115.965L101.33 112.845H102.242L104.018 115.485L105.782 112.845H106.67L104.498 115.965Z" fill="#333333"/>
<path d="M95.9362 118.545V121.881H95.1202V112.845H95.9242V113.757C96.1162 113.429 96.3842 113.177 96.7282 113.001C97.0802 112.817 97.4602 112.725 97.8682 112.725C98.2522 112.725 98.6002 112.789 98.9122 112.917C99.2322 113.037 99.5042 113.217 99.7282 113.457C99.9522 113.689 100.124 113.977 100.244 114.321C100.372 114.665 100.436 115.057 100.436 115.497V116.637C100.436 117.077 100.372 117.469 100.244 117.813C100.116 118.157 99.9362 118.449 99.7042 118.689C99.4802 118.921 99.2082 119.097 98.8882 119.217C98.5762 119.345 98.2362 119.409 97.8682 119.409C97.4122 119.409 97.0202 119.321 96.6922 119.145C96.3722 118.977 96.1242 118.777 95.9482 118.545H95.9362ZM99.6202 115.617C99.6202 114.921 99.4562 114.389 99.1282 114.021C98.8082 113.653 98.3722 113.469 97.8202 113.469C97.5962 113.469 97.3722 113.509 97.1482 113.589C96.9242 113.669 96.7202 113.789 96.5362 113.949C96.3602 114.101 96.2162 114.289 96.1042 114.513C95.9922 114.729 95.9362 114.981 95.9362 115.269V117.165C95.9362 117.357 95.9802 117.545 96.0682 117.729C96.1642 117.905 96.2962 118.065 96.4642 118.209C96.6322 118.353 96.8282 118.469 97.0522 118.557C97.2842 118.645 97.5402 118.689 97.8202 118.689C98.3722 118.689 98.8082 118.501 99.1282 118.125C99.4562 117.741 99.6202 117.205 99.6202 116.517V115.617Z" fill="#333333"/>
<path d="M91.1169 114.812C91.3569 114.532 91.5489 114.292 91.6929 114.092C91.8369 113.892 91.9449 113.716 92.0169 113.564C92.0969 113.404 92.1489 113.264 92.1729 113.144C92.2049 113.024 92.2209 112.908 92.2209 112.796V112.7C92.2209 112.268 92.0769 111.928 91.7889 111.68C91.5089 111.424 91.1049 111.296 90.5769 111.296C90.1929 111.296 89.8329 111.388 89.4969 111.572C89.1609 111.756 88.8529 112.1 88.5729 112.604L87.9009 112.184C88.0049 112 88.1329 111.812 88.2849 111.62C88.4369 111.42 88.6209 111.24 88.8369 111.08C89.0529 110.92 89.3009 110.788 89.5809 110.684C89.8689 110.58 90.1929 110.528 90.5529 110.528C90.9369 110.528 91.2849 110.58 91.5969 110.684C91.9089 110.788 92.1729 110.936 92.3889 111.128C92.6049 111.312 92.7729 111.54 92.8929 111.812C93.0129 112.076 93.0729 112.368 93.0729 112.688V112.808C93.0729 113.04 93.0329 113.268 92.9529 113.492C92.8729 113.708 92.7649 113.92 92.6289 114.128C92.5009 114.336 92.3489 114.544 92.1729 114.752C91.9969 114.96 91.8169 115.172 91.6329 115.388L88.9449 118.544H93.3849V119.312H87.8889V118.592L91.1169 114.812Z" fill="#333333"/>
<path d="M83.5016 119.312V111.716L81.4136 112.988L81.0296 112.316L83.7056 110.66H84.3416V119.312H83.5016Z" fill="#333333"/>
<path d="M75.3066 115.653V115.545C75.3066 114.865 75.1506 114.345 74.8386 113.985C74.5266 113.625 74.0866 113.445 73.5186 113.445C72.9426 113.445 72.4946 113.637 72.1746 114.021C71.8626 114.397 71.7066 114.905 71.7066 115.545V115.653H75.3066ZM75.9786 118.677C75.7226 118.861 75.4026 119.029 75.0186 119.181C74.6346 119.333 74.1706 119.409 73.6266 119.409C72.7626 119.409 72.0906 119.153 71.6106 118.641C71.1306 118.121 70.8906 117.389 70.8906 116.445V115.641C70.8906 114.721 71.1226 114.005 71.5866 113.493C72.0586 112.981 72.7026 112.725 73.5186 112.725C74.3666 112.725 75.0106 112.989 75.4506 113.517C75.8986 114.037 76.1226 114.753 76.1226 115.665V116.337H71.7066V116.445C71.7066 117.165 71.8786 117.721 72.2226 118.113C72.5666 118.497 73.0386 118.689 73.6386 118.689C74.0706 118.689 74.4506 118.625 74.7786 118.497C75.1066 118.369 75.3866 118.221 75.6186 118.053L75.9786 118.677Z" fill="#333333"/>
<path d="M69.8859 113.685C69.6619 113.597 69.4019 113.553 69.1059 113.553C68.8419 113.553 68.6019 113.605 68.3859 113.709C68.1699 113.813 67.9859 113.957 67.8339 114.141C67.6819 114.325 67.5659 114.545 67.4859 114.801C67.4059 115.057 67.3659 115.337 67.3659 115.641V119.313H66.5499V112.845H67.3539V113.985C67.4259 113.833 67.5139 113.681 67.6179 113.529C67.7299 113.377 67.8619 113.241 68.0139 113.121C68.1739 113.001 68.3499 112.905 68.5419 112.833C68.7419 112.761 68.9659 112.725 69.2139 112.725C69.3979 112.725 69.5619 112.737 69.7059 112.761C69.8579 112.777 70.0019 112.809 70.1379 112.857L69.8859 113.685Z" fill="#333333"/>
<path d="M61.9035 119.409C61.2875 119.409 60.7875 119.245 60.4035 118.917C60.0195 118.589 59.8275 118.137 59.8275 117.561V117.297C59.8275 116.769 60.0195 116.341 60.4035 116.013C60.7875 115.685 61.3555 115.521 62.1075 115.521H63.9315V114.921C63.9315 114.449 63.7995 114.089 63.5355 113.841C63.2795 113.585 62.8995 113.457 62.3955 113.457C62.0435 113.457 61.7075 113.521 61.3875 113.649C61.0675 113.769 60.7675 113.925 60.4875 114.117L60.0915 113.493C60.3955 113.285 60.7315 113.105 61.0995 112.953C61.4755 112.801 61.9115 112.725 62.4075 112.725C63.1355 112.725 63.7035 112.905 64.1115 113.265C64.5275 113.625 64.7355 114.133 64.7355 114.789V119.313H63.9435V118.521H63.9315C63.8675 118.625 63.7715 118.733 63.6435 118.845C63.5235 118.949 63.3795 119.045 63.2115 119.133C62.8435 119.317 62.4075 119.409 61.9035 119.409ZM63.9315 116.205H62.1195C61.5995 116.205 61.2235 116.309 60.9915 116.517C60.7595 116.725 60.6435 116.997 60.6435 117.333V117.525C60.6435 117.733 60.6835 117.913 60.7635 118.065C60.8435 118.209 60.9475 118.329 61.0755 118.425C61.2115 118.521 61.3595 118.593 61.5195 118.641C61.6875 118.681 61.8555 118.701 62.0235 118.701C62.2795 118.701 62.5115 118.669 62.7195 118.605C62.9275 118.541 63.1275 118.449 63.3195 118.329C63.4955 118.217 63.6395 118.081 63.7515 117.921C63.8715 117.753 63.9315 117.545 63.9315 117.297V116.205Z" fill="#333333"/>
<path d="M55.422 119.409C54.686 119.409 54.126 119.205 53.742 118.797C53.358 118.389 53.166 117.849 53.166 117.177V112.845H53.982V116.973C53.982 117.205 54.002 117.425 54.042 117.633C54.09 117.833 54.17 118.013 54.282 118.173C54.394 118.325 54.55 118.445 54.75 118.533C54.958 118.621 55.222 118.665 55.542 118.665C55.814 118.665 56.062 118.617 56.286 118.521C56.518 118.425 56.714 118.301 56.874 118.149C57.042 117.989 57.17 117.813 57.258 117.621C57.354 117.429 57.402 117.237 57.402 117.045V112.845H58.218V119.313H57.414V118.413C57.262 118.661 57.018 118.889 56.682 119.097C56.354 119.305 55.934 119.409 55.422 119.409Z" fill="#333333"/>
<path d="M50.4768 118.461H50.4648C50.2808 118.789 50.0088 119.029 49.6488 119.181C49.2968 119.333 48.9328 119.409 48.5568 119.409C48.1808 119.409 47.8368 119.345 47.5248 119.217C47.2128 119.097 46.9408 118.921 46.7088 118.689C46.4768 118.449 46.2968 118.157 46.1688 117.813C46.0408 117.469 45.9768 117.077 45.9768 116.637V115.497C45.9768 115.057 46.0408 114.665 46.1688 114.321C46.2968 113.977 46.4728 113.689 46.6968 113.457C46.9288 113.217 47.2008 113.037 47.5128 112.917C47.8328 112.789 48.1768 112.725 48.5448 112.725C49.0248 112.725 49.4248 112.817 49.7448 113.001C50.0728 113.185 50.3208 113.397 50.4888 113.637V112.845H51.2928V121.881H50.4768V118.461ZM46.7928 116.517C46.7928 117.213 46.9568 117.749 47.2848 118.125C47.6128 118.501 48.0488 118.689 48.5928 118.689C48.8568 118.689 49.1008 118.657 49.3248 118.593C49.5568 118.521 49.7568 118.417 49.9248 118.281C50.0928 118.137 50.2248 117.961 50.3208 117.753C50.4248 117.537 50.4768 117.285 50.4768 116.997V115.053C50.4768 114.861 50.4288 114.673 50.3328 114.489C50.2448 114.297 50.1168 114.125 49.9488 113.973C49.7808 113.813 49.5808 113.685 49.3488 113.589C49.1168 113.493 48.8648 113.445 48.5928 113.445C48.0408 113.445 47.6008 113.637 47.2728 114.021C46.9528 114.397 46.7928 114.929 46.7928 115.617V116.517Z" fill="#333333"/>
<path d="M41.6514 118.664C41.9874 118.664 42.2874 118.624 42.5514 118.544C42.8234 118.464 43.0514 118.356 43.2354 118.22C43.4274 118.076 43.5714 117.916 43.6674 117.74C43.7634 117.556 43.8114 117.368 43.8114 117.176V116.924C43.8114 116.724 43.7794 116.544 43.7154 116.384C43.6514 116.224 43.5354 116.08 43.3674 115.952C43.1994 115.816 42.9674 115.696 42.6714 115.592C42.3834 115.48 42.0074 115.372 41.5434 115.268C41.0394 115.156 40.6154 115.028 40.2714 114.884C39.9354 114.732 39.6634 114.564 39.4554 114.38C39.2554 114.188 39.1114 113.98 39.0234 113.756C38.9434 113.524 38.9034 113.272 38.9034 113V112.724C38.9034 112.396 38.9714 112.1 39.1074 111.836C39.2514 111.564 39.4474 111.332 39.6954 111.14C39.9514 110.948 40.2514 110.8 40.5954 110.696C40.9474 110.584 41.3274 110.528 41.7354 110.528C42.3194 110.528 42.8194 110.6 43.2354 110.744C43.6514 110.88 44.0074 111.052 44.3034 111.26L43.9074 111.944C43.6274 111.744 43.3074 111.588 42.9474 111.476C42.5874 111.356 42.1834 111.296 41.7354 111.296C41.4714 111.296 41.2194 111.328 40.9794 111.392C40.7394 111.456 40.5274 111.552 40.3434 111.68C40.1674 111.8 40.0234 111.948 39.9114 112.124C39.8074 112.3 39.7554 112.5 39.7554 112.724V112.964C39.7554 113.148 39.7874 113.316 39.8514 113.468C39.9234 113.62 40.0354 113.756 40.1874 113.876C40.3474 113.996 40.5594 114.108 40.8234 114.212C41.0874 114.316 41.4154 114.412 41.8074 114.5C42.3674 114.628 42.8314 114.768 43.1994 114.92C43.5674 115.064 43.8594 115.232 44.0754 115.424C44.2914 115.616 44.4434 115.832 44.5314 116.072C44.6194 116.312 44.6634 116.588 44.6634 116.9V117.176C44.6634 117.488 44.5954 117.78 44.4594 118.052C44.3234 118.324 44.1274 118.564 43.8714 118.772C43.6234 118.98 43.3114 119.144 42.9354 119.264C42.5674 119.384 42.1514 119.444 41.6874 119.444C41.1114 119.444 40.5714 119.356 40.0674 119.18C39.5714 119.012 39.1314 118.78 38.7474 118.484L39.1794 117.776C39.6114 118.088 40.0314 118.316 40.4394 118.46C40.8554 118.596 41.2594 118.664 41.6514 118.664Z" fill="#333333"/>
<path d="M34.9923 112.725C35.7283 112.725 36.2643 112.925 36.6003 113.325C36.9443 113.725 37.1163 114.269 37.1163 114.957V119.313H36.3003V115.173C36.3003 114.909 36.2763 114.673 36.2283 114.465C36.1883 114.257 36.1123 114.081 36.0003 113.937C35.8963 113.785 35.7483 113.669 35.5563 113.589C35.3723 113.509 35.1363 113.469 34.8483 113.469C34.5843 113.469 34.3523 113.517 34.1523 113.613C33.9523 113.709 33.7803 113.833 33.6363 113.985C33.5003 114.137 33.3923 114.309 33.3123 114.501C33.2403 114.693 33.2003 114.881 33.1923 115.065V119.313H32.3763V115.173C32.3763 114.909 32.3523 114.673 32.3043 114.465C32.2643 114.257 32.1883 114.081 32.0763 113.937C31.9723 113.785 31.8243 113.669 31.6323 113.589C31.4483 113.509 31.2123 113.469 30.9243 113.469C30.6603 113.469 30.4243 113.521 30.2163 113.625C30.0083 113.721 29.8323 113.849 29.6883 114.009C29.5523 114.169 29.4483 114.345 29.3763 114.537C29.3043 114.729 29.2683 114.921 29.2683 115.113V119.313H28.4523V112.845H29.2563V113.745C29.3283 113.617 29.4163 113.493 29.5203 113.373C29.6323 113.245 29.7643 113.133 29.9163 113.037C30.0683 112.941 30.2363 112.865 30.4203 112.809C30.6123 112.753 30.8283 112.725 31.0683 112.725C31.5883 112.725 32.0083 112.829 32.3283 113.037C32.6483 113.237 32.8803 113.525 33.0243 113.901C33.0963 113.765 33.1883 113.629 33.3003 113.493C33.4203 113.349 33.5603 113.221 33.7203 113.109C33.8883 112.997 34.0763 112.905 34.2843 112.833C34.5003 112.761 34.7363 112.725 34.9923 112.725Z" fill="#333333"/>
<path d="M23.7228 119.409C22.9868 119.409 22.4268 119.205 22.0428 118.797C21.6588 118.389 21.4668 117.849 21.4668 117.177V112.845H22.2828V116.973C22.2828 117.205 22.3028 117.425 22.3428 117.633C22.3908 117.833 22.4708 118.013 22.5828 118.173C22.6948 118.325 22.8508 118.445 23.0508 118.533C23.2588 118.621 23.5228 118.665 23.8428 118.665C24.1148 118.665 24.3628 118.617 24.5868 118.521C24.8188 118.425 25.0148 118.301 25.1748 118.149C25.3428 117.989 25.4708 117.813 25.5588 117.621C25.6548 117.429 25.7028 117.237 25.7028 117.045V112.845H26.5188V119.313H25.7148V118.413C25.5628 118.661 25.3188 118.889 24.9828 119.097C24.6548 119.305 24.2348 119.409 23.7228 119.409Z" fill="#333333"/>
<path d="M17.3144 112.725C18.0584 112.725 18.6304 112.929 19.0304 113.337C19.4384 113.737 19.6424 114.277 19.6424 114.957V119.313H18.8264V115.161C18.8264 114.929 18.8024 114.713 18.7544 114.513C18.7064 114.305 18.6184 114.125 18.4904 113.973C18.3704 113.813 18.2024 113.689 17.9864 113.601C17.7784 113.513 17.5144 113.469 17.1944 113.469C16.9224 113.469 16.6704 113.521 16.4384 113.625C16.2144 113.721 16.0224 113.849 15.8624 114.009C15.7024 114.169 15.5744 114.345 15.4784 114.537C15.3904 114.729 15.3464 114.921 15.3464 115.113V119.313H14.5304V112.845H15.3344V113.745C15.4064 113.625 15.5024 113.505 15.6224 113.385C15.7424 113.257 15.8864 113.145 16.0544 113.049C16.2224 112.953 16.4104 112.877 16.6184 112.821C16.8264 112.757 17.0584 112.725 17.3144 112.725Z" fill="#333333"/>
<path d="M9.88398 119.409C9.26798 119.409 8.76798 119.245 8.38398 118.917C7.99998 118.589 7.80798 118.137 7.80798 117.561V117.297C7.80798 116.769 7.99998 116.341 8.38398 116.013C8.76798 115.685 9.33598 115.521 10.088 115.521H11.912V114.921C11.912 114.449 11.78 114.089 11.516 113.841C11.26 113.585 10.88 113.457 10.376 113.457C10.024 113.457 9.68798 113.521 9.36798 113.649C9.04798 113.769 8.74798 113.925 8.46798 114.117L8.07198 113.493C8.37598 113.285 8.71198 113.105 9.07998 112.953C9.45598 112.801 9.89198 112.725 10.388 112.725C11.116 112.725 11.684 112.905 12.092 113.265C12.508 113.625 12.716 114.133 12.716 114.789V119.313H11.924V118.521H11.912C11.848 118.625 11.752 118.733 11.624 118.845C11.504 118.949 11.36 119.045 11.192 119.133C10.824 119.317 10.388 119.409 9.88398 119.409ZM11.912 116.205H10.1C9.57998 116.205 9.20398 116.309 8.97198 116.517C8.73998 116.725 8.62398 116.997 8.62398 117.333V117.525C8.62398 117.733 8.66398 117.913 8.74398 118.065C8.82398 118.209 8.92798 118.329 9.05598 118.425C9.19198 118.521 9.33998 118.593 9.49998 118.641C9.66798 118.681 9.83598 118.701 10.004 118.701C10.26 118.701 10.492 118.669 10.7 118.605C10.908 118.541 11.108 118.449 11.3 118.329C11.476 118.217 11.62 118.081 11.732 117.921C11.852 117.753 11.912 117.545 11.912 117.297V116.205Z" fill="#333333"/>
<path d="M0 110.66H0.996L4.968 117.428C5.04 117.548 5.104 117.668 5.16 117.788C5.216 117.9 5.288 118.048 5.376 118.232V110.66H6.18V119.312H5.184L1.2 112.52C1.128 112.392 1.064 112.276 1.008 112.172C0.952 112.068 0.884 111.924 0.804 111.74V119.312H0V110.66Z" fill="#333333"/>
</svg>
