<svg width="103" height="122" viewBox="0 0 103 122" fill="none" xmlns="http://www.w3.org/2000/svg">
<path d="M93.7909 21.3623L102.531 34.1963H98.8969L91.8589 23.2943L84.5909 34.1963H81.1409L89.9729 21.3623L81.6469 9.40234H85.1429L91.9509 19.5223L98.7129 9.40234H102.117L93.7909 21.3623Z" fill="#333333"/>
<path d="M60.9721 31.2524V44.0404H57.8441V9.40238H60.9261V12.8984C61.6621 11.641 62.6894 10.675 64.0081 10.0004C65.3574 9.29505 66.8141 8.94238 68.3781 8.94238C69.8501 8.94238 71.1841 9.18772 72.3801 9.67838C73.6067 10.1384 74.6494 10.8284 75.5081 11.7484C76.3667 12.6377 77.0261 13.7417 77.4861 15.0604C77.9767 16.379 78.2221 17.8817 78.2221 19.5684V23.9384C78.2221 25.625 77.9767 27.1277 77.4861 28.4464C76.9954 29.765 76.3054 30.8844 75.4161 31.8044C74.5574 32.6937 73.5147 33.3684 72.2881 33.8284C71.0921 34.319 69.7887 34.5644 68.3781 34.5644C66.6301 34.5644 65.1274 34.227 63.8701 33.5524C62.6434 32.9084 61.6927 32.1417 61.0181 31.2524H60.9721ZM75.0941 20.0284C75.0941 17.3604 74.4654 15.3211 73.2081 13.9104C71.9814 12.4997 70.3101 11.7944 68.1941 11.7944C67.3354 11.7944 66.4767 11.9477 65.6181 12.2544C64.7594 12.561 63.9774 13.021 63.2721 13.6344C62.5974 14.217 62.0454 14.9377 61.6161 15.7964C61.1867 16.6244 60.9721 17.5904 60.9721 18.6944V25.9624C60.9721 26.6984 61.1407 27.4191 61.4781 28.1244C61.8461 28.7991 62.3521 29.4124 62.9961 29.9644C63.6401 30.5164 64.3914 30.9611 65.2501 31.2984C66.1394 31.6357 67.1207 31.8044 68.1941 31.8044C70.3101 31.8044 71.9814 31.0837 73.2081 29.6424C74.4654 28.1704 75.0941 26.1157 75.0941 23.4784V20.0284Z" fill="#333333"/>
<path d="M48.8 5.40041C47.7574 4.78708 46.638 4.31175 45.442 3.97441C44.2767 3.60641 43.05 3.42242 41.762 3.42242C40.198 3.42242 38.8794 3.74441 37.806 4.38841C36.7327 5.00175 35.8434 5.90641 35.138 7.10241C34.4327 8.29841 33.896 9.77041 33.528 11.5184C33.16 13.2357 32.9147 15.1984 32.792 17.4064C33.0374 16.9157 33.39 16.3944 33.85 15.8424C34.3407 15.2904 34.9234 14.7844 35.598 14.3244C36.3034 13.8644 37.116 13.4964 38.036 13.2204C38.956 12.9137 39.9987 12.7604 41.164 12.7604C42.5747 12.7604 43.9087 12.9904 45.166 13.4504C46.454 13.9104 47.5734 14.5851 48.524 15.4744C49.5054 16.3331 50.272 17.4064 50.824 18.6944C51.4067 19.9517 51.698 21.3931 51.698 23.0184V24.1224C51.698 25.7477 51.422 27.2197 50.87 28.5384C50.318 29.8264 49.5514 30.9304 48.57 31.8504C47.6194 32.7704 46.4694 33.4757 45.12 33.9664C43.8014 34.4571 42.3754 34.7024 40.842 34.7024C39.278 34.7024 37.806 34.4264 36.426 33.8744C35.0767 33.3531 33.896 32.5404 32.884 31.4364C31.872 30.3324 31.0747 28.9371 30.492 27.2504C29.9094 25.5331 29.618 23.5244 29.618 21.2244V20.1204C29.618 16.5631 29.894 13.5424 30.446 11.0584C31.0287 8.57441 31.8414 6.55041 32.884 4.98641C33.9267 3.42241 35.1994 2.28775 36.702 1.58241C38.2047 0.877081 39.9067 0.524414 41.808 0.524414C43.3107 0.524414 44.7827 0.723747 46.224 1.12241C47.696 1.52108 49.0607 2.07308 50.318 2.77842L48.8 5.40041ZM33.114 23.4784C33.114 24.7357 33.298 25.8704 33.666 26.8824C34.034 27.8944 34.5554 28.7684 35.23 29.5044C35.9047 30.2404 36.702 30.8078 37.622 31.2064C38.5727 31.6051 39.6154 31.8044 40.75 31.8044C41.8847 31.8044 42.9274 31.6357 43.878 31.2984C44.8287 30.9304 45.6414 30.4244 46.316 29.7804C47.0214 29.1057 47.558 28.2931 47.926 27.3424C48.3247 26.3611 48.524 25.2417 48.524 23.9844V23.2944C48.524 22.0677 48.3094 20.9791 47.88 20.0284C47.4507 19.0471 46.8834 18.2344 46.178 17.5904C45.4727 16.9157 44.6447 16.4097 43.694 16.0724C42.774 15.7351 41.808 15.5664 40.796 15.5664C39.8147 15.5664 38.864 15.7504 37.944 16.1184C37.024 16.4864 36.2114 16.9924 35.506 17.6364C34.8007 18.2804 34.218 19.0624 33.758 19.9824C33.3287 20.8717 33.114 21.8377 33.114 22.8804V23.4784Z" fill="#333333"/>
<path d="M20.62 13.4503V23.8923H25.496V26.8363H20.62V34.1963H17.4V26.8363H0.794006V23.8923L16.894 1.03027H20.574L4.52001 23.8923H17.4V13.4503H20.62Z" fill="#333333"/>
<path d="M36.0921 75.4456L39.5121 80.4676H38.0901L35.3361 76.2016L32.4921 80.4676H31.1421L34.5981 75.4456L31.3401 70.7656H32.7081L35.3721 74.7256L38.0181 70.7656H39.3501L36.0921 75.4456Z" fill="#333333"/>
<path d="M23.2499 79.3159V84.3199H22.0259V70.7659H23.2319V72.1339C23.5199 71.6419 23.9219 71.2639 24.4379 70.9999C24.9659 70.7239 25.5359 70.5859 26.1479 70.5859C26.7239 70.5859 27.2459 70.6819 27.7139 70.8739C28.1939 71.0539 28.6019 71.3239 28.9379 71.6839C29.2739 72.0319 29.5319 72.4639 29.7119 72.9799C29.9039 73.4959 29.9999 74.0839 29.9999 74.7439V76.4539C29.9999 77.1139 29.9039 77.7019 29.7119 78.2179C29.5199 78.7339 29.2499 79.1719 28.9019 79.5319C28.5659 79.8799 28.1579 80.1439 27.6779 80.3239C27.2099 80.5159 26.6999 80.6119 26.1479 80.6119C25.4639 80.6119 24.8759 80.4799 24.3839 80.2159C23.9039 79.9639 23.5319 79.6639 23.2679 79.3159H23.2499ZM28.7759 74.9239C28.7759 73.8799 28.5299 73.0819 28.0379 72.5299C27.5579 71.9779 26.9039 71.7019 26.0759 71.7019C25.7399 71.7019 25.4039 71.7619 25.0679 71.8819C24.7319 72.0019 24.4259 72.1819 24.1499 72.4219C23.8859 72.6499 23.6699 72.9319 23.5019 73.2679C23.3339 73.5919 23.2499 73.9699 23.2499 74.4019V77.2459C23.2499 77.5339 23.3159 77.8159 23.4479 78.0919C23.5919 78.3559 23.7899 78.5959 24.0419 78.8119C24.2939 79.0279 24.5879 79.2019 24.9239 79.3339C25.2719 79.4659 25.6559 79.5319 26.0759 79.5319C26.9039 79.5319 27.5579 79.2499 28.0379 78.6859C28.5299 78.1099 28.7759 77.3059 28.7759 76.2739V74.9239Z" fill="#333333"/>
<path d="M12.655 70.802C12.655 71.15 12.715 71.48 12.835 71.792C12.955 72.104 13.123 72.374 13.339 72.602C13.567 72.83 13.837 73.01 14.149 73.142C14.461 73.274 14.809 73.34 15.193 73.34C15.577 73.34 15.925 73.274 16.237 73.142C16.549 73.01 16.813 72.83 17.029 72.602C17.257 72.374 17.431 72.104 17.551 71.792C17.671 71.48 17.731 71.15 17.731 70.802V70.586C17.731 69.914 17.497 69.386 17.029 69.002C16.573 68.606 15.961 68.408 15.193 68.408C14.413 68.408 13.795 68.606 13.339 69.002C12.883 69.386 12.655 69.914 12.655 70.586V70.802ZM12.295 77.138C12.295 77.474 12.361 77.786 12.493 78.074C12.625 78.362 12.817 78.614 13.069 78.83C13.321 79.046 13.621 79.22 13.969 79.352C14.329 79.472 14.737 79.532 15.193 79.532C15.649 79.532 16.057 79.472 16.417 79.352C16.777 79.22 17.077 79.046 17.317 78.83C17.569 78.614 17.761 78.362 17.893 78.074C18.025 77.786 18.091 77.474 18.091 77.138V76.922C18.091 76.538 18.019 76.19 17.875 75.878C17.731 75.566 17.533 75.296 17.281 75.068C17.029 74.84 16.723 74.666 16.363 74.546C16.015 74.426 15.625 74.366 15.193 74.366C14.773 74.366 14.383 74.426 14.023 74.546C13.675 74.666 13.369 74.84 13.105 75.068C12.853 75.284 12.655 75.548 12.511 75.86C12.367 76.172 12.295 76.526 12.295 76.922V77.138ZM11.017 76.868C11.017 76.148 11.233 75.518 11.665 74.978C12.109 74.426 12.685 74.042 13.393 73.826C12.769 73.538 12.283 73.136 11.935 72.62C11.599 72.104 11.431 71.504 11.431 70.82V70.532C11.431 70.064 11.521 69.632 11.701 69.236C11.893 68.84 12.157 68.498 12.493 68.21C12.829 67.922 13.225 67.7 13.681 67.544C14.149 67.376 14.653 67.292 15.193 67.292C15.733 67.292 16.231 67.376 16.687 67.544C17.155 67.7 17.557 67.922 17.893 68.21C18.229 68.498 18.487 68.84 18.667 69.236C18.859 69.632 18.955 70.064 18.955 70.532V70.82C18.955 71.504 18.781 72.104 18.433 72.62C18.097 73.136 17.611 73.538 16.975 73.826C17.323 73.934 17.641 74.084 17.929 74.276C18.229 74.468 18.481 74.702 18.685 74.978C18.901 75.242 19.069 75.536 19.189 75.86C19.309 76.172 19.369 76.508 19.369 76.868V77.174C19.369 77.69 19.267 78.164 19.063 78.596C18.871 79.028 18.589 79.4 18.217 79.712C17.857 80.012 17.419 80.246 16.903 80.414C16.387 80.582 15.817 80.666 15.193 80.666C14.569 80.666 13.999 80.582 13.483 80.414C12.967 80.246 12.523 80.012 12.151 79.712C11.791 79.4 11.509 79.028 11.305 78.596C11.113 78.164 11.017 77.69 11.017 77.174V76.868Z" fill="#333333"/>
<path d="M4.59802 80.4682V69.0742L1.46601 70.9822L0.890015 69.9742L4.90401 67.4902H5.85802V80.4682H4.59802Z" fill="#333333"/>
<path d="M31.9707 95.952L35.0107 100.416H33.7467L31.2987 96.624L28.7707 100.416H27.5707L30.6427 95.952L27.7467 91.792H28.9627L31.3307 95.312L33.6827 91.792H34.8667L31.9707 95.952Z" fill="#333333"/>
<path d="M20.5555 99.3918V103.84H19.4675V91.7918H20.5395V93.0078C20.7955 92.5705 21.1528 92.2345 21.6115 91.9998C22.0808 91.7545 22.5875 91.6318 23.1315 91.6318C23.6435 91.6318 24.1075 91.7172 24.5235 91.8878C24.9501 92.0478 25.3128 92.2878 25.6115 92.6078C25.9101 92.9172 26.1395 93.3012 26.2995 93.7598C26.4701 94.2185 26.5555 94.7412 26.5555 95.3278V96.8478C26.5555 97.4345 26.4701 97.9572 26.2995 98.4158C26.1288 98.8745 25.8888 99.2638 25.5795 99.5838C25.2808 99.8932 24.9181 100.128 24.4915 100.288C24.0755 100.459 23.6221 100.544 23.1315 100.544C22.5235 100.544 22.0008 100.427 21.5635 100.192C21.1368 99.9678 20.8061 99.7012 20.5715 99.3918H20.5555ZM25.4675 95.4878C25.4675 94.5598 25.2488 93.8505 24.8115 93.3598C24.3848 92.8692 23.8035 92.6238 23.0675 92.6238C22.7688 92.6238 22.4701 92.6772 22.1715 92.7838C21.8728 92.8905 21.6008 93.0505 21.3555 93.2638C21.1208 93.4665 20.9288 93.7172 20.7795 94.0158C20.6301 94.3038 20.5555 94.6398 20.5555 95.0238V97.5518C20.5555 97.8078 20.6141 98.0585 20.7315 98.3038C20.8595 98.5385 21.0355 98.7518 21.2595 98.9438C21.4835 99.1358 21.7448 99.2905 22.0435 99.4078C22.3528 99.5252 22.6941 99.5838 23.0675 99.5838C23.8035 99.5838 24.3848 99.3332 24.8115 98.8318C25.2488 98.3198 25.4675 97.6052 25.4675 96.6878V95.4878Z" fill="#333333"/>
<path d="M16.3217 90.4001C15.9591 90.1868 15.5697 90.0214 15.1537 89.9041C14.7484 89.7761 14.3217 89.7121 13.8737 89.7121C13.3297 89.7121 12.8711 89.8241 12.4977 90.0481C12.1244 90.2614 11.8151 90.5761 11.5697 90.9921C11.3244 91.4081 11.1377 91.9201 11.0097 92.5281C10.8817 93.1254 10.7964 93.8081 10.7537 94.5761C10.8391 94.4054 10.9617 94.2241 11.1217 94.0321C11.2924 93.8401 11.4951 93.6641 11.7297 93.5041C11.9751 93.3441 12.2577 93.2161 12.5777 93.1201C12.8977 93.0134 13.2604 92.9601 13.6657 92.9601C14.1564 92.9601 14.6204 93.0401 15.0577 93.2001C15.5057 93.3601 15.8951 93.5948 16.2257 93.9041C16.5671 94.2028 16.8337 94.5761 17.0257 95.0241C17.2284 95.4614 17.3297 95.9628 17.3297 96.5281V96.9121C17.3297 97.4774 17.2337 97.9894 17.0417 98.4481C16.8497 98.8961 16.5831 99.2801 16.2417 99.6001C15.9111 99.9201 15.5111 100.165 15.0417 100.336C14.5831 100.507 14.0871 100.592 13.5537 100.592C13.0097 100.592 12.4977 100.496 12.0177 100.304C11.5484 100.123 11.1377 99.8401 10.7857 99.4561C10.4337 99.0721 10.1564 98.5868 9.95372 98.0001C9.75105 97.4028 9.64972 96.7041 9.64972 95.9041V95.5201C9.64972 94.2828 9.74572 93.2321 9.93772 92.3681C10.1404 91.5041 10.4231 90.8001 10.7857 90.2561C11.1484 89.7121 11.5911 89.3174 12.1137 89.0721C12.6364 88.8268 13.2284 88.7041 13.8897 88.7041C14.4124 88.7041 14.9244 88.7734 15.4257 88.9121C15.9377 89.0508 16.4124 89.2428 16.8497 89.4881L16.3217 90.4001ZM10.8657 96.6881C10.8657 97.1254 10.9297 97.5201 11.0577 97.8721C11.1857 98.2241 11.3671 98.5281 11.6017 98.7841C11.8364 99.0401 12.1137 99.2374 12.4337 99.3761C12.7644 99.5148 13.1271 99.5841 13.5217 99.5841C13.9164 99.5841 14.2791 99.5254 14.6097 99.4081C14.9404 99.2801 15.2231 99.1041 15.4577 98.8801C15.7031 98.6454 15.8897 98.3628 16.0177 98.0321C16.1564 97.6908 16.2257 97.3014 16.2257 96.8641V96.6241C16.2257 96.1974 16.1511 95.8188 16.0017 95.4881C15.8524 95.1468 15.6551 94.8641 15.4097 94.6401C15.1644 94.4054 14.8764 94.2294 14.5457 94.1121C14.2257 93.9948 13.8897 93.9361 13.5377 93.9361C13.1964 93.9361 12.8657 94.0001 12.5457 94.1281C12.2257 94.2561 11.9431 94.4321 11.6977 94.6561C11.4524 94.8801 11.2497 95.1521 11.0897 95.4721C10.9404 95.7814 10.8657 96.1174 10.8657 96.4801V96.6881Z" fill="#333333"/>
<path d="M3.97599 100.416V90.2879L1.19199 91.9839L0.679993 91.0879L4.24799 88.8799H5.09599V100.416H3.97599Z" fill="#333333"/>
<path d="M40.2135 55.9412L44.0135 61.5212H42.4335L39.3735 56.7812L36.2135 61.5212H34.7135L38.5535 55.9412L34.9335 50.7412H36.4535L39.4135 55.1412L42.3535 50.7412H43.8335L40.2135 55.9412Z" fill="#333333"/>
<path d="M25.9444 60.241V65.801H24.5844V50.741H25.9244V52.261C26.2444 51.7143 26.6911 51.2943 27.2644 51.001C27.8511 50.6943 28.4844 50.541 29.1644 50.541C29.8044 50.541 30.3844 50.6477 30.9044 50.861C31.4377 51.061 31.8911 51.361 32.2644 51.761C32.6377 52.1477 32.9244 52.6277 33.1244 53.201C33.3377 53.7743 33.4444 54.4277 33.4444 55.161V57.061C33.4444 57.7943 33.3377 58.4477 33.1244 59.021C32.9111 59.5943 32.6111 60.081 32.2244 60.481C31.8511 60.8677 31.3977 61.161 30.8644 61.361C30.3444 61.5743 29.7777 61.681 29.1644 61.681C28.4044 61.681 27.7511 61.5343 27.2044 61.241C26.6711 60.961 26.2577 60.6277 25.9644 60.241H25.9444ZM32.0844 55.361C32.0844 54.201 31.8111 53.3143 31.2644 52.701C30.7311 52.0877 30.0044 51.781 29.0844 51.781C28.7111 51.781 28.3377 51.8477 27.9644 51.981C27.5911 52.1143 27.2511 52.3143 26.9444 52.581C26.6511 52.8343 26.4111 53.1477 26.2244 53.521C26.0377 53.881 25.9444 54.301 25.9444 54.781V57.941C25.9444 58.261 26.0177 58.5743 26.1644 58.881C26.3244 59.1743 26.5444 59.441 26.8244 59.681C27.1044 59.921 27.4311 60.1143 27.8044 60.261C28.1911 60.4077 28.6177 60.481 29.0844 60.481C30.0044 60.481 30.7311 60.1677 31.2644 59.541C31.8111 58.901 32.0844 58.0077 32.0844 56.861V55.361Z" fill="#333333"/>
<path d="M21.8922 55.4209C21.8922 57.4609 21.5056 59.0275 20.7322 60.1209C19.9589 61.2009 18.7056 61.7409 16.9722 61.7409C15.2656 61.7409 14.0256 61.1942 13.2522 60.1009C12.4789 59.0075 12.0922 57.4475 12.0922 55.4209V53.1809C12.0922 51.1675 12.4856 49.6142 13.2722 48.5209C14.0589 47.4275 15.2922 46.8809 16.9722 46.8809C18.6789 46.8809 19.9256 47.4275 20.7122 48.5209C21.4989 49.6009 21.8922 51.1542 21.8922 53.1809V55.4209ZM20.4522 53.1609C20.4522 51.3742 20.1589 50.0942 19.5722 49.3209C18.9989 48.5342 18.1322 48.1409 16.9722 48.1409C15.8656 48.1409 15.0122 48.5342 14.4122 49.3209C13.8256 50.1075 13.5322 51.3875 13.5322 53.1609V55.4409C13.5322 57.2275 13.8256 58.5142 14.4122 59.3009C15.0122 60.0875 15.8656 60.4809 16.9722 60.4809C18.1189 60.4809 18.9856 60.0942 19.5722 59.3209C20.1589 58.5342 20.4522 57.2409 20.4522 55.4409V53.1609Z" fill="#333333"/>
<path d="M5.92004 54.0209C6.32004 53.5542 6.64004 53.1542 6.88004 52.8209C7.12004 52.4875 7.30004 52.1942 7.42004 51.9409C7.55337 51.6742 7.64004 51.4409 7.68004 51.2409C7.73337 51.0409 7.76004 50.8475 7.76004 50.6609V50.5009C7.76004 49.7809 7.52004 49.2142 7.04004 48.8009C6.57337 48.3742 5.90004 48.1609 5.02004 48.1609C4.38004 48.1609 3.78004 48.3142 3.22004 48.6209C2.66004 48.9275 2.14671 49.5009 1.68004 50.3409L0.560039 49.6409C0.733372 49.3342 0.946706 49.0209 1.20004 48.7009C1.45337 48.3675 1.76004 48.0675 2.12004 47.8009C2.48004 47.5342 2.89337 47.3142 3.36004 47.1409C3.84004 46.9675 4.38004 46.8809 4.98004 46.8809C5.62004 46.8809 6.20004 46.9675 6.72004 47.1409C7.24004 47.3142 7.68004 47.5609 8.04004 47.8809C8.40004 48.1875 8.68004 48.5675 8.88004 49.0209C9.08004 49.4609 9.18004 49.9475 9.18004 50.4809V50.6809C9.18004 51.0675 9.11337 51.4475 8.98004 51.8209C8.84671 52.1809 8.66671 52.5342 8.44004 52.8809C8.22671 53.2275 7.97337 53.5742 7.68004 53.9209C7.38671 54.2675 7.08671 54.6209 6.78004 54.9809L2.30004 60.2409H9.70004V61.5209H0.540039V60.3209L5.92004 54.0209Z" fill="#333333"/>
<path d="M23.7281 115.965L26.0081 119.313H25.0601L23.2241 116.469L21.3281 119.313H20.4281L22.7321 115.965L20.5601 112.845H21.4721L23.2481 115.485L25.0121 112.845H25.9001L23.7281 115.965Z" fill="#333333"/>
<path d="M15.1666 118.545V121.881H14.3506V112.845H15.1546V113.757C15.3466 113.429 15.6146 113.177 15.9586 113.001C16.3106 112.817 16.6906 112.725 17.0986 112.725C17.4826 112.725 17.8306 112.789 18.1426 112.917C18.4626 113.037 18.7346 113.217 18.9586 113.457C19.1826 113.689 19.3546 113.977 19.4746 114.321C19.6026 114.665 19.6666 115.057 19.6666 115.497V116.637C19.6666 117.077 19.6026 117.469 19.4746 117.813C19.3466 118.157 19.1666 118.449 18.9346 118.689C18.7106 118.921 18.4386 119.097 18.1186 119.217C17.8066 119.345 17.4666 119.409 17.0986 119.409C16.6426 119.409 16.2506 119.321 15.9226 119.145C15.6026 118.977 15.3546 118.777 15.1786 118.545H15.1666ZM18.8506 115.617C18.8506 114.921 18.6866 114.389 18.3586 114.021C18.0386 113.653 17.6026 113.469 17.0506 113.469C16.8266 113.469 16.6026 113.509 16.3786 113.589C16.1546 113.669 15.9506 113.789 15.7666 113.949C15.5906 114.101 15.4466 114.289 15.3346 114.513C15.2226 114.729 15.1666 114.981 15.1666 115.269V117.165C15.1666 117.357 15.2106 117.545 15.2986 117.729C15.3946 117.905 15.5266 118.065 15.6946 118.209C15.8626 118.353 16.0586 118.469 16.2826 118.557C16.5146 118.645 16.7706 118.689 17.0506 118.689C17.6026 118.689 18.0386 118.501 18.3586 118.125C18.6866 117.741 18.8506 117.205 18.8506 116.517V115.617Z" fill="#333333"/>
<path d="M10.3473 114.812C10.5873 114.532 10.7793 114.292 10.9233 114.092C11.0673 113.892 11.1753 113.716 11.2473 113.564C11.3273 113.404 11.3793 113.264 11.4033 113.144C11.4353 113.024 11.4513 112.908 11.4513 112.796V112.7C11.4513 112.268 11.3073 111.928 11.0193 111.68C10.7393 111.424 10.3353 111.296 9.80732 111.296C9.42332 111.296 9.06332 111.388 8.72732 111.572C8.39132 111.756 8.08332 112.1 7.80332 112.604L7.13132 112.184C7.23532 112 7.36332 111.812 7.51532 111.62C7.66732 111.42 7.85132 111.24 8.06732 111.08C8.28332 110.92 8.53132 110.788 8.81132 110.684C9.09932 110.58 9.42332 110.528 9.78332 110.528C10.1673 110.528 10.5153 110.58 10.8273 110.684C11.1393 110.788 11.4033 110.936 11.6193 111.128C11.8353 111.312 12.0033 111.54 12.1233 111.812C12.2433 112.076 12.3033 112.368 12.3033 112.688V112.808C12.3033 113.04 12.2633 113.268 12.1833 113.492C12.1033 113.708 11.9953 113.92 11.8593 114.128C11.7313 114.336 11.5793 114.544 11.4033 114.752C11.2273 114.96 11.0473 115.172 10.8633 115.388L8.17532 118.544H12.6153V119.312H7.11932V118.592L10.3473 114.812Z" fill="#333333"/>
<path d="M2.73201 119.312V111.716L0.64401 112.988L0.26001 112.316L2.93601 110.66H3.57201V119.312H2.73201Z" fill="#333333"/>
</svg>
