<svg width="368" height="137" viewBox="0 0 368 137" fill="none" xmlns="http://www.w3.org/2000/svg">
<path d="M198.236 72.0008L202.484 65.1368L198.548 58.8008H201.524L203.108 61.4408C203.492 62.2088 203.924 62.9288 204.356 63.6728H204.452C204.812 62.9288 205.172 62.2088 205.556 61.4408L206.924 58.8008H209.804L205.868 65.4248L210.116 72.0008H207.116L205.388 69.2168C204.956 68.4248 204.476 67.6328 204.02 66.8888H203.9C203.468 67.6328 203.084 68.4248 202.652 69.2168L201.14 72.0008H198.236Z" fill="#333333"/>
<path d="M185.455 77.3528V58.8008H187.711L187.951 60.2648H188.023C189.175 59.2808 190.591 58.4648 192.079 58.4648C195.415 58.4648 197.311 61.1288 197.311 65.2088C197.311 69.7208 194.599 72.3368 191.623 72.3368C190.447 72.3368 189.247 71.8088 188.143 70.8488L188.239 73.0808V77.3528H185.455ZM191.095 70.0328C192.991 70.0328 194.455 68.3288 194.455 65.2328C194.455 62.4728 193.543 60.7688 191.335 60.7688C190.327 60.7688 189.343 61.3208 188.239 62.3768V68.8328C189.271 69.7208 190.279 70.0328 191.095 70.0328Z" fill="#333333"/>
<path d="M177.816 72.0004V60.9844C177.816 60.0244 177.888 58.4644 177.96 57.5044H177.84C177.408 58.3684 176.928 59.1844 176.424 60.0964L172.968 65.3044H182.664V67.4644H170.184V65.5924L177.192 54.8164H180.408V72.0004H177.816Z" fill="#333333"/>
<path d="M157.048 72.0009V70.3929C161.968 65.5689 164.944 62.5209 164.944 59.8089C164.944 57.9369 163.936 56.7129 161.968 56.7129C160.576 56.7129 159.424 57.6009 158.488 58.6569L156.904 57.1209C158.44 55.4889 160 54.5049 162.304 54.5049C165.544 54.5049 167.632 56.5449 167.632 59.6889C167.632 62.8089 164.752 65.9769 161.08 69.8409C161.992 69.7449 163.096 69.6489 163.984 69.6489H168.472V72.0009H157.048Z" fill="#333333"/>
<path d="M137.18 71.9999V54.3359H142.964C146.612 54.3359 149.348 55.6319 149.348 59.4719C149.348 63.1679 146.612 64.8719 142.964 64.8719H139.988V71.9999H137.18ZM139.988 62.6399H142.652C145.196 62.6399 146.588 61.5839 146.588 59.4719C146.588 57.3359 145.196 56.5919 142.652 56.5919H139.988V62.6399ZM146.852 71.9999L142.436 64.1519L144.5 62.5199L149.972 71.9999H146.852Z" fill="#333333"/>
<path d="M121.242 71.9999V54.3359H124.05V62.6879H124.098L130.818 54.3359H133.938L128.466 61.1519L134.826 71.9999H131.754L126.762 63.3599L124.05 66.6959V71.9999H121.242Z" fill="#333333"/>
<path d="M107.68 72.3368C105.856 72.3368 103.984 71.5688 102.712 70.5128L104.008 68.7128C105.184 69.6248 106.312 70.2248 107.752 70.2248C109.312 70.2248 110.056 69.4568 110.056 68.4488C110.056 67.2728 108.568 66.7208 107.152 66.1928C105.376 65.5208 103.432 64.5848 103.432 62.3288C103.432 60.1208 105.208 58.4648 108.16 58.4648C109.912 58.4648 111.376 59.1848 112.432 60.0248L111.136 61.7288C110.224 61.0808 109.288 60.5768 108.208 60.5768C106.744 60.5768 106.072 61.2968 106.072 62.2088C106.072 63.3368 107.344 63.7688 108.808 64.2968C110.656 64.9928 112.672 65.8328 112.672 68.3048C112.672 70.5368 110.92 72.3368 107.68 72.3368Z" fill="#333333"/>
<path d="M89.1038 72.0008V58.8008H91.3598L91.5998 60.6488H91.6718C92.8718 59.4488 94.2398 58.4648 96.0398 58.4648C98.8478 58.4648 100.096 60.3608 100.096 63.6968V72.0008H97.3118V64.0568C97.3118 61.7528 96.6398 60.8648 95.1038 60.8648C93.8798 60.8648 93.0398 61.4888 91.8878 62.6408V72.0008H89.1038Z" fill="#333333"/>
<path d="M78.4191 72.3368C76.1631 72.3368 74.5551 70.8248 74.5551 68.4968C74.5551 65.6648 76.9551 64.2008 82.4271 63.6008C82.4031 62.0648 81.8511 60.7208 79.9311 60.7208C78.5391 60.7208 77.2191 61.3688 76.1151 62.0888L75.0831 60.1928C76.4271 59.3528 78.2991 58.4648 80.4111 58.4648C83.6991 58.4648 85.2111 60.5528 85.2111 64.0808V72.0008H82.9311L82.7151 70.5128H82.6191C81.4191 71.5448 80.0031 72.3368 78.4191 72.3368ZM79.2831 70.1288C80.4351 70.1288 81.3471 69.6008 82.4271 68.5928V65.3768C78.5151 65.8328 77.2191 66.8168 77.2191 68.3048C77.2191 69.6008 78.1071 70.1288 79.2831 70.1288Z" fill="#333333"/>
<path d="M66.0015 72.3364C63.5535 72.3364 61.3215 71.3764 59.7135 69.7444L61.3455 67.8004C62.5935 69.0724 64.3455 69.8884 66.0495 69.8884C68.1615 69.8884 69.3615 68.9044 69.3615 67.3924C69.3615 65.7844 68.1615 65.2804 66.5295 64.5844L64.0815 63.5044C62.3775 62.8084 60.5055 61.4644 60.5055 58.8964C60.5055 56.1124 62.9295 54.0244 66.2895 54.0244C68.3775 54.0244 70.3215 54.8884 71.6415 56.2564L70.2015 58.0084C69.0975 57.0484 67.8495 56.4484 66.2895 56.4484C64.4895 56.4484 63.3375 57.3124 63.3375 58.7044C63.3375 60.2164 64.7535 60.7924 66.1935 61.3924L68.6175 62.4004C70.7055 63.2884 72.2175 64.5844 72.2175 67.1764C72.2175 70.0084 69.8655 72.3364 66.0015 72.3364Z" fill="#333333"/>
<path d="M45.8453 72.3368C42.5573 72.3368 39.6293 69.7928 39.6293 65.4248C39.6293 61.0088 42.5573 58.4648 45.8453 58.4648C49.1093 58.4648 52.0613 61.0088 52.0613 65.4248C52.0613 69.7928 49.1093 72.3368 45.8453 72.3368ZM45.8453 70.0568C47.9093 70.0568 49.2293 68.2088 49.2293 65.4248C49.2293 62.6168 47.9093 60.7688 45.8453 60.7688C43.7573 60.7688 42.4853 62.6168 42.4853 65.4248C42.4853 68.2088 43.7573 70.0568 45.8453 70.0568Z" fill="#333333"/>
<path d="M35.9578 72.3363C33.0058 72.3363 31.9498 70.4643 31.9498 67.7043V61.0083H30.0298V58.9443L32.0938 58.8003L32.4058 55.1523H34.7098V58.8003H38.1658V61.0083H34.7098V67.7283C34.7098 69.2883 35.2858 70.1283 36.6538 70.1283C37.1098 70.1283 37.6618 69.9603 38.0698 69.7923L38.5738 71.8323C37.8298 72.0723 36.9418 72.3363 35.9578 72.3363Z" fill="#333333"/>
<path d="M22.689 72.3368C19.401 72.3368 16.473 69.7928 16.473 65.4248C16.473 61.0088 19.401 58.4648 22.689 58.4648C25.953 58.4648 28.905 61.0088 28.905 65.4248C28.905 69.7928 25.953 72.3368 22.689 72.3368ZM22.689 70.0568C24.753 70.0568 26.073 68.2088 26.073 65.4248C26.073 62.6168 24.753 60.7688 22.689 60.7688C20.601 60.7688 19.329 62.6168 19.329 65.4248C19.329 68.2088 20.601 70.0568 22.689 70.0568Z" fill="#333333"/>
<path d="M0 71.9999V54.3359H2.856L8.736 64.7279L10.584 68.4479H10.704C10.536 66.6479 10.32 64.4879 10.32 62.5919V54.3359H12.984V71.9999H10.104L4.272 61.6079L2.424 57.8879H2.304C2.424 59.7359 2.664 61.7519 2.664 63.6959V71.9999H0Z" fill="#333333"/>
<path d="M346.912 32.0004L354.346 19.9884L347.458 8.90039H352.666L355.438 13.5204C356.11 14.8644 356.866 16.1244 357.622 17.4264H357.79C358.42 16.1244 359.05 14.8644 359.722 13.5204L362.116 8.90039H367.156L360.268 20.4924L367.702 32.0004H362.452L359.428 27.1284C358.672 25.7424 357.832 24.3564 357.034 23.0544H356.824C356.068 24.3564 355.396 25.7424 354.64 27.1284L351.994 32.0004H346.912Z" fill="#333333"/>
<path d="M324.547 41.3655V8.89952H328.495L328.915 11.4615H329.041C331.057 9.73952 333.535 8.31152 336.139 8.31152C341.977 8.31152 345.295 12.9735 345.295 20.1135C345.295 28.0095 340.549 32.5875 335.341 32.5875C333.283 32.5875 331.183 31.6635 329.251 29.9835L329.419 33.8895V41.3655H324.547ZM334.417 28.5555C337.735 28.5555 340.297 25.5735 340.297 20.1555C340.297 15.3255 338.701 12.3435 334.837 12.3435C333.073 12.3435 331.351 13.3095 329.419 15.1575V26.4555C331.225 28.0095 332.989 28.5555 334.417 28.5555Z" fill="#333333"/>
<path d="M298.788 31.9998V29.1858C307.398 20.7438 312.606 15.4098 312.606 10.6638C312.606 7.38784 310.842 5.24584 307.398 5.24584C304.962 5.24584 302.946 6.79984 301.308 8.64783L298.536 5.95984C301.224 3.10384 303.954 1.38184 307.986 1.38184C313.656 1.38184 317.31 4.95183 317.31 10.4538C317.31 15.9138 312.27 21.4578 305.844 28.2198C307.44 28.0518 309.372 27.8838 310.926 27.8838H318.78V31.9998H298.788Z" fill="#333333"/>
<path d="M287.225 31.9997V12.7217C287.225 11.0417 287.351 8.31173 287.477 6.63173H287.267C286.511 8.14373 285.671 9.57173 284.789 11.1677L278.741 20.2817H295.709V24.0617H273.869V20.7857L286.133 1.92773H291.761V31.9997H287.225Z" fill="#333333"/>
<path d="M240.064 31.9999V1.08789H250.186C256.57 1.08789 261.358 3.35589 261.358 10.0759C261.358 16.5439 256.57 19.5259 250.186 19.5259H244.978V31.9999H240.064ZM244.978 15.6199H249.64C254.092 15.6199 256.528 13.7719 256.528 10.0759C256.528 6.33789 254.092 5.03589 249.64 5.03589H244.978V15.6199ZM256.99 31.9999L249.262 18.2659L252.874 15.4099L262.45 31.9999H256.99Z" fill="#333333"/>
<path d="M212.174 31.9999V1.08789H217.088V15.7039H217.172L228.932 1.08789H234.392L224.816 13.0159L235.946 31.9999H230.57L221.834 16.8799L217.088 22.7179V31.9999H212.174Z" fill="#333333"/>
<path d="M188.441 32.5875C185.249 32.5875 181.973 31.2435 179.747 29.3955L182.015 26.2455C184.073 27.8415 186.047 28.8915 188.567 28.8915C191.297 28.8915 192.599 27.5475 192.599 25.7835C192.599 23.7255 189.995 22.7595 187.517 21.8355C184.409 20.6595 181.007 19.0215 181.007 15.0735C181.007 11.2095 184.115 8.31152 189.281 8.31152C192.347 8.31152 194.909 9.57152 196.757 11.0415L194.489 14.0235C192.893 12.8895 191.255 12.0075 189.365 12.0075C186.803 12.0075 185.627 13.2675 185.627 14.8635C185.627 16.8375 187.853 17.5935 190.415 18.5175C193.649 19.7355 197.177 21.2055 197.177 25.5315C197.177 29.4375 194.111 32.5875 188.441 32.5875Z" fill="#333333"/>
<path d="M155.932 31.9995V8.89952H159.88L160.3 12.1335H160.426C162.526 10.0335 164.92 8.31152 168.07 8.31152C172.984 8.31152 175.168 11.6295 175.168 17.4675V31.9995H170.296V18.0975C170.296 14.0655 169.12 12.5115 166.432 12.5115C164.29 12.5115 162.82 13.6035 160.804 15.6195V31.9995H155.932Z" fill="#333333"/>
<path d="M137.233 32.5875C133.285 32.5875 130.471 29.9415 130.471 25.8675C130.471 20.9115 134.671 18.3495 144.247 17.2995C144.205 14.6115 143.239 12.2595 139.879 12.2595C137.443 12.2595 135.133 13.3935 133.201 14.6535L131.395 11.3355C133.747 9.86552 137.023 8.31152 140.719 8.31152C146.473 8.31152 149.119 11.9655 149.119 18.1395V31.9995H145.129L144.751 29.3955H144.583C142.483 31.2015 140.005 32.5875 137.233 32.5875ZM138.745 28.7235C140.761 28.7235 142.357 27.7995 144.247 26.0355V20.4075C137.401 21.2055 135.133 22.9275 135.133 25.5315C135.133 27.7995 136.687 28.7235 138.745 28.7235Z" fill="#333333"/>
<path d="M115.503 32.588C111.219 32.588 107.313 30.908 104.499 28.052L107.355 24.65C109.539 26.876 112.605 28.304 115.587 28.304C119.283 28.304 121.383 26.582 121.383 23.936C121.383 21.122 119.283 20.24 116.427 19.022L112.143 17.132C109.161 15.914 105.885 13.562 105.885 9.06799C105.885 4.19599 110.127 0.541992 116.007 0.541992C119.661 0.541992 123.063 2.05399 125.373 4.44799L122.853 7.51399C120.921 5.83399 118.737 4.78399 116.007 4.78399C112.857 4.78399 110.841 6.29599 110.841 8.73199C110.841 11.378 113.319 12.386 115.839 13.436L120.081 15.2C123.735 16.754 126.381 19.022 126.381 23.558C126.381 28.514 122.265 32.588 115.503 32.588Z" fill="#333333"/>
<path d="M80.2292 32.5875C74.4752 32.5875 69.3512 28.1355 69.3512 20.4915C69.3512 12.7635 74.4752 8.31152 80.2292 8.31152C85.9412 8.31152 91.1072 12.7635 91.1072 20.4915C91.1072 28.1355 85.9412 32.5875 80.2292 32.5875ZM80.2292 28.5975C83.8412 28.5975 86.1512 25.3635 86.1512 20.4915C86.1512 15.5775 83.8412 12.3435 80.2292 12.3435C76.5752 12.3435 74.3492 15.5775 74.3492 20.4915C74.3492 25.3635 76.5752 28.5975 80.2292 28.5975Z" fill="#333333"/>
<path d="M62.9261 32.5876C57.7601 32.5876 55.9121 29.3116 55.9121 24.4816V12.7636H52.5521V9.15162L56.1641 8.89963L56.7101 2.51562H60.7421V8.89963H66.7901V12.7636H60.7421V24.5236C60.7421 27.2536 61.7501 28.7236 64.1441 28.7236C64.9421 28.7236 65.9081 28.4296 66.6221 28.1356L67.5041 31.7056C66.2021 32.1256 64.6481 32.5876 62.9261 32.5876Z" fill="#333333"/>
<path d="M39.7058 32.5875C33.9518 32.5875 28.8278 28.1355 28.8278 20.4915C28.8278 12.7635 33.9518 8.31152 39.7058 8.31152C45.4178 8.31152 50.5838 12.7635 50.5838 20.4915C50.5838 28.1355 45.4178 32.5875 39.7058 32.5875ZM39.7058 28.5975C43.3178 28.5975 45.6278 25.3635 45.6278 20.4915C45.6278 15.5775 43.3178 12.3435 39.7058 12.3435C36.0518 12.3435 33.8258 15.5775 33.8258 20.4915C33.8258 25.3635 36.0518 28.5975 39.7058 28.5975Z" fill="#333333"/>
<path d="M0 31.9999V1.08789H4.998L15.288 19.2739L18.522 25.7839H18.732C18.438 22.6339 18.06 18.8539 18.06 15.5359V1.08789H22.722V31.9999H17.682L7.476 13.8139L4.242 7.30389H4.032C4.242 10.5379 4.662 14.0659 4.662 17.4679V31.9999H0Z" fill="#333333"/>
<path d="M132.157 95.9992L134.989 91.4232L132.365 87.1992H134.349L135.405 88.9592C135.661 89.4712 135.949 89.9512 136.237 90.4472H136.301C136.541 89.9512 136.781 89.4712 137.037 88.9592L137.949 87.1992H139.869L137.245 91.6152L140.077 95.9992H138.077L136.925 94.1432C136.637 93.6152 136.317 93.0872 136.013 92.5912H135.933C135.645 93.0872 135.389 93.6152 135.101 94.1432L134.093 95.9992H132.157Z" fill="#333333"/>
<path d="M123.637 99.5676V87.1996H125.141L125.301 88.1756H125.349C126.117 87.5196 127.061 86.9756 128.053 86.9756C130.277 86.9756 131.541 88.7516 131.541 91.4716C131.541 94.4796 129.733 96.2236 127.749 96.2236C126.965 96.2236 126.165 95.8716 125.429 95.2316L125.493 96.7196V99.5676H123.637ZM127.397 94.6876C128.661 94.6876 129.637 93.5516 129.637 91.4876C129.637 89.6476 129.029 88.5116 127.557 88.5116C126.885 88.5116 126.229 88.8796 125.493 89.5836V93.8876C126.181 94.4796 126.853 94.6876 127.397 94.6876Z" fill="#333333"/>
<path d="M118.032 96.2239C115.776 96.2239 113.952 94.4479 113.952 90.6559C113.952 86.1439 116.08 84.3359 118.4 84.3359C119.728 84.3359 120.688 84.8959 121.36 85.5839L120.352 86.7199C119.92 86.2079 119.2 85.8559 118.496 85.8559C116.96 85.8559 115.68 87.0559 115.68 90.6559C115.68 93.4879 116.576 94.7999 118 94.7999C119.04 94.7999 119.84 93.9359 119.84 92.4959C119.84 91.0879 119.152 90.3039 117.904 90.3039C117.2 90.3039 116.368 90.7039 115.648 91.8079L115.584 90.4479C116.272 89.5199 117.344 88.9599 118.224 88.9599C120.208 88.9599 121.552 90.1279 121.552 92.4959C121.552 94.7519 119.936 96.2239 118.032 96.2239Z" fill="#333333"/>
<path d="M105.371 95.9999V94.4799H107.963V86.6239H105.835V85.4559C106.955 85.2479 107.723 84.9599 108.411 84.5439H109.803V94.4799H112.107V95.9999H105.371Z" fill="#333333"/>
<path d="M91.4531 95.9996V84.2236H95.3091C97.7411 84.2236 99.5651 85.0876 99.5651 87.6476C99.5651 90.1116 97.7411 91.2476 95.3091 91.2476H93.3251V95.9996H91.4531ZM93.3251 89.7596H95.1011C96.7971 89.7596 97.7251 89.0556 97.7251 87.6476C97.7251 86.2236 96.7971 85.7276 95.1011 85.7276H93.3251V89.7596ZM97.9011 95.9996L94.9571 90.7676L96.3331 89.6796L99.9811 95.9996H97.9011Z" fill="#333333"/>
<path d="M80.8281 95.9996V84.2236H82.7001V89.7916H82.7321L87.2121 84.2236H89.2921L85.6441 88.7676L89.8841 95.9996H87.8361L84.5081 90.2396L82.7001 92.4636V95.9996H80.8281Z" fill="#333333"/>
<path d="M71.7869 96.2236C70.5709 96.2236 69.3229 95.7116 68.4749 95.0076L69.3389 93.8076C70.1229 94.4156 70.8749 94.8156 71.8349 94.8156C72.8749 94.8156 73.3709 94.3036 73.3709 93.6316C73.3709 92.8476 72.3789 92.4796 71.4349 92.1276C70.2509 91.6796 68.9549 91.0556 68.9549 89.5516C68.9549 88.0796 70.1389 86.9756 72.1069 86.9756C73.2749 86.9756 74.2509 87.4556 74.9549 88.0156L74.0909 89.1516C73.4829 88.7196 72.8589 88.3836 72.1389 88.3836C71.1629 88.3836 70.7149 88.8636 70.7149 89.4716C70.7149 90.2236 71.5629 90.5116 72.5389 90.8636C73.7709 91.3276 75.1149 91.8876 75.1149 93.5356C75.1149 95.0236 73.9469 96.2236 71.7869 96.2236Z" fill="#333333"/>
<path d="M59.4025 95.9996V87.1996H60.9065L61.0665 88.4316H61.1145C61.9145 87.6316 62.8265 86.9756 64.0265 86.9756C65.8985 86.9756 66.7305 88.2396 66.7305 90.4636V95.9996H64.8745V90.7036C64.8745 89.1676 64.4265 88.5756 63.4025 88.5756C62.5865 88.5756 62.0265 88.9916 61.2585 89.7596V95.9996H59.4025Z" fill="#333333"/>
<path d="M52.2794 96.2236C50.7754 96.2236 49.7034 95.2156 49.7034 93.6636C49.7034 91.7756 51.3034 90.7996 54.9514 90.3996C54.9354 89.3756 54.5674 88.4796 53.2874 88.4796C52.3594 88.4796 51.4794 88.9116 50.7434 89.3916L50.0554 88.1276C50.9514 87.5676 52.1994 86.9756 53.6074 86.9756C55.7994 86.9756 56.8074 88.3676 56.8074 90.7196V95.9996H55.2874L55.1434 95.0076H55.0794C54.2794 95.6956 53.3354 96.2236 52.2794 96.2236ZM52.8554 94.7516C53.6234 94.7516 54.2314 94.3996 54.9514 93.7276V91.5836C52.3434 91.8876 51.4794 92.5436 51.4794 93.5356C51.4794 94.3996 52.0714 94.7516 52.8554 94.7516Z" fill="#333333"/>
<path d="M44.001 96.2236C42.369 96.2236 40.881 95.5836 39.809 94.4956L40.897 93.1996C41.729 94.0476 42.897 94.5916 44.033 94.5916C45.441 94.5916 46.241 93.9356 46.241 92.9276C46.241 91.8556 45.441 91.5196 44.353 91.0556L42.721 90.3356C41.585 89.8716 40.337 88.9756 40.337 87.2636C40.337 85.4076 41.953 84.0156 44.193 84.0156C45.585 84.0156 46.881 84.5916 47.761 85.5036L46.801 86.6716C46.065 86.0316 45.233 85.6316 44.193 85.6316C42.993 85.6316 42.225 86.2076 42.225 87.1356C42.225 88.1436 43.169 88.5276 44.129 88.9276L45.745 89.5996C47.137 90.1916 48.145 91.0556 48.145 92.7836C48.145 94.6716 46.577 96.2236 44.001 96.2236Z" fill="#333333"/>
<path d="M30.5636 96.2236C28.3716 96.2236 26.4196 94.5276 26.4196 91.6156C26.4196 88.6716 28.3716 86.9756 30.5636 86.9756C32.7396 86.9756 34.7076 88.6716 34.7076 91.6156C34.7076 94.5276 32.7396 96.2236 30.5636 96.2236ZM30.5636 94.7036C31.9396 94.7036 32.8196 93.4716 32.8196 91.6156C32.8196 89.7436 31.9396 88.5116 30.5636 88.5116C29.1716 88.5116 28.3236 89.7436 28.3236 91.6156C28.3236 93.4716 29.1716 94.7036 30.5636 94.7036Z" fill="#333333"/>
<path d="M23.9719 96.2236C22.0039 96.2236 21.2999 94.9756 21.2999 93.1356V88.6716H20.0199V87.2956L21.3959 87.1996L21.6039 84.7676H23.1399V87.1996H25.4439V88.6716H23.1399V93.1516C23.1399 94.1916 23.5239 94.7516 24.4359 94.7516C24.7399 94.7516 25.1079 94.6396 25.3799 94.5276L25.7159 95.8876C25.2199 96.0476 24.6279 96.2236 23.9719 96.2236Z" fill="#333333"/>
<path d="M15.1261 96.2236C12.9341 96.2236 10.9821 94.5276 10.9821 91.6156C10.9821 88.6716 12.9341 86.9756 15.1261 86.9756C17.3021 86.9756 19.2701 88.6716 19.2701 91.6156C19.2701 94.5276 17.3021 96.2236 15.1261 96.2236ZM15.1261 94.7036C16.5021 94.7036 17.3821 93.4716 17.3821 91.6156C17.3821 89.7436 16.5021 88.5116 15.1261 88.5116C13.7341 88.5116 12.8861 89.7436 12.8861 91.6156C12.8861 93.4716 13.7341 94.7036 15.1261 94.7036Z" fill="#333333"/>
<path d="M0 95.9996V84.2236H1.904L5.824 91.1516L7.056 93.6316H7.136C7.024 92.4316 6.88 90.9916 6.88 89.7276V84.2236H8.656V95.9996H6.736L2.848 89.0716L1.616 86.5916H1.536C1.616 87.8236 1.776 89.1676 1.776 90.4636V95.9996H0Z" fill="#333333"/>
<path d="M115.637 115L118.115 110.996L115.819 107.3H117.555L118.479 108.84C118.703 109.288 118.955 109.708 119.207 110.142H119.263C119.473 109.708 119.683 109.288 119.907 108.84L120.705 107.3H122.385L120.089 111.164L122.567 115H120.817L119.809 113.376C119.557 112.914 119.277 112.452 119.011 112.018H118.941C118.689 112.452 118.465 112.914 118.213 113.376L117.331 115H115.637Z" fill="#333333"/>
<path d="M108.182 118.122V107.3H109.498L109.638 108.154H109.68C110.352 107.58 111.178 107.104 112.046 107.104C113.992 107.104 115.098 108.658 115.098 111.038C115.098 113.67 113.516 115.196 111.78 115.196C111.094 115.196 110.394 114.888 109.75 114.328L109.806 115.63V118.122H108.182ZM111.472 113.852C112.578 113.852 113.432 112.858 113.432 111.052C113.432 109.442 112.9 108.448 111.612 108.448C111.024 108.448 110.45 108.77 109.806 109.386V113.152C110.408 113.67 110.996 113.852 111.472 113.852Z" fill="#333333"/>
<path d="M103.726 115V108.574C103.726 108.014 103.768 107.104 103.81 106.544H103.74C103.488 107.048 103.208 107.524 102.914 108.056L100.898 111.094H106.554V112.354H99.2739V111.262L103.362 104.976H105.238V115H103.726Z" fill="#333333"/>
<path d="M92.1995 115V113.67H94.4675V106.796H92.6055V105.774C93.5855 105.592 94.2575 105.34 94.8595 104.976H96.0775V113.67H98.0935V115H92.1995Z" fill="#333333"/>
<path d="M80.0215 114.999V104.695H83.3955C85.5235 104.695 87.1195 105.451 87.1195 107.691C87.1195 109.847 85.5235 110.841 83.3955 110.841H81.6595V114.999H80.0215ZM81.6595 109.539H83.2135C84.6975 109.539 85.5095 108.923 85.5095 107.691C85.5095 106.445 84.6975 106.011 83.2135 106.011H81.6595V109.539ZM85.6635 114.999L83.0875 110.421L84.2915 109.469L87.4835 114.999H85.6635Z" fill="#333333"/>
<path d="M70.7246 114.999V104.695H72.3626V109.567H72.3906L76.3106 104.695H78.1306L74.9386 108.671L78.6486 114.999H76.8566L73.9446 109.959L72.3626 111.905V114.999H70.7246Z" fill="#333333"/>
<path d="M62.8135 115.196C61.7495 115.196 60.6575 114.748 59.9155 114.132L60.6715 113.082C61.3575 113.614 62.0155 113.964 62.8555 113.964C63.7655 113.964 64.1995 113.516 64.1995 112.928C64.1995 112.242 63.3315 111.92 62.5055 111.612C61.4695 111.22 60.3355 110.674 60.3355 109.358C60.3355 108.07 61.3715 107.104 63.0935 107.104C64.1155 107.104 64.9695 107.524 65.5855 108.014L64.8295 109.008C64.2975 108.63 63.7515 108.336 63.1215 108.336C62.2675 108.336 61.8755 108.756 61.8755 109.288C61.8755 109.946 62.6175 110.198 63.4715 110.506C64.5495 110.912 65.7255 111.402 65.7255 112.844C65.7255 114.146 64.7035 115.196 62.8135 115.196Z" fill="#333333"/>
<path d="M51.9772 115V107.3H53.2932L53.4332 108.378H53.4752C54.1752 107.678 54.9732 107.104 56.0232 107.104C57.6612 107.104 58.3892 108.21 58.3892 110.156V115H56.7652V110.366C56.7652 109.022 56.3732 108.504 55.4772 108.504C54.7632 108.504 54.2732 108.868 53.6012 109.54V115H51.9772Z" fill="#333333"/>
<path d="M45.7445 115.196C44.4285 115.196 43.4905 114.314 43.4905 112.956C43.4905 111.304 44.8905 110.45 48.0825 110.1C48.0685 109.204 47.7465 108.42 46.6265 108.42C45.8145 108.42 45.0445 108.798 44.4005 109.218L43.7985 108.112C44.5825 107.622 45.6745 107.104 46.9065 107.104C48.8245 107.104 49.7065 108.322 49.7065 110.38V115H48.3765L48.2505 114.132H48.1945C47.4945 114.734 46.6685 115.196 45.7445 115.196ZM46.2485 113.908C46.9205 113.908 47.4525 113.6 48.0825 113.012V111.136C45.8005 111.402 45.0445 111.976 45.0445 112.844C45.0445 113.6 45.5625 113.908 46.2485 113.908Z" fill="#333333"/>
<path d="M38.5009 115.196C37.0729 115.196 35.7709 114.636 34.8329 113.684L35.7849 112.55C36.5129 113.292 37.5349 113.768 38.5289 113.768C39.7609 113.768 40.4609 113.194 40.4609 112.312C40.4609 111.374 39.7609 111.08 38.8089 110.674L37.3809 110.044C36.3869 109.638 35.2949 108.854 35.2949 107.356C35.2949 105.732 36.7089 104.514 38.6689 104.514C39.8869 104.514 41.0209 105.018 41.7909 105.816L40.9509 106.838C40.3069 106.278 39.5789 105.928 38.6689 105.928C37.6189 105.928 36.9469 106.432 36.9469 107.244C36.9469 108.126 37.7729 108.462 38.6129 108.812L40.0269 109.4C41.2449 109.918 42.1269 110.674 42.1269 112.186C42.1269 113.838 40.7549 115.196 38.5009 115.196Z" fill="#333333"/>
<path d="M26.7431 115.196C24.8251 115.196 23.1171 113.712 23.1171 111.164C23.1171 108.588 24.8251 107.104 26.7431 107.104C28.6471 107.104 30.3691 108.588 30.3691 111.164C30.3691 113.712 28.6471 115.196 26.7431 115.196ZM26.7431 113.866C27.9471 113.866 28.7171 112.788 28.7171 111.164C28.7171 109.526 27.9471 108.448 26.7431 108.448C25.5251 108.448 24.7831 109.526 24.7831 111.164C24.7831 112.788 25.5251 113.866 26.7431 113.866Z" fill="#333333"/>
<path d="M20.9753 115.196C19.2533 115.196 18.6373 114.104 18.6373 112.494V108.588H17.5173V107.384L18.7213 107.3L18.9033 105.172H20.2473V107.3H22.2633V108.588H20.2473V112.508C20.2473 113.418 20.5833 113.908 21.3813 113.908C21.6473 113.908 21.9693 113.81 22.2073 113.712L22.5013 114.902C22.0673 115.042 21.5493 115.196 20.9753 115.196Z" fill="#333333"/>
<path d="M13.2353 115.196C11.3173 115.196 9.60925 113.712 9.60925 111.164C9.60925 108.588 11.3173 107.104 13.2353 107.104C15.1393 107.104 16.8613 108.588 16.8613 111.164C16.8613 113.712 15.1393 115.196 13.2353 115.196ZM13.2353 113.866C14.4393 113.866 15.2093 112.788 15.2093 111.164C15.2093 109.526 14.4393 108.448 13.2353 108.448C12.0173 108.448 11.2753 109.526 11.2753 111.164C11.2753 112.788 12.0173 113.866 13.2353 113.866Z" fill="#333333"/>
<path d="M0 114.999V104.695H1.666L5.096 110.757L6.174 112.927H6.244C6.146 111.877 6.02 110.617 6.02 109.511V104.695H7.574V114.999H5.894L2.492 108.937L1.414 106.767H1.344C1.414 107.845 1.554 109.021 1.554 110.155V114.999H0Z" fill="#333333"/>
<path d="M99.1178 133.999L101.242 130.567L99.2738 127.399H100.762L101.554 128.719C101.746 129.103 101.962 129.463 102.178 129.835H102.226C102.406 129.463 102.586 129.103 102.778 128.719L103.462 127.399H104.902L102.934 130.711L105.058 133.999H103.558L102.694 132.607C102.478 132.211 102.238 131.815 102.01 131.443H101.95C101.734 131.815 101.542 132.211 101.326 132.607L100.57 133.999H99.1178Z" fill="#333333"/>
<path d="M92.7277 136.675V127.399H93.8557L93.9757 128.131H94.0117C94.5877 127.639 95.2957 127.231 96.0397 127.231C97.7077 127.231 98.6557 128.563 98.6557 130.603C98.6557 132.859 97.2997 134.167 95.8117 134.167C95.2237 134.167 94.6237 133.903 94.0717 133.423L94.1197 134.539V136.675H92.7277ZM95.5477 133.015C96.4957 133.015 97.2277 132.163 97.2277 130.615C97.2277 129.235 96.7717 128.383 95.6677 128.383C95.1637 128.383 94.6717 128.659 94.1197 129.187V132.415C94.6357 132.859 95.1397 133.015 95.5477 133.015Z" fill="#333333"/>
<path d="M85.3679 134V133.196C87.8279 130.784 89.3159 129.26 89.3159 127.904C89.3159 126.968 88.8119 126.356 87.8279 126.356C87.1319 126.356 86.5559 126.8 86.0879 127.328L85.2959 126.56C86.0639 125.744 86.8439 125.252 87.9959 125.252C89.6159 125.252 90.6599 126.272 90.6599 127.844C90.6599 129.404 89.2199 130.988 87.3839 132.92C87.8399 132.872 88.3919 132.824 88.8359 132.824H91.0799V134H85.3679Z" fill="#333333"/>
<path d="M79.0282 134V132.86H80.9722V126.968H79.3762V126.092C80.2162 125.936 80.7922 125.72 81.3082 125.408H82.3522V132.86H84.0802V134H79.0282Z" fill="#333333"/>
<path d="M68.5898 134V125.168H71.4818C73.3058 125.168 74.6738 125.816 74.6738 127.736C74.6738 129.584 73.3058 130.436 71.4818 130.436H69.9938V134H68.5898ZM69.9938 129.32H71.3258C72.5978 129.32 73.2938 128.792 73.2938 127.736C73.2938 126.668 72.5978 126.296 71.3258 126.296H69.9938V129.32ZM73.4258 134L71.2178 130.076L72.2498 129.26L74.9858 134H73.4258Z" fill="#333333"/>
<path d="M60.6211 134V125.168H62.0251V129.344H62.0491L65.4091 125.168H66.9691L64.2331 128.576L67.4131 134H65.8771L63.3811 129.68L62.0251 131.348V134H60.6211Z" fill="#333333"/>
<path d="M53.8402 134.167C52.9282 134.167 51.9922 133.783 51.3562 133.255L52.0042 132.355C52.5922 132.811 53.1562 133.111 53.8762 133.111C54.6562 133.111 55.0282 132.727 55.0282 132.223C55.0282 131.635 54.2842 131.359 53.5762 131.095C52.6882 130.759 51.7162 130.291 51.7162 129.163C51.7162 128.059 52.6042 127.231 54.0802 127.231C54.9562 127.231 55.6882 127.591 56.2162 128.011L55.5682 128.863C55.1122 128.539 54.6442 128.287 54.1042 128.287C53.3722 128.287 53.0362 128.647 53.0362 129.103C53.0362 129.667 53.6722 129.883 54.4042 130.147C55.3282 130.495 56.3362 130.915 56.3362 132.151C56.3362 133.267 55.4602 134.167 53.8402 134.167Z" fill="#333333"/>
<path d="M44.5519 133.999V127.399H45.6799L45.7999 128.323H45.8359C46.4359 127.723 47.1199 127.231 48.0199 127.231C49.4239 127.231 50.0479 128.179 50.0479 129.847V133.999H48.6559V130.027C48.6559 128.875 48.3199 128.431 47.5519 128.431C46.9399 128.431 46.5199 128.743 45.9439 129.319V133.999H44.5519Z" fill="#333333"/>
<path d="M39.2096 134.167C38.0816 134.167 37.2776 133.411 37.2776 132.247C37.2776 130.831 38.4776 130.099 41.2136 129.799C41.2016 129.031 40.9256 128.359 39.9656 128.359C39.2696 128.359 38.6096 128.683 38.0576 129.043L37.5416 128.095C38.2136 127.675 39.1496 127.231 40.2056 127.231C41.8496 127.231 42.6056 128.275 42.6056 130.039V133.999H41.4656L41.3576 133.255H41.3096C40.7096 133.771 40.0016 134.167 39.2096 134.167ZM39.6416 133.063C40.2176 133.063 40.6736 132.799 41.2136 132.295V130.687C39.2576 130.915 38.6096 131.407 38.6096 132.151C38.6096 132.799 39.0536 133.063 39.6416 133.063Z" fill="#333333"/>
<path d="M33.0007 134.168C31.7767 134.168 30.6607 133.688 29.8567 132.872L30.6727 131.9C31.2967 132.536 32.1727 132.944 33.0247 132.944C34.0807 132.944 34.6807 132.452 34.6807 131.696C34.6807 130.892 34.0807 130.64 33.2647 130.292L32.0407 129.752C31.1887 129.404 30.2527 128.732 30.2527 127.448C30.2527 126.056 31.4647 125.012 33.1447 125.012C34.1887 125.012 35.1607 125.444 35.8207 126.128L35.1007 127.004C34.5487 126.524 33.9247 126.224 33.1447 126.224C32.2447 126.224 31.6687 126.656 31.6687 127.352C31.6687 128.108 32.3767 128.396 33.0967 128.696L34.3087 129.2C35.3527 129.644 36.1087 130.292 36.1087 131.588C36.1087 133.004 34.9327 134.168 33.0007 134.168Z" fill="#333333"/>
<path d="M22.9226 134.167C21.2786 134.167 19.8146 132.895 19.8146 130.711C19.8146 128.503 21.2786 127.231 22.9226 127.231C24.5546 127.231 26.0306 128.503 26.0306 130.711C26.0306 132.895 24.5546 134.167 22.9226 134.167ZM22.9226 133.027C23.9546 133.027 24.6146 132.103 24.6146 130.711C24.6146 129.307 23.9546 128.383 22.9226 128.383C21.8786 128.383 21.2426 129.307 21.2426 130.711C21.2426 132.103 21.8786 133.027 22.9226 133.027Z" fill="#333333"/>
<path d="M17.9789 134.168C16.5029 134.168 15.9749 133.232 15.9749 131.852V128.504H15.0149V127.472L16.0469 127.4L16.2029 125.576H17.3549V127.4H19.0829V128.504H17.3549V131.864C17.3549 132.644 17.6429 133.064 18.3269 133.064C18.5549 133.064 18.8309 132.98 19.0349 132.896L19.2869 133.916C18.9149 134.036 18.4709 134.168 17.9789 134.168Z" fill="#333333"/>
<path d="M11.3444 134.167C9.70045 134.167 8.23645 132.895 8.23645 130.711C8.23645 128.503 9.70045 127.231 11.3444 127.231C12.9765 127.231 14.4525 128.503 14.4525 130.711C14.4525 132.895 12.9765 134.167 11.3444 134.167ZM11.3444 133.027C12.3764 133.027 13.0365 132.103 13.0365 130.711C13.0365 129.307 12.3764 128.383 11.3444 128.383C10.3005 128.383 9.66445 129.307 9.66445 130.711C9.66445 132.103 10.3005 133.027 11.3444 133.027Z" fill="#333333"/>
<path d="M0 134V125.168H1.428L4.368 130.364L5.292 132.224H5.352C5.268 131.324 5.16 130.244 5.16 129.296V125.168H6.492V134H5.052L2.136 128.804L1.212 126.944H1.152C1.212 127.868 1.332 128.876 1.332 129.848V134H0Z" fill="#333333"/>
</svg>
