<svg width="95" height="136" viewBox="0 0 95 136" fill="none" xmlns="http://www.w3.org/2000/svg">
<path d="M42.2194 70.9998L46.4674 64.1358L42.5314 57.7998H45.5074L47.0914 60.4398C47.4754 61.2078 47.9074 61.9278 48.3394 62.6718H48.4354C48.7954 61.9278 49.1554 61.2078 49.5394 60.4398L50.9074 57.7998H53.7874L49.8514 64.4238L54.0994 70.9998H51.0994L49.3714 68.2158C48.9394 67.4238 48.4594 66.6318 48.0034 65.8878H47.8834C47.4514 66.6318 47.0674 67.4238 46.6354 68.2158L45.1234 70.9998H42.2194Z" fill="#333333"/>
<path d="M29.439 76.3519V57.7999H31.695L31.935 59.2639H32.007C33.159 58.2799 34.575 57.4639 36.063 57.4639C39.399 57.4639 41.295 60.1279 41.295 64.2079C41.295 68.7199 38.583 71.3359 35.607 71.3359C34.431 71.3359 33.231 70.8079 32.127 69.8479L32.223 72.0799V76.3519H29.439ZM35.079 69.0319C36.975 69.0319 38.439 67.3279 38.439 64.2319C38.439 61.4719 37.527 59.7679 35.319 59.7679C34.311 59.7679 33.327 60.3199 32.223 61.3759V67.8319C33.255 68.7199 34.263 69.0319 35.079 69.0319Z" fill="#333333"/>
<path d="M21.7995 70.9994V59.9834C21.7995 59.0234 21.8715 57.4634 21.9435 56.5034H21.8235C21.3915 57.3674 20.9115 58.1834 20.4075 59.0954L16.9515 64.3034H26.6475V66.4634H14.1675V64.5914L21.1755 53.8154H24.3915V70.9994H21.7995Z" fill="#333333"/>
<path d="M1.03194 70.9999V69.3919C5.95194 64.5679 8.92794 61.5199 8.92794 58.8079C8.92794 56.9359 7.91994 55.7119 5.95194 55.7119C4.55994 55.7119 3.40794 56.5999 2.47194 57.6559L0.887939 56.1199C2.42394 54.4879 3.98394 53.5039 6.28794 53.5039C9.52794 53.5039 11.6159 55.5439 11.6159 58.6879C11.6159 61.8079 8.73594 64.9759 5.06394 68.8399C5.97594 68.7439 7.07994 68.6479 7.96794 68.6479H12.4559V70.9999H1.03194Z" fill="#333333"/>
<path d="M73.8839 30.9994L81.3179 18.9874L74.4299 7.89941H79.6379L82.4099 12.5194C83.0819 13.8634 83.8379 15.1234 84.5939 16.4254H84.7619C85.3919 15.1234 86.0219 13.8634 86.6939 12.5194L89.0879 7.89941H94.1279L87.2399 19.4914L94.6739 30.9994H89.4239L86.3999 26.1274C85.6439 24.7414 84.8039 23.3554 84.0059 22.0534H83.7959C83.0399 23.3554 82.3679 24.7414 81.6119 26.1274L78.9659 30.9994H73.8839Z" fill="#333333"/>
<path d="M51.5182 40.3655V7.89952H55.4662L55.8862 10.4615H56.0122C58.0282 8.73952 60.5062 7.31152 63.1102 7.31152C68.9482 7.31152 72.2662 11.9735 72.2662 19.1135C72.2662 27.0095 67.5202 31.5875 62.3122 31.5875C60.2542 31.5875 58.1542 30.6635 56.2222 28.9835L56.3902 32.8895V40.3655H51.5182ZM61.3882 27.5555C64.7062 27.5555 67.2682 24.5735 67.2682 19.1555C67.2682 14.3255 65.6722 11.3435 61.8082 11.3435C60.0442 11.3435 58.3222 12.3095 56.3902 14.1575V25.4555C58.1962 27.0095 59.9602 27.5555 61.3882 27.5555Z" fill="#333333"/>
<path d="M25.7591 30.9998V28.1858C34.3691 19.7438 39.5771 14.4098 39.5771 9.66384C39.5771 6.38784 37.8131 4.24584 34.3691 4.24584C31.9331 4.24584 29.9171 5.79984 28.2791 7.64783L25.5071 4.95984C28.1951 2.10384 30.9251 0.381836 34.9571 0.381836C40.6271 0.381836 44.2811 3.95183 44.2811 9.45384C44.2811 14.9138 39.2411 20.4578 32.8151 27.2198C34.4111 27.0518 36.3431 26.8838 37.8971 26.8838H45.7511V30.9998H25.7591Z" fill="#333333"/>
<path d="M14.196 30.9997V11.7217C14.196 10.0417 14.322 7.31173 14.448 5.63173H14.238C13.482 7.14373 12.642 8.57173 11.76 10.1677L5.71197 19.2817H22.68V23.0617H0.839966V19.7857L13.104 0.927734H18.732V30.9997H14.196Z" fill="#333333"/>
<path d="M28.1462 95.0002L30.9782 90.4242L28.3542 86.2002H30.3382L31.3942 87.9602C31.6502 88.4722 31.9382 88.9522 32.2262 89.4482H32.2902C32.5302 88.9522 32.7702 88.4722 33.0262 87.9602L33.9382 86.2002H35.8582L33.2342 90.6162L36.0662 95.0002H34.0662L32.9142 93.1442C32.6262 92.6162 32.3062 92.0882 32.0022 91.5922H31.9222C31.6342 92.0882 31.3782 92.6162 31.0902 93.1442L30.0822 95.0002H28.1462Z" fill="#333333"/>
<path d="M19.626 98.5676V86.1996H21.13L21.29 87.1756H21.338C22.106 86.5196 23.05 85.9756 24.042 85.9756C26.266 85.9756 27.53 87.7516 27.53 90.4716C27.53 93.4796 25.722 95.2236 23.738 95.2236C22.954 95.2236 22.154 94.8716 21.418 94.2316L21.482 95.7196V98.5676H19.626ZM23.386 93.6876C24.65 93.6876 25.626 92.5516 25.626 90.4876C25.626 88.6476 25.018 87.5116 23.546 87.5116C22.874 87.5116 22.218 87.8796 21.482 88.5836V92.8876C22.17 93.4796 22.842 93.6876 23.386 93.6876Z" fill="#333333"/>
<path d="M14.021 95.2239C11.765 95.2239 9.94104 93.4479 9.94104 89.6559C9.94104 85.1439 12.069 83.3359 14.389 83.3359C15.717 83.3359 16.677 83.8959 17.349 84.5839L16.341 85.7199C15.909 85.2079 15.189 84.8559 14.485 84.8559C12.949 84.8559 11.669 86.0559 11.669 89.6559C11.669 92.4879 12.565 93.7999 13.989 93.7999C15.029 93.7999 15.829 92.9359 15.829 91.4959C15.829 90.0879 15.141 89.3039 13.893 89.3039C13.189 89.3039 12.357 89.7039 11.637 90.8079L11.573 89.4479C12.261 88.5199 13.333 87.9599 14.213 87.9599C16.197 87.9599 17.541 89.1279 17.541 91.4959C17.541 93.7519 15.925 95.2239 14.021 95.2239Z" fill="#333333"/>
<path d="M1.35999 94.9999V93.4799H3.95199V85.6239H1.82399V84.4559C2.94399 84.2479 3.71199 83.9599 4.39999 83.5439H5.79199V93.4799H8.09599V94.9999H1.35999Z" fill="#333333"/>
<path d="M24.6279 114L27.1059 109.996L24.8099 106.3H26.5459L27.4699 107.84C27.6939 108.288 27.9459 108.708 28.1979 109.142H28.2539C28.4639 108.708 28.6739 108.288 28.8979 107.84L29.6959 106.3H31.3759L29.0799 110.164L31.5579 114H29.8079L28.7999 112.376C28.5479 111.914 28.2679 111.452 28.0019 111.018H27.9319C27.6799 111.452 27.4559 111.914 27.2039 112.376L26.3219 114H24.6279Z" fill="#333333"/>
<path d="M17.1727 117.122V106.3H18.4887L18.6287 107.154H18.6707C19.3427 106.58 20.1687 106.104 21.0367 106.104C22.9827 106.104 24.0887 107.658 24.0887 110.038C24.0887 112.67 22.5067 114.196 20.7707 114.196C20.0847 114.196 19.3847 113.888 18.7407 113.328L18.7967 114.63V117.122H17.1727ZM20.4627 112.852C21.5687 112.852 22.4227 111.858 22.4227 110.052C22.4227 108.442 21.8907 107.448 20.6027 107.448C20.0147 107.448 19.4407 107.77 18.7967 108.386V112.152C19.3987 112.67 19.9867 112.852 20.4627 112.852Z" fill="#333333"/>
<path d="M12.7163 114V107.574C12.7163 107.014 12.7583 106.104 12.8003 105.544H12.7303C12.4783 106.048 12.1983 106.524 11.9043 107.056L9.88828 110.094H15.5443V111.354H8.26428V110.262L12.3523 103.976H14.2283V114H12.7163Z" fill="#333333"/>
<path d="M1.18994 114V112.67H3.45794V105.796H1.59594V104.774C2.57594 104.592 3.24794 104.34 3.84994 103.976H5.06794V112.67H7.08394V114H1.18994Z" fill="#333333"/>
<path d="M21.1097 133L23.2337 129.568L21.2657 126.4H22.7537L23.5457 127.72C23.7377 128.104 23.9537 128.464 24.1697 128.836H24.2177C24.3977 128.464 24.5777 128.104 24.7697 127.72L25.4537 126.4H26.8937L24.9257 129.712L27.0497 133H25.5497L24.6857 131.608C24.4697 131.212 24.2297 130.816 24.0017 130.444H23.9417C23.7257 130.816 23.5337 131.212 23.3177 131.608L22.5617 133H21.1097Z" fill="#333333"/>
<path d="M14.7195 135.676V126.4H15.8475L15.9675 127.132H16.0035C16.5795 126.64 17.2875 126.232 18.0315 126.232C19.6995 126.232 20.6475 127.564 20.6475 129.604C20.6475 131.86 19.2915 133.168 17.8035 133.168C17.2155 133.168 16.6155 132.904 16.0635 132.424L16.1115 133.54V135.676H14.7195ZM17.5395 132.016C18.4875 132.016 19.2195 131.164 19.2195 129.616C19.2195 128.236 18.7635 127.384 17.6595 127.384C17.1555 127.384 16.6635 127.66 16.1115 128.188V131.416C16.6275 131.86 17.1315 132.016 17.5395 132.016Z" fill="#333333"/>
<path d="M7.35972 133V132.196C9.81972 129.784 11.3077 128.26 11.3077 126.904C11.3077 125.968 10.8037 125.356 9.81972 125.356C9.12372 125.356 8.54772 125.8 8.07972 126.328L7.28772 125.56C8.05572 124.744 8.83572 124.252 9.98772 124.252C11.6077 124.252 12.6517 125.272 12.6517 126.844C12.6517 128.404 11.2117 129.988 9.37572 131.92C9.83172 131.872 10.3837 131.824 10.8277 131.824H13.0717V133H7.35972Z" fill="#333333"/>
<path d="M1.02002 133V131.86H2.96402V125.968H1.36802V125.092C2.20802 124.936 2.78402 124.72 3.30002 124.408H4.34402V131.86H6.07202V133H1.02002Z" fill="#333333"/>
</svg>
