<svg width="108" height="171" viewBox="0 0 108 171" fill="none" xmlns="http://www.w3.org/2000/svg">
<path d="M41.3314 76.9998L45.5794 70.1358L41.6434 63.7998H44.6194L46.2034 66.4398C46.5874 67.2078 47.0194 67.9278 47.4514 68.6718H47.5474C47.9074 67.9278 48.2674 67.2078 48.6514 66.4398L50.0194 63.7998H52.8994L48.9634 70.4238L53.2114 76.9998H50.2114L48.4834 74.2158C48.0514 73.4238 47.5714 72.6318 47.1154 71.8878H46.9954C46.5634 72.6318 46.1794 73.4238 45.7474 74.2158L44.2354 76.9998H41.3314Z" fill="#333333"/>
<path d="M28.551 82.3519V63.7999H30.807L31.047 65.2639H31.119C32.271 64.2799 33.687 63.4639 35.175 63.4639C38.511 63.4639 40.407 66.1279 40.407 70.2079C40.407 74.7199 37.695 77.3359 34.719 77.3359C33.543 77.3359 32.343 76.8079 31.239 75.8479L31.335 78.0799V82.3519H28.551ZM34.191 75.0319C36.087 75.0319 37.551 73.3279 37.551 70.2319C37.551 67.4719 36.639 65.7679 34.431 65.7679C33.423 65.7679 32.439 66.3199 31.335 67.3759V73.8319C32.367 74.7199 33.375 75.0319 34.191 75.0319Z" fill="#333333"/>
<path d="M20.9115 76.9994V65.9834C20.9115 65.0234 20.9835 63.4634 21.0555 62.5034H20.9355C20.5035 63.3674 20.0235 64.1834 19.5195 65.0954L16.0635 70.3034H25.7595V72.4634H13.2795V70.5914L20.2875 59.8154H23.5035V76.9994H20.9115Z" fill="#333333"/>
<path d="M0.144 76.9999V75.3919C5.064 70.5679 8.04 67.5199 8.04 64.8079C8.04 62.9359 7.032 61.7119 5.064 61.7119C3.672 61.7119 2.52 62.5999 1.584 63.6559L0 62.1199C1.536 60.4879 3.096 59.5039 5.4 59.5039C8.64 59.5039 10.728 61.5439 10.728 64.6879C10.728 67.8079 7.848 70.9759 4.176 74.8399C5.088 74.7439 6.192 74.6479 7.08 74.6479H11.568V76.9999H0.144Z" fill="#333333"/>
<path d="M83.4788 34.9996L91.9748 21.2716L84.1028 8.59961H90.0548L93.2228 13.8796C93.9908 15.4156 94.8548 16.8556 95.7188 18.3436H95.9108C96.6308 16.8556 97.3508 15.4156 98.1188 13.8796L100.855 8.59961H106.615L98.7428 21.8476L107.239 34.9996H101.239L97.7828 29.4316C96.9188 27.8476 95.9588 26.2636 95.0468 24.7756H94.8068C93.9428 26.2636 93.1748 27.8476 92.3108 29.4316L89.2868 34.9996H83.4788Z" fill="#333333"/>
<path d="M57.918 45.7037V8.59973H62.43L62.91 11.5277H63.054C65.358 9.55973 68.19 7.92773 71.166 7.92773C77.838 7.92773 81.63 13.2557 81.63 21.4157C81.63 30.4397 76.206 35.6717 70.254 35.6717C67.902 35.6717 65.502 34.6157 63.294 32.6957L63.486 37.1597V45.7037H57.918ZM69.198 31.0637C72.99 31.0637 75.918 27.6557 75.918 21.4637C75.918 15.9437 74.094 12.5357 69.678 12.5357C67.662 12.5357 65.694 13.6397 63.486 15.7517V28.6637C65.55 30.4397 67.566 31.0637 69.198 31.0637Z" fill="#333333"/>
<path d="M40.143 35.6718C33.471 35.6718 28.623 31.7358 28.623 26.2638C28.623 21.8478 31.695 18.9198 34.911 17.1918V16.9998C32.319 15.1758 30.159 12.6318 30.159 9.03181C30.159 3.55981 34.479 0.0078125 40.287 0.0078125C46.431 0.0078125 50.223 3.75181 50.223 9.22381C50.223 12.7278 47.775 15.6558 45.615 17.2398V17.4798C48.735 19.3038 51.567 21.7998 51.567 26.4078C51.567 31.6398 46.959 35.6718 40.143 35.6718ZM42.447 15.8958C44.511 13.9278 45.615 11.8638 45.615 9.51181C45.615 6.39181 43.599 3.99181 40.191 3.99181C37.311 3.99181 35.151 5.91181 35.151 9.03181C35.151 12.7278 38.511 14.3118 42.447 15.8958ZM40.239 31.6398C43.839 31.6398 46.335 29.5278 46.335 26.2158C46.335 22.1838 42.399 20.7918 37.647 18.8238C35.247 20.5038 33.471 22.8078 33.471 25.6878C33.471 29.1918 36.399 31.6398 40.239 31.6398Z" fill="#333333"/>
<path d="M15.264 34.9998V12.9678C15.264 11.0478 15.408 7.92784 15.552 6.00784H15.312C14.448 7.73584 13.488 9.36783 12.48 11.1918L5.568 21.6078H24.96V25.9278H0V22.1838L14.016 0.631836H20.448V34.9998H15.264Z" fill="#333333"/>
<path d="M34.4428 107L37.9828 101.28L34.7028 96H37.1828L38.5028 98.2C38.8228 98.84 39.1828 99.44 39.5428 100.06H39.6228C39.9228 99.44 40.2228 98.84 40.5428 98.2L41.6828 96H44.0828L40.8028 101.52L44.3428 107H41.8428L40.4028 104.68C40.0428 104.02 39.6428 103.36 39.2628 102.74H39.1628C38.8028 103.36 38.4828 104.02 38.1228 104.68L36.8628 107H34.4428Z" fill="#333333"/>
<path d="M23.7925 111.46V95.9997H25.6725L25.8725 97.2197H25.9325C26.8925 96.3997 28.0725 95.7197 29.3125 95.7197C32.0925 95.7197 33.6725 97.9397 33.6725 101.34C33.6725 105.1 31.4125 107.28 28.9325 107.28C27.9525 107.28 26.9525 106.84 26.0325 106.04L26.1125 107.9V111.46H23.7925ZM28.4925 105.36C30.0725 105.36 31.2925 103.94 31.2925 101.36C31.2925 99.0597 30.5325 97.6397 28.6925 97.6397C27.8525 97.6397 27.0325 98.0997 26.1125 98.9797V104.36C26.9725 105.1 27.8125 105.36 28.4925 105.36Z" fill="#333333"/>
<path d="M16.3662 107.28C13.4262 107.28 11.6062 104.62 11.6062 99.7999C11.6062 94.9599 13.4262 92.4199 16.3662 92.4199C19.2862 92.4199 21.1262 94.9799 21.1262 99.7999C21.1262 104.62 19.2862 107.28 16.3662 107.28ZM16.3662 105.44C17.8662 105.44 18.9062 103.9 18.9062 99.7999C18.9062 95.6799 17.8662 94.2399 16.3662 94.2399C14.8662 94.2399 13.8062 95.6799 13.8062 99.7999C13.8062 103.9 14.8662 105.44 16.3662 105.44Z" fill="#333333"/>
<path d="M0.12 107V105.66C4.22 101.64 6.7 99.0999 6.7 96.8399C6.7 95.2799 5.86 94.2599 4.22 94.2599C3.06 94.2599 2.1 94.9999 1.32 95.8799L0 94.5999C1.28 93.2399 2.58 92.4199 4.5 92.4199C7.2 92.4199 8.94 94.1199 8.94 96.7399C8.94 99.3399 6.54 101.98 3.48 105.2C4.24 105.12 5.16 105.04 5.9 105.04H9.64V107H0.12Z" fill="#333333"/>
<path d="M26.7863 130L29.6183 125.424L26.9943 121.2H28.9783L30.0343 122.96C30.2903 123.472 30.5783 123.952 30.8663 124.448H30.9303C31.1703 123.952 31.4103 123.472 31.6663 122.96L32.5783 121.2H34.4983L31.8743 125.616L34.7063 130H32.7063L31.5543 128.144C31.2663 127.616 30.9463 127.088 30.6423 126.592H30.5623C30.2743 127.088 30.0183 127.616 29.7303 128.144L28.7223 130H26.7863Z" fill="#333333"/>
<path d="M18.266 133.568V121.2H19.77L19.93 122.176H19.978C20.746 121.52 21.69 120.976 22.682 120.976C24.906 120.976 26.17 122.752 26.17 125.472C26.17 128.48 24.362 130.224 22.378 130.224C21.594 130.224 20.794 129.872 20.058 129.232L20.122 130.72V133.568H18.266ZM22.026 128.688C23.29 128.688 24.266 127.552 24.266 125.488C24.266 123.648 23.658 122.512 22.186 122.512C21.514 122.512 20.858 122.88 20.122 123.584V127.888C20.81 128.48 21.482 128.688 22.026 128.688Z" fill="#333333"/>
<path d="M12.661 130.224C10.405 130.224 8.58099 128.448 8.58099 124.656C8.58099 120.144 10.709 118.336 13.029 118.336C14.357 118.336 15.317 118.896 15.989 119.584L14.981 120.72C14.549 120.208 13.829 119.856 13.125 119.856C11.589 119.856 10.309 121.056 10.309 124.656C10.309 127.488 11.205 128.8 12.629 128.8C13.669 128.8 14.469 127.936 14.469 126.496C14.469 125.088 13.781 124.304 12.533 124.304C11.829 124.304 10.997 124.704 10.277 125.808L10.213 124.448C10.901 123.52 11.973 122.96 12.853 122.96C14.837 122.96 16.181 124.128 16.181 126.496C16.181 128.752 14.565 130.224 12.661 130.224Z" fill="#333333"/>
<path d="M0 130V128.48H2.592V120.624H0.464V119.456C1.584 119.248 2.352 118.96 3.04 118.544H4.432V128.48H6.736V130H0Z" fill="#333333"/>
<path d="M23.438 149L25.916 144.996L23.62 141.3H25.356L26.28 142.84C26.504 143.288 26.756 143.708 27.008 144.142H27.064C27.274 143.708 27.484 143.288 27.708 142.84L28.506 141.3H30.186L27.89 145.164L30.368 149H28.618L27.61 147.376C27.358 146.914 27.078 146.452 26.812 146.018H26.742C26.49 146.452 26.266 146.914 26.014 147.376L25.132 149H23.438Z" fill="#333333"/>
<path d="M15.9828 152.122V141.3H17.2988L17.4388 142.154H17.4808C18.1528 141.58 18.9788 141.104 19.8468 141.104C21.7928 141.104 22.8988 142.658 22.8988 145.038C22.8988 147.67 21.3168 149.196 19.5808 149.196C18.8948 149.196 18.1948 148.888 17.5508 148.328L17.6068 149.63V152.122H15.9828ZM19.2728 147.852C20.3788 147.852 21.2328 146.858 21.2328 145.052C21.2328 143.442 20.7008 142.448 19.4128 142.448C18.8248 142.448 18.2508 142.77 17.6068 143.386V147.152C18.2088 147.67 18.7968 147.852 19.2728 147.852Z" fill="#333333"/>
<path d="M11.5264 149V142.574C11.5264 142.014 11.5684 141.104 11.6104 140.544H11.5404C11.2884 141.048 11.0084 141.524 10.7144 142.056L8.69837 145.094H14.3544V146.354H7.07437V145.262L11.1624 138.976H13.0384V149H11.5264Z" fill="#333333"/>
<path d="M0 149V147.67H2.268V140.796H0.406V139.774C1.386 139.592 2.058 139.34 2.66 138.976H3.878V147.67H5.894V149H0Z" fill="#333333"/>
<path d="M20.0897 168L22.2137 164.568L20.2457 161.4H21.7337L22.5257 162.72C22.7177 163.104 22.9337 163.464 23.1497 163.836H23.1977C23.3777 163.464 23.5577 163.104 23.7497 162.72L24.4337 161.4H25.8737L23.9057 164.712L26.0297 168H24.5297L23.6657 166.608C23.4497 166.212 23.2097 165.816 22.9817 165.444H22.9217C22.7057 165.816 22.5137 166.212 22.2977 166.608L21.5417 168H20.0897Z" fill="#333333"/>
<path d="M13.6995 170.676V161.4H14.8275L14.9475 162.132H14.9835C15.5595 161.64 16.2675 161.232 17.0115 161.232C18.6795 161.232 19.6275 162.564 19.6275 164.604C19.6275 166.86 18.2715 168.168 16.7835 168.168C16.1955 168.168 15.5955 167.904 15.0435 167.424L15.0915 168.54V170.676H13.6995ZM16.5195 167.016C17.4675 167.016 18.1995 166.164 18.1995 164.616C18.1995 163.236 17.7435 162.384 16.6395 162.384C16.1355 162.384 15.6435 162.66 15.0915 163.188V166.416C15.6075 166.86 16.1115 167.016 16.5195 167.016Z" fill="#333333"/>
<path d="M6.33975 168V167.196C8.79975 164.784 10.2877 163.26 10.2877 161.904C10.2877 160.968 9.78375 160.356 8.79975 160.356C8.10375 160.356 7.52775 160.8 7.05975 161.328L6.26775 160.56C7.03575 159.744 7.81575 159.252 8.96775 159.252C10.5877 159.252 11.6317 160.272 11.6317 161.844C11.6317 163.404 10.1917 164.988 8.35575 166.92C8.81175 166.872 9.36375 166.824 9.80775 166.824H12.0517V168H6.33975Z" fill="#333333"/>
<path d="M0 168V166.86H1.944V160.968H0.348V160.092C1.188 159.936 1.764 159.72 2.28 159.408H3.324V166.86H5.052V168H0Z" fill="#333333"/>
</svg>
