<svg width="421" height="172" viewBox="0 0 421 172" fill="none" xmlns="http://www.w3.org/2000/svg">
<path d="M198.236 77.9998L202.484 71.1358L198.548 64.7998H201.524L203.108 67.4398C203.492 68.2078 203.924 68.9278 204.356 69.6718H204.452C204.812 68.9278 205.172 68.2078 205.556 67.4398L206.924 64.7998H209.804L205.868 71.4238L210.116 77.9998H207.116L205.388 75.2158C204.956 74.4238 204.476 73.6318 204.02 72.8878H203.9C203.468 73.6318 203.084 74.4238 202.652 75.2158L201.14 77.9998H198.236Z" fill="#333333"/>
<path d="M185.455 83.3519V64.7999H187.711L187.951 66.2639H188.023C189.175 65.2799 190.591 64.4639 192.079 64.4639C195.415 64.4639 197.311 67.1279 197.311 71.2079C197.311 75.7199 194.599 78.3359 191.623 78.3359C190.447 78.3359 189.247 77.8079 188.143 76.8479L188.239 79.0799V83.3519H185.455ZM191.095 76.0319C192.991 76.0319 194.455 74.3279 194.455 71.2319C194.455 68.4719 193.543 66.7679 191.335 66.7679C190.327 66.7679 189.343 67.3199 188.239 68.3759V74.8319C189.271 75.7199 190.279 76.0319 191.095 76.0319Z" fill="#333333"/>
<path d="M177.816 77.9994V66.9834C177.816 66.0234 177.888 64.4634 177.96 63.5034H177.84C177.408 64.3674 176.928 65.1834 176.424 66.0954L172.968 71.3034H182.664V73.4634H170.184V71.5914L177.192 60.8154H180.408V77.9994H177.816Z" fill="#333333"/>
<path d="M157.048 77.9999V76.3919C161.968 71.5679 164.944 68.5199 164.944 65.8079C164.944 63.9359 163.936 62.7119 161.968 62.7119C160.576 62.7119 159.424 63.5999 158.488 64.6559L156.904 63.1199C158.44 61.4879 160 60.5039 162.304 60.5039C165.544 60.5039 167.632 62.5439 167.632 65.6879C167.632 68.8079 164.752 71.9759 161.08 75.8399C161.992 75.7439 163.096 75.6479 163.984 75.6479H168.472V77.9999H157.048Z" fill="#333333"/>
<path d="M137.18 77.999V60.335H142.964C146.612 60.335 149.348 61.631 149.348 65.471C149.348 69.167 146.612 70.871 142.964 70.871H139.988V77.999H137.18ZM139.988 68.639H142.652C145.196 68.639 146.588 67.583 146.588 65.471C146.588 63.335 145.196 62.591 142.652 62.591H139.988V68.639ZM146.852 77.999L142.436 70.151L144.5 68.519L149.972 77.999H146.852Z" fill="#333333"/>
<path d="M121.242 77.999V60.335H124.05V68.687H124.098L130.818 60.335H133.938L128.466 67.151L134.826 77.999H131.754L126.762 69.359L124.05 72.695V77.999H121.242Z" fill="#333333"/>
<path d="M107.68 78.3359C105.856 78.3359 103.984 77.5679 102.712 76.5119L104.008 74.7119C105.184 75.6239 106.312 76.2239 107.752 76.2239C109.312 76.2239 110.056 75.4559 110.056 74.4479C110.056 73.2719 108.568 72.7199 107.152 72.1919C105.376 71.5199 103.432 70.5839 103.432 68.3279C103.432 66.1199 105.208 64.4639 108.16 64.4639C109.912 64.4639 111.376 65.1839 112.432 66.0239L111.136 67.7279C110.224 67.0799 109.288 66.5759 108.208 66.5759C106.744 66.5759 106.072 67.2959 106.072 68.2079C106.072 69.3359 107.344 69.7679 108.808 70.2959C110.656 70.9919 112.672 71.8319 112.672 74.3039C112.672 76.5359 110.92 78.3359 107.68 78.3359Z" fill="#333333"/>
<path d="M89.1038 77.9999V64.7999H91.3598L91.5998 66.6479H91.6718C92.8718 65.4479 94.2398 64.4639 96.0398 64.4639C98.8478 64.4639 100.096 66.3599 100.096 69.6959V77.9999H97.3118V70.0559C97.3118 67.7519 96.6398 66.8639 95.1038 66.8639C93.8798 66.8639 93.0398 67.4879 91.8878 68.6399V77.9999H89.1038Z" fill="#333333"/>
<path d="M78.4191 78.3359C76.1631 78.3359 74.5551 76.8239 74.5551 74.4959C74.5551 71.6639 76.9551 70.1999 82.4271 69.5999C82.4031 68.0639 81.8511 66.7199 79.9311 66.7199C78.5391 66.7199 77.2191 67.3679 76.1151 68.0879L75.0831 66.1919C76.4271 65.3519 78.2991 64.4639 80.4111 64.4639C83.6991 64.4639 85.2111 66.5519 85.2111 70.0799V77.9999H82.9311L82.7151 76.5119H82.6191C81.4191 77.5439 80.0031 78.3359 78.4191 78.3359ZM79.2831 76.1279C80.4351 76.1279 81.3471 75.5999 82.4271 74.5919V71.3759C78.5151 71.8319 77.2191 72.8159 77.2191 74.3039C77.2191 75.5999 78.1071 76.1279 79.2831 76.1279Z" fill="#333333"/>
<path d="M66.0015 78.3354C63.5535 78.3354 61.3215 77.3754 59.7135 75.7434L61.3455 73.7994C62.5935 75.0714 64.3455 75.8874 66.0495 75.8874C68.1615 75.8874 69.3615 74.9034 69.3615 73.3914C69.3615 71.7834 68.1615 71.2794 66.5295 70.5834L64.0815 69.5034C62.3775 68.8074 60.5055 67.4634 60.5055 64.8954C60.5055 62.1114 62.9295 60.0234 66.2895 60.0234C68.3775 60.0234 70.3215 60.8874 71.6415 62.2554L70.2015 64.0074C69.0975 63.0474 67.8495 62.4474 66.2895 62.4474C64.4895 62.4474 63.3375 63.3114 63.3375 64.7034C63.3375 66.2154 64.7535 66.7914 66.1935 67.3914L68.6175 68.3994C70.7055 69.2874 72.2175 70.5834 72.2175 73.1754C72.2175 76.0074 69.8655 78.3354 66.0015 78.3354Z" fill="#333333"/>
<path d="M45.8453 78.3359C42.5573 78.3359 39.6293 75.7919 39.6293 71.4239C39.6293 67.0079 42.5573 64.4639 45.8453 64.4639C49.1093 64.4639 52.0613 67.0079 52.0613 71.4239C52.0613 75.7919 49.1093 78.3359 45.8453 78.3359ZM45.8453 76.0559C47.9093 76.0559 49.2293 74.2079 49.2293 71.4239C49.2293 68.6159 47.9093 66.7679 45.8453 66.7679C43.7573 66.7679 42.4853 68.6159 42.4853 71.4239C42.4853 74.2079 43.7573 76.0559 45.8453 76.0559Z" fill="#333333"/>
<path d="M35.9578 78.3354C33.0058 78.3354 31.9498 76.4634 31.9498 73.7034V67.0074H30.0298V64.9434L32.0938 64.7994L32.4058 61.1514H34.7098V64.7994H38.1658V67.0074H34.7098V73.7274C34.7098 75.2874 35.2858 76.1274 36.6538 76.1274C37.1098 76.1274 37.6618 75.9594 38.0698 75.7914L38.5738 77.8314C37.8298 78.0714 36.9418 78.3354 35.9578 78.3354Z" fill="#333333"/>
<path d="M22.689 78.3359C19.401 78.3359 16.473 75.7919 16.473 71.4239C16.473 67.0079 19.401 64.4639 22.689 64.4639C25.953 64.4639 28.905 67.0079 28.905 71.4239C28.905 75.7919 25.953 78.3359 22.689 78.3359ZM22.689 76.0559C24.753 76.0559 26.073 74.2079 26.073 71.4239C26.073 68.6159 24.753 66.7679 22.689 66.7679C20.601 66.7679 19.329 68.6159 19.329 71.4239C19.329 74.2079 20.601 76.0559 22.689 76.0559Z" fill="#333333"/>
<path d="M1.52588e-05 77.999V60.335H2.85602L8.73602 70.727L10.584 74.447H10.704C10.536 72.647 10.32 70.487 10.32 68.591V60.335H12.984V77.999H10.104L4.27202 67.607L2.42402 63.887H2.30402C2.42402 65.735 2.66402 67.751 2.66402 69.695V77.999H1.52588e-05Z" fill="#333333"/>
<path d="M396.471 35.9996L404.967 22.2716L397.095 9.59961H403.047L406.215 14.8796C406.983 16.4156 407.847 17.8556 408.711 19.3436H408.903C409.623 17.8556 410.343 16.4156 411.111 14.8796L413.847 9.59961H419.607L411.735 22.8476L420.231 35.9996H414.231L410.775 30.4316C409.911 28.8476 408.951 27.2636 408.039 25.7756H407.799C406.935 27.2636 406.167 28.8476 405.303 30.4316L402.279 35.9996H396.471Z" fill="#333333"/>
<path d="M370.911 46.7037V9.59973H375.423L375.903 12.5277H376.047C378.351 10.5597 381.183 8.92773 384.159 8.92773C390.831 8.92773 394.623 14.2557 394.623 22.4157C394.623 31.4397 389.199 36.6717 383.247 36.6717C380.895 36.6717 378.495 35.6157 376.287 33.6957L376.479 38.1597V46.7037H370.911ZM382.191 32.0637C385.983 32.0637 388.911 28.6557 388.911 22.4637C388.911 16.9437 387.087 13.5357 382.671 13.5357C380.655 13.5357 378.687 14.6397 376.479 16.7517V29.6637C378.543 31.4397 380.559 32.0637 382.191 32.0637Z" fill="#333333"/>
<path d="M353.136 36.6718C346.464 36.6718 341.616 32.7358 341.616 27.2638C341.616 22.8478 344.688 19.9198 347.904 18.1918V17.9998C345.312 16.1758 343.152 13.6318 343.152 10.0318C343.152 4.55981 347.472 1.00781 353.28 1.00781C359.424 1.00781 363.216 4.75181 363.216 10.2238C363.216 13.7278 360.768 16.6558 358.608 18.2398V18.4798C361.728 20.3038 364.56 22.7998 364.56 27.4078C364.56 32.6398 359.952 36.6718 353.136 36.6718ZM355.44 16.8958C357.504 14.9278 358.608 12.8638 358.608 10.5118C358.608 7.39181 356.592 4.99181 353.184 4.99181C350.304 4.99181 348.144 6.91181 348.144 10.0318C348.144 13.7278 351.504 15.3118 355.44 16.8958ZM353.232 32.6398C356.832 32.6398 359.328 30.5278 359.328 27.2158C359.328 23.1838 355.392 21.7918 350.64 19.8238C348.24 21.5038 346.464 23.8078 346.464 26.6878C346.464 30.1918 349.392 32.6398 353.232 32.6398Z" fill="#333333"/>
<path d="M328.257 35.9998V13.9678C328.257 12.0478 328.401 8.92784 328.545 7.00784H328.305C327.441 8.73584 326.481 10.3678 325.473 12.1918L318.561 22.6078H337.953V26.9278H312.993V23.1838L327.009 1.63184H333.441V35.9998H328.257Z" fill="#333333"/>
<path d="M274.359 35.9999V0.671875H285.927C293.223 0.671875 298.695 3.26388 298.695 10.9439C298.695 18.3359 293.223 21.7439 285.927 21.7439H279.975V35.9999H274.359ZM279.975 17.2799H285.303C290.391 17.2799 293.175 15.1679 293.175 10.9439C293.175 6.67188 290.391 5.18388 285.303 5.18388H279.975V17.2799ZM293.703 35.9999L284.871 20.3039L288.999 17.0399L299.943 35.9999H293.703Z" fill="#333333"/>
<path d="M242.484 35.9999V0.671875H248.1V17.3759H248.196L261.636 0.671875H267.876L256.932 14.3039L269.652 35.9999H263.508L253.524 18.7199L248.1 25.3919V35.9999H242.484Z" fill="#333333"/>
<path d="M215.361 36.6717C211.713 36.6717 207.969 35.1357 205.425 33.0237L208.017 29.4237C210.369 31.2477 212.625 32.4477 215.505 32.4477C218.625 32.4477 220.113 30.9117 220.113 28.8957C220.113 26.5437 217.137 25.4397 214.305 24.3837C210.753 23.0397 206.865 21.1677 206.865 16.6557C206.865 12.2397 210.417 8.92773 216.321 8.92773C219.825 8.92773 222.753 10.3677 224.865 12.0477L222.273 15.4557C220.449 14.1597 218.577 13.1517 216.417 13.1517C213.489 13.1517 212.145 14.5917 212.145 16.4157C212.145 18.6717 214.689 19.5357 217.617 20.5917C221.313 21.9837 225.345 23.6637 225.345 28.6077C225.345 33.0717 221.841 36.6717 215.361 36.6717Z" fill="#333333"/>
<path d="M178.208 35.9997V9.59973H182.72L183.2 13.2957H183.344C185.744 10.8957 188.48 8.92773 192.08 8.92773C197.696 8.92773 200.192 12.7197 200.192 19.3917V35.9997H194.624V20.1117C194.624 15.5037 193.28 13.7277 190.208 13.7277C187.76 13.7277 186.08 14.9757 183.776 17.2797V35.9997H178.208Z" fill="#333333"/>
<path d="M156.838 36.6717C152.326 36.6717 149.11 33.6477 149.11 28.9917C149.11 23.3277 153.91 20.3997 164.854 19.1997C164.806 16.1277 163.702 13.4397 159.862 13.4397C157.078 13.4397 154.438 14.7357 152.23 16.1757L150.166 12.3837C152.854 10.7037 156.598 8.92773 160.822 8.92773C167.398 8.92773 170.422 13.1037 170.422 20.1597V35.9997H165.862L165.43 33.0237H165.238C162.838 35.0877 160.006 36.6717 156.838 36.6717ZM158.566 32.2557C160.87 32.2557 162.694 31.1997 164.854 29.1837V22.7517C157.03 23.6637 154.438 25.6317 154.438 28.6077C154.438 31.1997 156.214 32.2557 158.566 32.2557Z" fill="#333333"/>
<path d="M132.003 36.6719C127.107 36.6719 122.643 34.7519 119.427 31.4879L122.691 27.5998C125.187 30.1438 128.691 31.7759 132.099 31.7759C136.323 31.7759 138.723 29.8079 138.723 26.7839C138.723 23.5679 136.323 22.5599 133.059 21.1679L128.163 19.0079C124.755 17.6158 121.011 14.9279 121.011 9.79185C121.011 4.22385 125.859 0.0478516 132.579 0.0478516C136.755 0.0478516 140.643 1.77585 143.283 4.51185L140.403 8.01585C138.195 6.09585 135.699 4.89585 132.579 4.89585C128.979 4.89585 126.675 6.62385 126.675 9.40785C126.675 12.4318 129.507 13.5838 132.387 14.7838L137.235 16.7999C141.411 18.5759 144.435 21.1679 144.435 26.3519C144.435 32.0159 139.731 36.6719 132.003 36.6719Z" fill="#333333"/>
<path d="M91.6905 36.6717C85.1145 36.6717 79.2585 31.5837 79.2585 22.8477C79.2585 14.0157 85.1145 8.92773 91.6905 8.92773C98.2185 8.92773 104.123 14.0157 104.123 22.8477C104.123 31.5837 98.2185 36.6717 91.6905 36.6717ZM91.6905 32.1117C95.8185 32.1117 98.4585 28.4157 98.4585 22.8477C98.4585 17.2317 95.8185 13.5357 91.6905 13.5357C87.5145 13.5357 84.9705 17.2317 84.9705 22.8477C84.9705 28.4157 87.5145 32.1117 91.6905 32.1117Z" fill="#333333"/>
<path d="M71.9156 36.6717C66.0116 36.6717 63.8996 32.9277 63.8996 27.4077V14.0157H60.0596V9.88771L64.1876 9.59971L64.8116 2.30371H69.4196V9.59971H76.3316V14.0157H69.4196V27.4557C69.4196 30.5757 70.5716 32.2557 73.3076 32.2557C74.2196 32.2557 75.3236 31.9197 76.1396 31.5837L77.1476 35.6637C75.6596 36.1437 73.8836 36.6717 71.9156 36.6717Z" fill="#333333"/>
<path d="M45.378 36.6717C38.802 36.6717 32.946 31.5837 32.946 22.8477C32.946 14.0157 38.802 8.92773 45.378 8.92773C51.906 8.92773 57.81 14.0157 57.81 22.8477C57.81 31.5837 51.906 36.6717 45.378 36.6717ZM45.378 32.1117C49.506 32.1117 52.146 28.4157 52.146 22.8477C52.146 17.2317 49.506 13.5357 45.378 13.5357C41.202 13.5357 38.658 17.2317 38.658 22.8477C38.658 28.4157 41.202 32.1117 45.378 32.1117Z" fill="#333333"/>
<path d="M1.52588e-05 35.9999V0.671875H5.71202L17.472 21.4559L21.168 28.8959H21.408C21.072 25.2959 20.64 20.9759 20.64 17.1839V0.671875H25.968V35.9999H20.208L8.54402 15.2159L4.84802 7.77588H4.60802C4.84802 11.4719 5.32802 15.5039 5.32802 19.3919V35.9999H1.52588e-05Z" fill="#333333"/>
<path d="M165.196 108L168.736 102.28L165.456 97H167.936L169.256 99.2C169.576 99.84 169.936 100.44 170.296 101.06H170.376C170.676 100.44 170.976 99.84 171.296 99.2L172.436 97H174.836L171.556 102.52L175.096 108H172.596L171.156 105.68C170.796 105.02 170.396 104.36 170.016 103.74H169.916C169.556 104.36 169.236 105.02 168.876 105.68L167.616 108H165.196Z" fill="#333333"/>
<path d="M154.546 112.46V96.9997H156.426L156.626 98.2197H156.686C157.646 97.3997 158.826 96.7197 160.066 96.7197C162.846 96.7197 164.426 98.9397 164.426 102.34C164.426 106.1 162.166 108.28 159.686 108.28C158.706 108.28 157.706 107.84 156.786 107.04L156.866 108.9V112.46H154.546ZM159.246 106.36C160.826 106.36 162.046 104.94 162.046 102.36C162.046 100.06 161.286 98.6397 159.446 98.6397C158.606 98.6397 157.786 99.0997 156.866 99.9797V105.36C157.726 106.1 158.566 106.36 159.246 106.36Z" fill="#333333"/>
<path d="M147.12 108.28C144.18 108.28 142.36 105.62 142.36 100.8C142.36 95.9599 144.18 93.4199 147.12 93.4199C150.04 93.4199 151.88 95.9799 151.88 100.8C151.88 105.62 150.04 108.28 147.12 108.28ZM147.12 106.44C148.62 106.44 149.66 104.9 149.66 100.8C149.66 96.6799 148.62 95.2399 147.12 95.2399C145.62 95.2399 144.56 96.6799 144.56 100.8C144.56 104.9 145.62 106.44 147.12 106.44Z" fill="#333333"/>
<path d="M130.874 108V106.66C134.974 102.64 137.454 100.1 137.454 97.8399C137.454 96.2799 136.614 95.2599 134.974 95.2599C133.814 95.2599 132.854 95.9999 132.074 96.8799L130.754 95.5999C132.034 94.2399 133.334 93.4199 135.254 93.4199C137.954 93.4199 139.694 95.1199 139.694 97.7399C139.694 100.34 137.294 102.98 134.234 106.2C134.994 106.12 135.914 106.04 136.654 106.04H140.394V108H130.874Z" fill="#333333"/>
<path d="M114.316 107.999V93.2793H119.136C122.176 93.2793 124.456 94.3593 124.456 97.5593C124.456 100.639 122.176 102.059 119.136 102.059H116.656V107.999H114.316ZM116.656 100.199H118.876C120.996 100.199 122.156 99.3193 122.156 97.5593C122.156 95.7793 120.996 95.1593 118.876 95.1593H116.656V100.199ZM122.376 107.999L118.696 101.459L120.416 100.099L124.976 107.999H122.376Z" fill="#333333"/>
<path d="M101.035 107.999V93.2793H103.375V100.239H103.415L109.015 93.2793H111.615L107.055 98.9593L112.355 107.999H109.795L105.635 100.799L103.375 103.579V107.999H101.035Z" fill="#333333"/>
<path d="M89.7336 108.28C88.2136 108.28 86.6536 107.64 85.5936 106.76L86.6736 105.26C87.6536 106.02 88.5936 106.52 89.7936 106.52C91.0936 106.52 91.7136 105.88 91.7136 105.04C91.7136 104.06 90.4736 103.6 89.2936 103.16C87.8136 102.6 86.1936 101.82 86.1936 99.9397C86.1936 98.0997 87.6736 96.7197 90.1336 96.7197C91.5936 96.7197 92.8136 97.3197 93.6936 98.0197L92.6136 99.4397C91.8536 98.8997 91.0736 98.4797 90.1736 98.4797C88.9536 98.4797 88.3936 99.0797 88.3936 99.8397C88.3936 100.78 89.4536 101.14 90.6736 101.58C92.2136 102.16 93.8936 102.86 93.8936 104.92C93.8936 106.78 92.4336 108.28 89.7336 108.28Z" fill="#333333"/>
<path d="M74.2531 108V96.9997H76.1331L76.3331 98.5397H76.3931C77.3931 97.5397 78.5331 96.7197 80.0331 96.7197C82.3731 96.7197 83.4131 98.2997 83.4131 101.08V108H81.0931V101.38C81.0931 99.4597 80.5331 98.7197 79.2531 98.7197C78.2331 98.7197 77.5331 99.2397 76.5731 100.2V108H74.2531Z" fill="#333333"/>
<path d="M65.3492 108.28C63.4692 108.28 62.1292 107.02 62.1292 105.08C62.1292 102.72 64.1292 101.5 68.6892 101C68.6692 99.7197 68.2092 98.5997 66.6092 98.5997C65.4492 98.5997 64.3492 99.1397 63.4292 99.7397L62.5692 98.1597C63.6892 97.4597 65.2492 96.7197 67.0092 96.7197C69.7492 96.7197 71.0092 98.4597 71.0092 101.4V108H69.1092L68.9292 106.76H68.8492C67.8492 107.62 66.6692 108.28 65.3492 108.28ZM66.0692 106.44C67.0292 106.44 67.7892 106 68.6892 105.16V102.48C65.4292 102.86 64.3492 103.68 64.3492 104.92C64.3492 106 65.0892 106.44 66.0692 106.44Z" fill="#333333"/>
<path d="M55.0013 108.28C52.9613 108.28 51.1013 107.48 49.7613 106.12L51.1213 104.5C52.1613 105.56 53.6213 106.24 55.0413 106.24C56.8013 106.24 57.8013 105.42 57.8013 104.16C57.8013 102.82 56.8013 102.4 55.4413 101.82L53.4013 100.92C51.9813 100.34 50.4213 99.2195 50.4213 97.0795C50.4213 94.7595 52.4413 93.0195 55.2413 93.0195C56.9813 93.0195 58.6013 93.7395 59.7013 94.8795L58.5013 96.3395C57.5813 95.5395 56.5413 95.0395 55.2413 95.0395C53.7413 95.0395 52.7813 95.7595 52.7813 96.9195C52.7813 98.1795 53.9613 98.6595 55.1613 99.1595L57.1813 99.9995C58.9213 100.74 60.1813 101.82 60.1813 103.98C60.1813 106.34 58.2213 108.28 55.0013 108.28Z" fill="#333333"/>
<path d="M38.2044 108.28C35.4644 108.28 33.0244 106.16 33.0244 102.52C33.0244 98.8397 35.4644 96.7197 38.2044 96.7197C40.9244 96.7197 43.3844 98.8397 43.3844 102.52C43.3844 106.16 40.9244 108.28 38.2044 108.28ZM38.2044 106.38C39.9244 106.38 41.0244 104.84 41.0244 102.52C41.0244 100.18 39.9244 98.6397 38.2044 98.6397C36.4644 98.6397 35.4044 100.18 35.4044 102.52C35.4044 104.84 36.4644 106.38 38.2044 106.38Z" fill="#333333"/>
<path d="M29.9648 108.28C27.5048 108.28 26.6248 106.72 26.6248 104.42V98.84H25.0248V97.12L26.7448 97L27.0048 93.96H28.9248V97H31.8048V98.84H28.9248V104.44C28.9248 105.74 29.4048 106.44 30.5448 106.44C30.9248 106.44 31.3848 106.3 31.7248 106.16L32.1448 107.86C31.5248 108.06 30.7848 108.28 29.9648 108.28Z" fill="#333333"/>
<path d="M18.9075 108.28C16.1675 108.28 13.7275 106.16 13.7275 102.52C13.7275 98.8397 16.1675 96.7197 18.9075 96.7197C21.6275 96.7197 24.0875 98.8397 24.0875 102.52C24.0875 106.16 21.6275 108.28 18.9075 108.28ZM18.9075 106.38C20.6275 106.38 21.7275 104.84 21.7275 102.52C21.7275 100.18 20.6275 98.6397 18.9075 98.6397C17.1675 98.6397 16.1075 100.18 16.1075 102.52C16.1075 104.84 17.1675 106.38 18.9075 106.38Z" fill="#333333"/>
<path d="M0 107.999V93.2793H2.38L7.28 101.939L8.82 105.039H8.92C8.78 103.539 8.6 101.739 8.6 100.159V93.2793H10.82V107.999H8.42L3.56 99.3393L2.02 96.2393H1.92C2.02 97.7793 2.22 99.4593 2.22 101.079V107.999H0Z" fill="#333333"/>
<path d="M132.157 130.999L134.989 126.423L132.365 122.199H134.349L135.405 123.959C135.661 124.471 135.949 124.951 136.237 125.447H136.301C136.541 124.951 136.781 124.471 137.037 123.959L137.949 122.199H139.869L137.245 126.615L140.077 130.999H138.077L136.925 129.143C136.637 128.615 136.317 128.087 136.013 127.591H135.933C135.645 128.087 135.389 128.615 135.101 129.143L134.093 130.999H132.157Z" fill="#333333"/>
<path d="M123.637 134.568V122.2H125.141L125.301 123.176H125.349C126.117 122.52 127.061 121.976 128.053 121.976C130.277 121.976 131.541 123.752 131.541 126.472C131.541 129.48 129.733 131.224 127.749 131.224C126.965 131.224 126.165 130.872 125.429 130.232L125.493 131.72V134.568H123.637ZM127.397 129.688C128.661 129.688 129.637 128.552 129.637 126.488C129.637 124.648 129.029 123.512 127.557 123.512C126.885 123.512 126.229 123.88 125.493 124.584V128.888C126.181 129.48 126.853 129.688 127.397 129.688Z" fill="#333333"/>
<path d="M118.032 131.224C115.776 131.224 113.952 129.448 113.952 125.656C113.952 121.144 116.08 119.336 118.4 119.336C119.728 119.336 120.688 119.896 121.36 120.584L120.352 121.72C119.92 121.208 119.2 120.856 118.496 120.856C116.96 120.856 115.68 122.056 115.68 125.656C115.68 128.488 116.576 129.8 118 129.8C119.04 129.8 119.84 128.936 119.84 127.496C119.84 126.088 119.152 125.304 117.904 125.304C117.2 125.304 116.368 125.704 115.648 126.808L115.584 125.448C116.272 124.52 117.344 123.96 118.224 123.96C120.208 123.96 121.552 125.128 121.552 127.496C121.552 129.752 119.936 131.224 118.032 131.224Z" fill="#333333"/>
<path d="M105.371 131V129.48H107.963V121.624H105.835V120.456C106.955 120.248 107.723 119.96 108.411 119.544H109.803V129.48H112.107V131H105.371Z" fill="#333333"/>
<path d="M91.4531 131V119.224H95.3091C97.7411 119.224 99.5651 120.088 99.5651 122.648C99.5651 125.112 97.7411 126.248 95.3091 126.248H93.3251V131H91.4531ZM93.3251 124.76H95.1011C96.7971 124.76 97.7251 124.056 97.7251 122.648C97.7251 121.224 96.7971 120.728 95.1011 120.728H93.3251V124.76ZM97.9011 131L94.9571 125.768L96.3331 124.68L99.9811 131H97.9011Z" fill="#333333"/>
<path d="M80.8281 131V119.224H82.7001V124.792H82.7321L87.2121 119.224H89.2921L85.6441 123.768L89.8841 131H87.8361L84.5081 125.24L82.7001 127.464V131H80.8281Z" fill="#333333"/>
<path d="M71.7869 131.224C70.5709 131.224 69.3229 130.712 68.4749 130.008L69.3389 128.808C70.1229 129.416 70.8749 129.816 71.8349 129.816C72.8749 129.816 73.3709 129.304 73.3709 128.632C73.3709 127.848 72.3789 127.48 71.4349 127.128C70.2509 126.68 68.9549 126.056 68.9549 124.552C68.9549 123.08 70.1389 121.976 72.1069 121.976C73.2749 121.976 74.2509 122.456 74.9549 123.016L74.0909 124.152C73.4829 123.72 72.8589 123.384 72.1389 123.384C71.1629 123.384 70.7149 123.864 70.7149 124.472C70.7149 125.224 71.5629 125.512 72.5389 125.864C73.7709 126.328 75.1149 126.888 75.1149 128.536C75.1149 130.024 73.9469 131.224 71.7869 131.224Z" fill="#333333"/>
<path d="M59.4025 131V122.2H60.9065L61.0665 123.432H61.1145C61.9145 122.632 62.8265 121.976 64.0265 121.976C65.8985 121.976 66.7305 123.24 66.7305 125.464V131H64.8745V125.704C64.8745 124.168 64.4265 123.576 63.4025 123.576C62.5865 123.576 62.0265 123.992 61.2585 124.76V131H59.4025Z" fill="#333333"/>
<path d="M52.2794 131.224C50.7754 131.224 49.7034 130.216 49.7034 128.664C49.7034 126.776 51.3034 125.8 54.9514 125.4C54.9354 124.376 54.5674 123.48 53.2874 123.48C52.3594 123.48 51.4794 123.912 50.7434 124.392L50.0554 123.128C50.9514 122.568 52.1994 121.976 53.6074 121.976C55.7994 121.976 56.8074 123.368 56.8074 125.72V131H55.2874L55.1434 130.008H55.0794C54.2794 130.696 53.3354 131.224 52.2794 131.224ZM52.8554 129.752C53.6234 129.752 54.2314 129.4 54.9514 128.728V126.584C52.3434 126.888 51.4794 127.544 51.4794 128.536C51.4794 129.4 52.0714 129.752 52.8554 129.752Z" fill="#333333"/>
<path d="M44.001 131.224C42.369 131.224 40.881 130.584 39.809 129.496L40.897 128.2C41.729 129.048 42.897 129.592 44.033 129.592C45.441 129.592 46.241 128.936 46.241 127.928C46.241 126.856 45.441 126.52 44.353 126.056L42.721 125.336C41.585 124.872 40.337 123.976 40.337 122.264C40.337 120.408 41.953 119.016 44.193 119.016C45.585 119.016 46.881 119.592 47.761 120.504L46.801 121.672C46.065 121.032 45.233 120.632 44.193 120.632C42.993 120.632 42.225 121.208 42.225 122.136C42.225 123.144 43.169 123.528 44.129 123.928L45.745 124.6C47.137 125.192 48.145 126.056 48.145 127.784C48.145 129.672 46.577 131.224 44.001 131.224Z" fill="#333333"/>
<path d="M30.5635 131.224C28.3715 131.224 26.4195 129.528 26.4195 126.616C26.4195 123.672 28.3715 121.976 30.5635 121.976C32.7395 121.976 34.7075 123.672 34.7075 126.616C34.7075 129.528 32.7395 131.224 30.5635 131.224ZM30.5635 129.704C31.9395 129.704 32.8195 128.472 32.8195 126.616C32.8195 124.744 31.9395 123.512 30.5635 123.512C29.1715 123.512 28.3235 124.744 28.3235 126.616C28.3235 128.472 29.1715 129.704 30.5635 129.704Z" fill="#333333"/>
<path d="M23.9719 131.224C22.0039 131.224 21.2999 129.976 21.2999 128.136V123.672H20.0199V122.296L21.3959 122.2L21.6039 119.768H23.1399V122.2H25.4439V123.672H23.1399V128.152C23.1399 129.192 23.5239 129.752 24.4359 129.752C24.7399 129.752 25.1079 129.64 25.3799 129.528L25.7159 130.888C25.2199 131.048 24.6279 131.224 23.9719 131.224Z" fill="#333333"/>
<path d="M15.126 131.224C12.934 131.224 10.982 129.528 10.982 126.616C10.982 123.672 12.934 121.976 15.126 121.976C17.302 121.976 19.27 123.672 19.27 126.616C19.27 129.528 17.302 131.224 15.126 131.224ZM15.126 129.704C16.502 129.704 17.382 128.472 17.382 126.616C17.382 124.744 16.502 123.512 15.126 123.512C13.734 123.512 12.886 124.744 12.886 126.616C12.886 128.472 13.734 129.704 15.126 129.704Z" fill="#333333"/>
<path d="M0 131V119.224H1.904L5.824 126.152L7.056 128.632H7.136C7.024 127.432 6.88 125.992 6.88 124.728V119.224H8.656V131H6.736L2.848 124.072L1.616 121.592H1.536C1.616 122.824 1.776 124.168 1.776 125.464V131H0Z" fill="#333333"/>
<path d="M115.637 150L118.115 145.996L115.819 142.3H117.555L118.479 143.84C118.703 144.288 118.955 144.708 119.207 145.142H119.263C119.473 144.708 119.683 144.288 119.907 143.84L120.705 142.3H122.385L120.089 146.164L122.567 150H120.817L119.809 148.376C119.557 147.914 119.277 147.452 119.011 147.018H118.941C118.689 147.452 118.465 147.914 118.213 148.376L117.331 150H115.637Z" fill="#333333"/>
<path d="M108.182 153.122V142.3H109.498L109.638 143.154H109.68C110.352 142.58 111.178 142.104 112.046 142.104C113.992 142.104 115.098 143.658 115.098 146.038C115.098 148.67 113.516 150.196 111.78 150.196C111.094 150.196 110.394 149.888 109.75 149.328L109.806 150.63V153.122H108.182ZM111.472 148.852C112.578 148.852 113.432 147.858 113.432 146.052C113.432 144.442 112.9 143.448 111.612 143.448C111.024 143.448 110.45 143.77 109.806 144.386V148.152C110.408 148.67 110.996 148.852 111.472 148.852Z" fill="#333333"/>
<path d="M103.726 150V143.574C103.726 143.014 103.768 142.104 103.81 141.544H103.74C103.488 142.048 103.208 142.524 102.914 143.056L100.898 146.094H106.554V147.354H99.2739V146.262L103.362 139.976H105.238V150H103.726Z" fill="#333333"/>
<path d="M92.1995 150V148.67H94.4675V141.796H92.6055V140.774C93.5855 140.592 94.2575 140.34 94.8595 139.976H96.0775V148.67H98.0935V150H92.1995Z" fill="#333333"/>
<path d="M80.0215 149.999V139.695H83.3955C85.5235 139.695 87.1195 140.451 87.1195 142.691C87.1195 144.847 85.5235 145.841 83.3955 145.841H81.6595V149.999H80.0215ZM81.6595 144.539H83.2135C84.6975 144.539 85.5095 143.923 85.5095 142.691C85.5095 141.445 84.6975 141.011 83.2135 141.011H81.6595V144.539ZM85.6635 149.999L83.0875 145.421L84.2915 144.469L87.4835 149.999H85.6635Z" fill="#333333"/>
<path d="M70.7246 149.999V139.695H72.3626V144.567H72.3906L76.3106 139.695H78.1306L74.9386 143.671L78.6486 149.999H76.8566L73.9446 144.959L72.3626 146.905V149.999H70.7246Z" fill="#333333"/>
<path d="M62.8135 150.196C61.7495 150.196 60.6575 149.748 59.9155 149.132L60.6715 148.082C61.3575 148.614 62.0155 148.964 62.8555 148.964C63.7655 148.964 64.1995 148.516 64.1995 147.928C64.1995 147.242 63.3315 146.92 62.5055 146.612C61.4695 146.22 60.3355 145.674 60.3355 144.358C60.3355 143.07 61.3715 142.104 63.0935 142.104C64.1155 142.104 64.9695 142.524 65.5855 143.014L64.8295 144.008C64.2975 143.63 63.7515 143.336 63.1215 143.336C62.2675 143.336 61.8755 143.756 61.8755 144.288C61.8755 144.946 62.6175 145.198 63.4715 145.506C64.5495 145.912 65.7255 146.402 65.7255 147.844C65.7255 149.146 64.7035 150.196 62.8135 150.196Z" fill="#333333"/>
<path d="M51.9772 150V142.3H53.2932L53.4332 143.378H53.4752C54.1752 142.678 54.9732 142.104 56.0232 142.104C57.6612 142.104 58.3892 143.21 58.3892 145.156V150H56.7652V145.366C56.7652 144.022 56.3732 143.504 55.4772 143.504C54.7632 143.504 54.2732 143.868 53.6012 144.54V150H51.9772Z" fill="#333333"/>
<path d="M45.7444 150.196C44.4284 150.196 43.4904 149.314 43.4904 147.956C43.4904 146.304 44.8904 145.45 48.0824 145.1C48.0684 144.204 47.7464 143.42 46.6264 143.42C45.8144 143.42 45.0444 143.798 44.4004 144.218L43.7984 143.112C44.5824 142.622 45.6744 142.104 46.9064 142.104C48.8244 142.104 49.7064 143.322 49.7064 145.38V150H48.3764L48.2504 149.132H48.1944C47.4944 149.734 46.6684 150.196 45.7444 150.196ZM46.2484 148.908C46.9204 148.908 47.4524 148.6 48.0824 148.012V146.136C45.8004 146.402 45.0444 146.976 45.0444 147.844C45.0444 148.6 45.5624 148.908 46.2484 148.908Z" fill="#333333"/>
<path d="M38.5009 150.196C37.0729 150.196 35.7709 149.636 34.8329 148.684L35.7849 147.55C36.5129 148.292 37.5349 148.768 38.5289 148.768C39.7609 148.768 40.4609 148.194 40.4609 147.312C40.4609 146.374 39.7609 146.08 38.8089 145.674L37.3809 145.044C36.3869 144.638 35.2949 143.854 35.2949 142.356C35.2949 140.732 36.7089 139.514 38.6689 139.514C39.8869 139.514 41.0209 140.018 41.7909 140.816L40.9509 141.838C40.3069 141.278 39.5789 140.928 38.6689 140.928C37.6189 140.928 36.9469 141.432 36.9469 142.244C36.9469 143.126 37.7729 143.462 38.6129 143.812L40.0269 144.4C41.2449 144.918 42.1269 145.674 42.1269 147.186C42.1269 148.838 40.7549 150.196 38.5009 150.196Z" fill="#333333"/>
<path d="M26.7431 150.196C24.8251 150.196 23.1171 148.712 23.1171 146.164C23.1171 143.588 24.8251 142.104 26.7431 142.104C28.6471 142.104 30.3691 143.588 30.3691 146.164C30.3691 148.712 28.6471 150.196 26.7431 150.196ZM26.7431 148.866C27.9471 148.866 28.7171 147.788 28.7171 146.164C28.7171 144.526 27.9471 143.448 26.7431 143.448C25.5251 143.448 24.7831 144.526 24.7831 146.164C24.7831 147.788 25.5251 148.866 26.7431 148.866Z" fill="#333333"/>
<path d="M20.9754 150.196C19.2534 150.196 18.6374 149.104 18.6374 147.494V143.588H17.5174V142.384L18.7214 142.3L18.9034 140.172H20.2474V142.3H22.2634V143.588H20.2474V147.508C20.2474 148.418 20.5834 148.908 21.3814 148.908C21.6474 148.908 21.9694 148.81 22.2074 148.712L22.5014 149.902C22.0674 150.042 21.5494 150.196 20.9754 150.196Z" fill="#333333"/>
<path d="M13.2353 150.196C11.3173 150.196 9.60925 148.712 9.60925 146.164C9.60925 143.588 11.3173 142.104 13.2353 142.104C15.1393 142.104 16.8613 143.588 16.8613 146.164C16.8613 148.712 15.1393 150.196 13.2353 150.196ZM13.2353 148.866C14.4393 148.866 15.2093 147.788 15.2093 146.164C15.2093 144.526 14.4393 143.448 13.2353 143.448C12.0173 143.448 11.2753 144.526 11.2753 146.164C11.2753 147.788 12.0173 148.866 13.2353 148.866Z" fill="#333333"/>
<path d="M0 149.999V139.695H1.666L5.096 145.757L6.174 147.927H6.244C6.146 146.877 6.02 145.617 6.02 144.511V139.695H7.574V149.999H5.894L2.492 143.937L1.414 141.767H1.344C1.414 142.845 1.554 144.021 1.554 145.155V149.999H0Z" fill="#333333"/>
<path d="M99.1178 168.999L101.242 165.567L99.2738 162.399H100.762L101.554 163.719C101.746 164.103 101.962 164.463 102.178 164.835H102.226C102.406 164.463 102.586 164.103 102.778 163.719L103.462 162.399H104.902L102.934 165.711L105.058 168.999H103.558L102.694 167.607C102.478 167.211 102.238 166.815 102.01 166.443H101.95C101.734 166.815 101.542 167.211 101.326 167.607L100.57 168.999H99.1178Z" fill="#333333"/>
<path d="M92.7277 171.675V162.399H93.8557L93.9757 163.131H94.0117C94.5877 162.639 95.2957 162.231 96.0397 162.231C97.7077 162.231 98.6557 163.563 98.6557 165.603C98.6557 167.859 97.2997 169.167 95.8117 169.167C95.2237 169.167 94.6237 168.903 94.0717 168.423L94.1197 169.539V171.675H92.7277ZM95.5477 168.015C96.4957 168.015 97.2277 167.163 97.2277 165.615C97.2277 164.235 96.7717 163.383 95.6677 163.383C95.1637 163.383 94.6717 163.659 94.1197 164.187V167.415C94.6357 167.859 95.1397 168.015 95.5477 168.015Z" fill="#333333"/>
<path d="M85.3679 169V168.196C87.8279 165.784 89.3159 164.26 89.3159 162.904C89.3159 161.968 88.8119 161.356 87.8279 161.356C87.1319 161.356 86.5559 161.8 86.0879 162.328L85.2959 161.56C86.0639 160.744 86.8439 160.252 87.9959 160.252C89.6159 160.252 90.6599 161.272 90.6599 162.844C90.6599 164.404 89.2199 165.988 87.3839 167.92C87.8399 167.872 88.3919 167.824 88.8359 167.824H91.0799V169H85.3679Z" fill="#333333"/>
<path d="M79.0282 169V167.86H80.9722V161.968H79.3762V161.092C80.2162 160.936 80.7922 160.72 81.3082 160.408H82.3522V167.86H84.0802V169H79.0282Z" fill="#333333"/>
<path d="M68.5898 169V160.168H71.4818C73.3058 160.168 74.6738 160.816 74.6738 162.736C74.6738 164.584 73.3058 165.436 71.4818 165.436H69.9938V169H68.5898ZM69.9938 164.32H71.3258C72.5978 164.32 73.2938 163.792 73.2938 162.736C73.2938 161.668 72.5978 161.296 71.3258 161.296H69.9938V164.32ZM73.4258 169L71.2178 165.076L72.2498 164.26L74.9858 169H73.4258Z" fill="#333333"/>
<path d="M60.6211 169V160.168H62.0251V164.344H62.0491L65.4091 160.168H66.9691L64.2331 163.576L67.4131 169H65.8771L63.3811 164.68L62.0251 166.348V169H60.6211Z" fill="#333333"/>
<path d="M53.8402 169.167C52.9282 169.167 51.9922 168.783 51.3562 168.255L52.0042 167.355C52.5922 167.811 53.1562 168.111 53.8762 168.111C54.6562 168.111 55.0282 167.727 55.0282 167.223C55.0282 166.635 54.2842 166.359 53.5762 166.095C52.6882 165.759 51.7162 165.291 51.7162 164.163C51.7162 163.059 52.6042 162.231 54.0802 162.231C54.9562 162.231 55.6882 162.591 56.2162 163.011L55.5682 163.863C55.1122 163.539 54.6442 163.287 54.1042 163.287C53.3722 163.287 53.0362 163.647 53.0362 164.103C53.0362 164.667 53.6722 164.883 54.4042 165.147C55.3282 165.495 56.3362 165.915 56.3362 167.151C56.3362 168.267 55.4602 169.167 53.8402 169.167Z" fill="#333333"/>
<path d="M44.5519 168.999V162.399H45.6799L45.7999 163.323H45.8359C46.4359 162.723 47.1199 162.231 48.0199 162.231C49.4239 162.231 50.0479 163.179 50.0479 164.847V168.999H48.6559V165.027C48.6559 163.875 48.3199 163.431 47.5519 163.431C46.9399 163.431 46.5199 163.743 45.9439 164.319V168.999H44.5519Z" fill="#333333"/>
<path d="M39.2095 169.167C38.0815 169.167 37.2775 168.411 37.2775 167.247C37.2775 165.831 38.4775 165.099 41.2135 164.799C41.2015 164.031 40.9255 163.359 39.9655 163.359C39.2695 163.359 38.6095 163.683 38.0575 164.043L37.5415 163.095C38.2135 162.675 39.1495 162.231 40.2055 162.231C41.8495 162.231 42.6055 163.275 42.6055 165.039V168.999H41.4655L41.3575 168.255H41.3095C40.7095 168.771 40.0015 169.167 39.2095 169.167ZM39.6415 168.063C40.2175 168.063 40.6735 167.799 41.2135 167.295V165.687C39.2575 165.915 38.6095 166.407 38.6095 167.151C38.6095 167.799 39.0535 168.063 39.6415 168.063Z" fill="#333333"/>
<path d="M33.0008 169.168C31.7768 169.168 30.6608 168.688 29.8568 167.872L30.6728 166.9C31.2968 167.536 32.1727 167.944 33.0247 167.944C34.0807 167.944 34.6807 167.452 34.6807 166.696C34.6807 165.892 34.0808 165.64 33.2648 165.292L32.0407 164.752C31.1887 164.404 30.2528 163.732 30.2528 162.448C30.2528 161.056 31.4647 160.012 33.1447 160.012C34.1887 160.012 35.1608 160.444 35.8208 161.128L35.1007 162.004C34.5487 161.524 33.9247 161.224 33.1447 161.224C32.2447 161.224 31.6688 161.656 31.6688 162.352C31.6688 163.108 32.3767 163.396 33.0967 163.696L34.3088 164.2C35.3528 164.644 36.1087 165.292 36.1087 166.588C36.1087 168.004 34.9328 169.168 33.0008 169.168Z" fill="#333333"/>
<path d="M22.9226 169.167C21.2786 169.167 19.8146 167.895 19.8146 165.711C19.8146 163.503 21.2786 162.231 22.9226 162.231C24.5546 162.231 26.0306 163.503 26.0306 165.711C26.0306 167.895 24.5546 169.167 22.9226 169.167ZM22.9226 168.027C23.9546 168.027 24.6146 167.103 24.6146 165.711C24.6146 164.307 23.9546 163.383 22.9226 163.383C21.8786 163.383 21.2426 164.307 21.2426 165.711C21.2426 167.103 21.8786 168.027 22.9226 168.027Z" fill="#333333"/>
<path d="M17.9789 169.168C16.5029 169.168 15.9749 168.232 15.9749 166.852V163.504H15.0149V162.472L16.0469 162.4L16.2029 160.576H17.3549V162.4H19.0829V163.504H17.3549V166.864C17.3549 167.644 17.6429 168.064 18.3269 168.064C18.5549 168.064 18.8309 167.98 19.0349 167.896L19.2869 168.916C18.9149 169.036 18.4709 169.168 17.9789 169.168Z" fill="#333333"/>
<path d="M11.3445 169.167C9.7005 169.167 8.2365 167.895 8.2365 165.711C8.2365 163.503 9.7005 162.231 11.3445 162.231C12.9765 162.231 14.4525 163.503 14.4525 165.711C14.4525 167.895 12.9765 169.167 11.3445 169.167ZM11.3445 168.027C12.3765 168.027 13.0365 167.103 13.0365 165.711C13.0365 164.307 12.3765 163.383 11.3445 163.383C10.3005 163.383 9.6645 164.307 9.6645 165.711C9.6645 167.103 10.3005 168.027 11.3445 168.027Z" fill="#333333"/>
<path d="M0 169V160.168H1.428L4.368 165.364L5.292 167.224H5.352C5.268 166.324 5.16 165.244 5.16 164.296V160.168H6.492V169H5.052L2.136 163.804L1.212 161.944H1.152C1.212 162.868 1.332 163.876 1.332 164.848V169H0Z" fill="#333333"/>
</svg>
