<svg width="62" height="215" viewBox="0 0 62 215" fill="none" xmlns="http://www.w3.org/2000/svg">
<path d="M47.3359 6.26367H50.3599L54.2959 11.3277L58.2799 6.26367H61.1359L55.8079 12.9837L61.4239 19.9917H58.3999L54.1999 14.6877L49.9999 19.9917H47.1439L52.6879 13.0317L47.3359 6.26367Z" fill="#333333"/>
<path d="M39.7108 20.3277C38.5428 20.3277 37.5348 20.0957 36.6868 19.6317C35.8388 19.1677 35.2228 18.6077 34.8388 17.9517V25.8237H32.3668V6.26373H34.8388V8.30373C35.2228 7.64773 35.8388 7.08773 36.6868 6.62373C37.5348 6.15973 38.5428 5.92773 39.7108 5.92773C40.9908 5.92773 42.1428 6.23973 43.1668 6.86373C44.2068 7.48773 45.0228 8.35173 45.6148 9.45573C46.2068 10.5597 46.5028 11.7837 46.5028 13.1277C46.5028 14.4717 46.2068 15.6957 45.6148 16.7997C45.0228 17.9037 44.2068 18.7677 43.1668 19.3917C42.1428 20.0157 40.9908 20.3277 39.7108 20.3277ZM39.4948 18.1437C40.3908 18.1437 41.1828 17.9277 41.8708 17.4957C42.5748 17.0637 43.1188 16.4637 43.5028 15.6957C43.8868 14.9277 44.0788 14.0717 44.0788 13.1277C44.0788 12.1837 43.8868 11.3277 43.5028 10.5597C43.1188 9.79173 42.5748 9.19173 41.8708 8.75973C41.1828 8.32773 40.3908 8.11173 39.4948 8.11173C38.5828 8.11173 37.7668 8.33573 37.0468 8.78374C36.3428 9.21573 35.7908 9.81573 35.3908 10.5837C34.9908 11.3357 34.7908 12.1837 34.7908 13.1277C34.7908 14.0717 34.9908 14.9277 35.3908 15.6957C35.7908 16.4477 36.3428 17.0477 37.0468 17.4957C37.7668 17.9277 38.5828 18.1437 39.4948 18.1437Z" fill="#333333"/>
<path d="M24.4069 15.6476H14.7109V13.5116L23.8309 0.767578H26.8069V13.5116H29.9509V15.6476H26.8069V19.9916H24.4069V15.6476ZM24.4069 13.5116V3.52758L17.3029 13.5116H24.4069Z" fill="#333333"/>
<path d="M0.216 18.3595L7.032 11.5195C8.248 10.2875 9.12 9.25553 9.648 8.42352C10.176 7.57552 10.44 6.80752 10.44 6.11952C10.44 4.99952 10.088 4.12752 9.384 3.50352C8.68 2.86352 7.72 2.54352 6.504 2.54352C5.672 2.54352 4.952 2.73552 4.344 3.11952C3.752 3.48752 3.296 3.98352 2.976 4.60752C2.672 5.23152 2.52 5.91152 2.52 6.64752H0C0 5.47952 0.264 4.41552 0.792 3.45552C1.336 2.49552 2.104 1.73552 3.096 1.17552C4.088 0.599524 5.232 0.311523 6.528 0.311523C7.808 0.311523 8.928 0.551524 9.888 1.03152C10.864 1.51152 11.616 2.19152 12.144 3.07152C12.672 3.95152 12.936 4.95952 12.936 6.09552C12.936 7.10352 12.632 8.10352 12.024 9.09552C11.416 10.0875 10.368 11.3435 8.88 12.8635L3.84 17.8075H13.584V19.9915H0.216V18.3595Z" fill="#333333"/>
<path d="M40.2864 33.2197H42.8064L46.0864 37.4397L49.4064 33.2197H51.7864L47.3464 38.8197L52.0264 44.6597H49.5064L46.0064 40.2397L42.5064 44.6597H40.1264L44.7464 38.8597L40.2864 33.2197Z" fill="#333333"/>
<path d="M33.9322 44.9395C32.9589 44.9395 32.1189 44.7461 31.4122 44.3595C30.7055 43.9728 30.1922 43.5061 29.8722 42.9595V49.5195H27.8122V33.2195H29.8722V34.9195C30.1922 34.3728 30.7055 33.9061 31.4122 33.5195C32.1189 33.1328 32.9589 32.9395 33.9322 32.9395C34.9989 32.9395 35.9589 33.1995 36.8122 33.7195C37.6789 34.2395 38.3589 34.9595 38.8522 35.8795C39.3455 36.7995 39.5922 37.8195 39.5922 38.9395C39.5922 40.0595 39.3455 41.0795 38.8522 41.9995C38.3589 42.9195 37.6789 43.6395 36.8122 44.1595C35.9589 44.6795 34.9989 44.9395 33.9322 44.9395ZM33.7522 43.1195C34.4989 43.1195 35.1589 42.9395 35.7322 42.5795C36.3189 42.2195 36.7722 41.7195 37.0922 41.0795C37.4122 40.4395 37.5722 39.7261 37.5722 38.9395C37.5722 38.1528 37.4122 37.4395 37.0922 36.7995C36.7722 36.1595 36.3189 35.6595 35.7322 35.2995C35.1589 34.9395 34.4989 34.7595 33.7522 34.7595C32.9922 34.7595 32.3122 34.9461 31.7122 35.3195C31.1255 35.6795 30.6655 36.1795 30.3322 36.8195C29.9989 37.4461 29.8322 38.1528 29.8322 38.9395C29.8322 39.7261 29.9989 40.4395 30.3322 41.0795C30.6655 41.7061 31.1255 42.2061 31.7122 42.5795C32.3122 42.9395 32.9922 43.1195 33.7522 43.1195Z" fill="#333333"/>
<path d="M19.265 45.0198C18.1183 45.0198 17.0983 44.7064 16.205 44.0798C15.3117 43.4531 14.6117 42.5131 14.105 41.2598C13.5983 39.9931 13.345 38.4531 13.345 36.6398C13.345 34.8264 13.5983 33.2931 14.105 32.0398C14.6117 30.7731 15.3117 29.8264 16.205 29.1998C17.0983 28.5731 18.1183 28.2598 19.265 28.2598C20.4117 28.2598 21.425 28.5731 22.305 29.1998C23.1983 29.8264 23.8983 30.7731 24.405 32.0398C24.9117 33.2931 25.165 34.8264 25.165 36.6398C25.165 38.4531 24.9117 39.9931 24.405 41.2598C23.8983 42.5131 23.1983 43.4531 22.305 44.0798C21.425 44.7064 20.4117 45.0198 19.265 45.0198ZM19.265 43.1598C19.9983 43.1598 20.6583 42.9131 21.245 42.4198C21.8317 41.9264 22.2917 41.1931 22.625 40.2198C22.9717 39.2464 23.145 38.0531 23.145 36.6398C23.145 35.2398 22.9717 34.0531 22.625 33.0798C22.2917 32.0931 21.8317 31.3531 21.245 30.8598C20.6583 30.3664 19.9983 30.1198 19.265 30.1198C18.5183 30.1198 17.8517 30.3664 17.265 30.8598C16.6783 31.3531 16.2117 32.0931 15.865 33.0798C15.5317 34.0531 15.365 35.2398 15.365 36.6398C15.365 38.0531 15.5317 39.2464 15.865 40.2198C16.2117 41.1931 16.6783 41.9264 17.265 42.4198C17.8517 42.9131 18.5183 43.1598 19.265 43.1598Z" fill="#333333"/>
<path d="M0.18 43.2998L5.86 37.5998C6.87333 36.5731 7.6 35.7131 8.04 35.0198C8.48 34.3131 8.7 33.6731 8.7 33.0998C8.7 32.1664 8.40667 31.4398 7.82 30.9198C7.23333 30.3864 6.43333 30.1198 5.42 30.1198C4.72667 30.1198 4.12667 30.2798 3.62 30.5998C3.12667 30.9064 2.74667 31.3198 2.48 31.8398C2.22667 32.3598 2.1 32.9264 2.1 33.5398H0C0 32.5664 0.22 31.6798 0.66 30.8798C1.11333 30.0798 1.75333 29.4464 2.58 28.9798C3.40667 28.4998 4.36 28.2598 5.44 28.2598C6.50667 28.2598 7.44 28.4598 8.24 28.8598C9.05333 29.2598 9.68 29.8264 10.12 30.5598C10.56 31.2931 10.78 32.1331 10.78 33.0798C10.78 33.9198 10.5267 34.7531 10.02 35.5798C9.51333 36.4064 8.64 37.4531 7.4 38.7198L3.2 42.8398H11.32V44.6598H0.18V43.2998Z" fill="#333333"/>
<path d="M28.2586 55.1758H30.2746L32.8986 58.5518L35.5546 55.1758H37.4586L33.9066 59.6558L37.6506 64.3278H35.6346L32.8346 60.7918L30.0346 64.3278H28.1306L31.8266 59.6878L28.2586 55.1758Z" fill="#333333"/>
<path d="M23.1751 64.5521C22.3965 64.5521 21.7245 64.3975 21.1591 64.0881C20.5938 63.7788 20.1831 63.4055 19.9271 62.9681V68.2161H18.2791V55.1761H19.9271V56.5361C20.1831 56.0988 20.5938 55.7255 21.1591 55.4161C21.7245 55.1068 22.3965 54.9521 23.1751 54.9521C24.0285 54.9521 24.7965 55.1601 25.4791 55.5761C26.1725 55.9921 26.7165 56.5681 27.1111 57.3041C27.5058 58.0401 27.7031 58.8561 27.7031 59.7521C27.7031 60.6481 27.5058 61.4641 27.1111 62.2001C26.7165 62.9361 26.1725 63.5121 25.4791 63.9281C24.7965 64.3441 24.0285 64.5521 23.1751 64.5521ZM23.0311 63.0961C23.6285 63.0961 24.1565 62.9521 24.6151 62.6641C25.0845 62.3761 25.4471 61.9761 25.7031 61.4641C25.9591 60.9521 26.0871 60.3815 26.0871 59.7521C26.0871 59.1228 25.9591 58.5521 25.7031 58.0401C25.4471 57.5281 25.0845 57.1281 24.6151 56.8401C24.1565 56.5521 23.6285 56.4081 23.0311 56.4081C22.4231 56.4081 21.8791 56.5575 21.3991 56.8561C20.9298 57.1441 20.5618 57.5441 20.2951 58.0561C20.0285 58.5575 19.8951 59.1228 19.8951 59.7521C19.8951 60.3815 20.0285 60.9521 20.2951 61.4641C20.5618 61.9655 20.9298 62.3655 21.3991 62.6641C21.8791 62.9521 22.4231 63.0961 23.0311 63.0961Z" fill="#333333"/>
<path d="M10.6104 56.2157C11.0371 56.0131 11.4957 55.9117 11.9864 55.9117C12.8184 55.9117 13.5757 56.0931 14.2584 56.4557C14.9517 56.8184 15.4957 57.3251 15.8904 57.9757C16.2957 58.6264 16.4984 59.3784 16.4984 60.2317C16.4984 61.0957 16.2904 61.8637 15.8744 62.5357C15.4691 63.1971 14.9144 63.7091 14.2104 64.0717C13.5064 64.4344 12.7224 64.6157 11.8584 64.6157C10.9944 64.6157 10.2051 64.4344 9.49039 64.0717C8.78639 63.7091 8.22639 63.1971 7.81039 62.5357C7.40506 61.8637 7.20239 61.0957 7.20239 60.2317C7.20239 59.6024 7.30373 59.0157 7.50639 58.4717C7.70906 57.9277 8.02373 57.3411 8.45039 56.7117L11.9224 51.5117H13.8424L10.6104 56.2157ZM11.8584 63.1597C12.4557 63.1597 12.9784 63.0317 13.4264 62.7757C13.8851 62.5197 14.2371 62.1731 14.4824 61.7357C14.7277 61.2877 14.8504 60.7917 14.8504 60.2477C14.8504 59.6931 14.7277 59.1971 14.4824 58.7597C14.2371 58.3117 13.8851 57.9597 13.4264 57.7037C12.9784 57.4477 12.4557 57.3197 11.8584 57.3197C11.2504 57.3197 10.7171 57.4477 10.2584 57.7037C9.81039 57.9597 9.46373 58.3117 9.21839 58.7597C8.97306 59.2077 8.85039 59.7037 8.85039 60.2477C8.85039 60.7917 8.97306 61.2877 9.21839 61.7357C9.46373 62.1731 9.81039 62.5197 10.2584 62.7757C10.7171 63.0317 11.2504 63.1597 11.8584 63.1597Z" fill="#333333"/>
<path d="M2.65603 52.9837H3.05176e-05V51.5117H4.33603V64.3277H2.65603V52.9837Z" fill="#333333"/>
<path d="M25.0953 75.1533H26.8593L29.1553 78.1073L31.4793 75.1533H33.1453L30.0373 79.0733L33.3133 83.1613H31.5493L29.0993 80.0673L26.6493 83.1613H24.9833L28.2173 79.1013L25.0953 75.1533Z" fill="#333333"/>
<path d="M20.6474 83.357C19.9661 83.357 19.3781 83.2217 18.8834 82.951C18.3887 82.6804 18.0294 82.3537 17.8054 81.971V86.563H16.3634V75.153H17.8054V76.343C18.0294 75.9604 18.3887 75.6337 18.8834 75.363C19.3781 75.0924 19.9661 74.957 20.6474 74.957C21.3941 74.957 22.0661 75.139 22.6634 75.503C23.2701 75.867 23.7461 76.371 24.0914 77.015C24.4367 77.659 24.6094 78.373 24.6094 79.157C24.6094 79.941 24.4367 80.655 24.0914 81.299C23.7461 81.943 23.2701 82.447 22.6634 82.811C22.0661 83.175 21.3941 83.357 20.6474 83.357ZM20.5214 82.083C21.0441 82.083 21.5061 81.957 21.9074 81.705C22.3181 81.453 22.6354 81.103 22.8594 80.655C23.0834 80.207 23.1954 79.7077 23.1954 79.157C23.1954 78.6064 23.0834 78.107 22.8594 77.659C22.6354 77.211 22.3181 76.861 21.9074 76.609C21.5061 76.357 21.0441 76.231 20.5214 76.231C19.9894 76.231 19.5134 76.3617 19.0934 76.623C18.6827 76.875 18.3607 77.225 18.1274 77.673C17.8941 78.1117 17.7774 78.6064 17.7774 79.157C17.7774 79.7077 17.8941 80.207 18.1274 80.655C18.3607 81.0937 18.6827 81.4437 19.0934 81.705C19.5134 81.957 19.9894 82.083 20.5214 82.083Z" fill="#333333"/>
<path d="M11.7201 80.6273H6.06412V79.3813L11.3841 71.9473H13.1201V79.3813H14.9541V80.6273H13.1201V83.1613H11.7201V80.6273ZM11.7201 79.3813V73.5573L7.57612 79.3813H11.7201Z" fill="#333333"/>
<path d="M2.32403 73.2353H3.05176e-05V71.9473H3.79403V83.1613H2.32403V73.2353Z" fill="#333333"/>
<path d="M21.2173 96.1309H22.7293L24.6973 98.6629L26.6893 96.1309H28.1173L25.4533 99.4909L28.2613 102.995H26.7493L24.6493 100.343L22.5493 102.995H21.1213L23.8933 99.5149L21.2173 96.1309Z" fill="#333333"/>
<path d="M17.4048 103.163C16.8208 103.163 16.3168 103.047 15.8928 102.815C15.4688 102.583 15.1608 102.303 14.9688 101.975V105.911H13.7328V96.1309H14.9688V97.1509C15.1608 96.8229 15.4688 96.5429 15.8928 96.3109C16.3168 96.0789 16.8208 95.9629 17.4048 95.9629C18.0448 95.9629 18.6208 96.1189 19.1328 96.4309C19.6528 96.7429 20.0608 97.1749 20.3568 97.7269C20.6528 98.2789 20.8008 98.8909 20.8008 99.5629C20.8008 100.235 20.6528 100.847 20.3568 101.399C20.0608 101.951 19.6528 102.383 19.1328 102.695C18.6208 103.007 18.0448 103.163 17.4048 103.163ZM17.2968 102.071C17.7448 102.071 18.1408 101.963 18.4848 101.747C18.8368 101.531 19.1088 101.231 19.3008 100.847C19.4928 100.463 19.5888 100.035 19.5888 99.5629C19.5888 99.0909 19.4928 98.6629 19.3008 98.2789C19.1088 97.8949 18.8368 97.5949 18.4848 97.3789C18.1408 97.1629 17.7448 97.0549 17.2968 97.0549C16.8408 97.0549 16.4328 97.1669 16.0728 97.3909C15.7208 97.6069 15.4448 97.9069 15.2448 98.2909C15.0448 98.6669 14.9448 99.0909 14.9448 99.5629C14.9448 100.035 15.0448 100.463 15.2448 100.847C15.4448 101.223 15.7208 101.523 16.0728 101.747C16.4328 101.963 16.8408 102.071 17.2968 102.071Z" fill="#333333"/>
<path d="M5.47378 102.179L8.88178 98.7593C9.48978 98.1433 9.92578 97.6273 10.1898 97.2113C10.4538 96.7873 10.5858 96.4033 10.5858 96.0593C10.5858 95.4993 10.4098 95.0633 10.0578 94.7513C9.70578 94.4313 9.22578 94.2713 8.61778 94.2713C8.20178 94.2713 7.84178 94.3673 7.53778 94.5593C7.24178 94.7433 7.01378 94.9913 6.85378 95.3033C6.70178 95.6153 6.62578 95.9553 6.62578 96.3233H5.36578C5.36578 95.7393 5.49778 95.2073 5.76178 94.7273C6.03378 94.2473 6.41778 93.8673 6.91378 93.5873C7.40978 93.2993 7.98178 93.1553 8.62978 93.1553C9.26978 93.1553 9.82978 93.2753 10.3098 93.5153C10.7978 93.7553 11.1738 94.0953 11.4378 94.5353C11.7018 94.9753 11.8338 95.4793 11.8338 96.0473C11.8338 96.5513 11.6818 97.0513 11.3778 97.5473C11.0738 98.0433 10.5498 98.6713 9.80578 99.4313L7.28578 101.903H12.1578V102.995H5.47378V102.179Z" fill="#333333"/>
<path d="M1.992 94.4868H0V93.3828H3.252V102.995H1.992V94.4868Z" fill="#333333"/>
<path d="M55.2779 129.248H52.4459L49.0379 124.448L45.6299 129.248H42.7739L47.5979 122.384L42.9659 115.808H45.8219L49.0139 120.368L52.2299 115.808H55.1099L50.4539 122.408L55.2779 129.248Z" fill="#333333"/>
<path d="M32.5771 134.335H30.0811V115.807H32.5291V117.271H32.6971C32.9851 116.807 33.4091 116.407 33.9691 116.071C34.5451 115.735 35.1851 115.567 35.8891 115.567C36.7531 115.567 37.5371 115.735 38.2411 116.071C38.9611 116.391 39.5771 116.855 40.0891 117.463C40.6011 118.071 40.9931 118.807 41.2651 119.671C41.5531 120.519 41.6971 121.471 41.6971 122.527C41.6971 123.583 41.5531 124.543 41.2651 125.407C40.9931 126.271 40.6011 127.007 40.0891 127.615C39.5771 128.207 38.9611 128.663 38.2411 128.983C37.5371 129.319 36.7611 129.487 35.9131 129.487C35.5931 129.487 35.2731 129.439 34.9531 129.343C34.6491 129.247 34.3531 129.119 34.0651 128.959C33.7771 128.799 33.5131 128.607 33.2731 128.383C33.0491 128.159 32.8731 127.927 32.7451 127.687H32.5771V134.335ZM37.3531 127.015C37.7691 126.759 38.1131 126.415 38.3851 125.983C38.6571 125.551 38.8571 125.039 38.9851 124.447C39.1291 123.855 39.2011 123.215 39.2011 122.527C39.2011 121.855 39.1291 121.223 38.9851 120.631C38.8571 120.039 38.6571 119.527 38.3851 119.095C38.1131 118.663 37.7691 118.327 37.3531 118.087C36.9371 117.831 36.4491 117.703 35.8891 117.703C35.4571 117.703 35.0411 117.783 34.6411 117.943C34.2411 118.103 33.8891 118.367 33.5851 118.735C33.2811 119.103 33.0331 119.591 32.8411 120.199C32.6651 120.807 32.5771 121.567 32.5771 122.479C32.5771 123.359 32.6651 124.111 32.8411 124.735C33.0331 125.359 33.2811 125.871 33.5851 126.271C33.9051 126.655 34.2571 126.935 34.6411 127.111C35.0411 127.287 35.4571 127.375 35.8891 127.375C36.4491 127.375 36.9371 127.255 37.3531 127.015Z" fill="#333333"/>
<path d="M25.0605 129.247H22.5405V124.903H14.2605V123.439L22.6125 111.151H25.0605V122.743H27.7965V124.903H25.0605V129.247ZM22.5405 122.743V116.863L22.6605 115.183H22.5405L17.5965 122.743H22.5405Z" fill="#333333"/>
<path d="M12.48 129.248H0.384031V127.52L6.26403 120.992C6.79203 120.416 7.23203 119.896 7.58403 119.432C7.95203 118.968 8.24803 118.552 8.47203 118.184C8.69603 117.8 8.85603 117.448 8.95203 117.128C9.06403 116.808 9.12003 116.488 9.12003 116.168C9.12003 115.24 8.84003 114.496 8.28003 113.936C7.73603 113.376 6.95203 113.096 5.92803 113.096C4.84003 113.096 3.99203 113.456 3.38403 114.176C2.79203 114.88 2.49603 115.824 2.49603 117.008H3.05176e-05C3.05176e-05 116.176 0.136031 115.392 0.408031 114.656C0.680031 113.92 1.06403 113.28 1.56003 112.736C2.07203 112.176 2.69603 111.736 3.43203 111.416C4.16803 111.096 5.00003 110.936 5.92803 110.936C7.70403 110.936 9.09603 111.392 10.104 112.304C11.128 113.2 11.64 114.448 11.64 116.048C11.64 116.608 11.536 117.16 11.328 117.704C11.12 118.248 10.848 118.792 10.512 119.336C10.176 119.88 9.79203 120.416 9.36003 120.944C8.92803 121.456 8.48003 121.96 8.01603 122.456L3.81603 127.088H12.48V129.248Z" fill="#333333"/>
<path d="M46.0649 153.04H43.7049L40.8649 149.04L38.0249 153.04H35.6449L39.6649 147.32L35.8049 141.84H38.1849L40.8449 145.64L43.5249 141.84H45.9249L42.0449 147.34L46.0649 153.04Z" fill="#333333"/>
<path d="M27.1475 157.28H25.0675V141.84H27.1075V143.06H27.2475C27.4875 142.673 27.8408 142.34 28.3075 142.06C28.7875 141.78 29.3208 141.64 29.9075 141.64C30.6275 141.64 31.2808 141.78 31.8675 142.06C32.4675 142.326 32.9808 142.713 33.4075 143.22C33.8342 143.726 34.1608 144.34 34.3875 145.06C34.6275 145.766 34.7475 146.56 34.7475 147.44C34.7475 148.32 34.6275 149.12 34.3875 149.84C34.1608 150.56 33.8342 151.173 33.4075 151.68C32.9808 152.173 32.4675 152.553 31.8675 152.82C31.2808 153.1 30.6342 153.24 29.9275 153.24C29.6608 153.24 29.3942 153.2 29.1275 153.12C28.8742 153.04 28.6275 152.933 28.3875 152.8C28.1475 152.666 27.9275 152.506 27.7275 152.32C27.5408 152.133 27.3942 151.94 27.2875 151.74H27.1475V157.28ZM31.1275 151.18C31.4742 150.966 31.7608 150.68 31.9875 150.32C32.2142 149.96 32.3808 149.533 32.4875 149.04C32.6075 148.546 32.6675 148.013 32.6675 147.44C32.6675 146.88 32.6075 146.353 32.4875 145.86C32.3808 145.366 32.2142 144.94 31.9875 144.58C31.7608 144.22 31.4742 143.94 31.1275 143.74C30.7808 143.526 30.3742 143.42 29.9075 143.42C29.5475 143.42 29.2008 143.486 28.8675 143.62C28.5342 143.753 28.2408 143.973 27.9875 144.28C27.7342 144.586 27.5275 144.993 27.3675 145.5C27.2208 146.006 27.1475 146.64 27.1475 147.4C27.1475 148.133 27.2208 148.76 27.3675 149.28C27.5275 149.8 27.7342 150.226 27.9875 150.56C28.2542 150.88 28.5475 151.113 28.8675 151.26C29.2008 151.406 29.5475 151.48 29.9075 151.48C30.3742 151.48 30.7808 151.38 31.1275 151.18Z" fill="#333333"/>
<path d="M21.1638 151.26C20.3104 152.58 19.0704 153.24 17.4438 153.24C15.8304 153.24 14.5904 152.58 13.7238 151.26C12.8571 149.926 12.4238 148.006 12.4238 145.5C12.4238 143.006 12.8571 141.093 13.7238 139.76C14.5904 138.426 15.8304 137.76 17.4438 137.76C19.0704 137.76 20.3104 138.426 21.1638 139.76C22.0304 141.093 22.4638 143.006 22.4638 145.5C22.4638 148.006 22.0304 149.926 21.1638 151.26ZM17.4438 151.44C18.4438 151.44 19.1771 150.926 19.6438 149.9C20.1238 148.873 20.3638 147.406 20.3638 145.5C20.3638 143.593 20.1238 142.126 19.6438 141.1C19.1771 140.073 18.4438 139.56 17.4438 139.56C16.4438 139.56 15.7038 140.073 15.2238 141.1C14.7571 142.126 14.5238 143.593 14.5238 145.5C14.5238 147.406 14.7571 148.873 15.2238 149.9C15.7038 150.926 16.4438 151.44 17.4438 151.44Z" fill="#333333"/>
<path d="M10.4 153.039H0.320031V151.599L5.22003 146.159C5.66003 145.679 6.0267 145.246 6.32003 144.859C6.6267 144.473 6.87336 144.126 7.06003 143.819C7.2467 143.499 7.38003 143.206 7.46003 142.939C7.55336 142.673 7.60003 142.406 7.60003 142.139C7.60003 141.366 7.3667 140.746 6.90003 140.279C6.4467 139.813 5.79336 139.579 4.94003 139.579C4.03336 139.579 3.3267 139.879 2.82003 140.479C2.3267 141.066 2.08003 141.853 2.08003 142.839H3.05176e-05C3.05176e-05 142.146 0.113364 141.493 0.34003 140.879C0.566697 140.266 0.886697 139.733 1.30003 139.279C1.7267 138.813 2.2467 138.446 2.86003 138.179C3.47336 137.913 4.1667 137.779 4.94003 137.779C6.42003 137.779 7.58003 138.159 8.42003 138.919C9.27336 139.666 9.70003 140.706 9.70003 142.039C9.70003 142.506 9.61336 142.966 9.44003 143.419C9.2667 143.873 9.04003 144.326 8.76003 144.779C8.48003 145.233 8.16003 145.679 7.80003 146.119C7.44003 146.546 7.0667 146.966 6.68003 147.379L3.18003 151.239H10.4V153.039Z" fill="#333333"/>
<path d="M35.6039 173.831H33.7159L31.4439 170.631L29.1719 173.831H27.2679L30.4839 169.255L27.3959 164.871H29.2999L31.4279 167.911L33.5719 164.871H35.4919L32.3879 169.271L35.6039 173.831Z" fill="#333333"/>
<path d="M20.47 177.223H18.806V164.871H20.438V165.847H20.55C20.742 165.538 21.0247 165.271 21.398 165.047C21.782 164.823 22.2087 164.711 22.678 164.711C23.254 164.711 23.7767 164.823 24.246 165.047C24.726 165.26 25.1367 165.57 25.478 165.975C25.8193 166.38 26.0807 166.871 26.262 167.447C26.454 168.012 26.55 168.647 26.55 169.351C26.55 170.055 26.454 170.695 26.262 171.271C26.0807 171.847 25.8193 172.338 25.478 172.743C25.1367 173.138 24.726 173.442 24.246 173.655C23.7767 173.879 23.2593 173.991 22.694 173.991C22.4807 173.991 22.2673 173.959 22.054 173.895C21.8513 173.831 21.654 173.746 21.462 173.639C21.27 173.532 21.094 173.404 20.934 173.255C20.7847 173.106 20.6673 172.951 20.582 172.791H20.47V177.223ZM23.654 172.343C23.9313 172.172 24.1607 171.943 24.342 171.655C24.5233 171.367 24.6567 171.026 24.742 170.631C24.838 170.236 24.886 169.81 24.886 169.351C24.886 168.903 24.838 168.482 24.742 168.087C24.6567 167.692 24.5233 167.351 24.342 167.063C24.1607 166.775 23.9313 166.551 23.654 166.391C23.3767 166.22 23.0513 166.135 22.678 166.135C22.39 166.135 22.1127 166.188 21.846 166.295C21.5793 166.402 21.3447 166.578 21.142 166.823C20.9393 167.068 20.774 167.394 20.646 167.799C20.5287 168.204 20.47 168.711 20.47 169.319C20.47 169.906 20.5287 170.407 20.646 170.823C20.774 171.239 20.9393 171.58 21.142 171.847C21.3553 172.103 21.59 172.29 21.846 172.407C22.1127 172.524 22.39 172.583 22.678 172.583C23.0513 172.583 23.3767 172.503 23.654 172.343Z" fill="#333333"/>
<path d="M14.867 164.919C14.8457 164.311 14.6643 163.847 14.323 163.527C13.9817 163.207 13.5337 163.047 12.979 163.047C12.147 163.047 11.5017 163.415 11.043 164.151C10.595 164.887 10.371 165.895 10.371 167.175H10.467C10.5523 167.005 10.675 166.845 10.835 166.695C11.0057 166.535 11.1977 166.397 11.411 166.279C11.6243 166.162 11.8537 166.071 12.099 166.007C12.355 165.933 12.611 165.895 12.867 165.895C13.4643 165.895 13.9976 165.997 14.467 166.199C14.947 166.391 15.3523 166.669 15.683 167.031C16.0243 167.383 16.2856 167.81 16.467 168.311C16.6483 168.802 16.739 169.346 16.739 169.943C16.739 170.541 16.643 171.09 16.451 171.591C16.259 172.082 15.9923 172.509 15.651 172.871C15.3096 173.223 14.899 173.495 14.419 173.687C13.9496 173.89 13.4323 173.991 12.867 173.991C11.523 173.991 10.4937 173.57 9.77898 172.727C9.07498 171.874 8.70698 170.621 8.67498 168.967C8.65365 167.581 8.74432 166.418 8.94698 165.479C9.16032 164.53 9.46432 163.773 9.85898 163.207C10.2537 162.631 10.7177 162.221 11.251 161.975C11.795 161.73 12.3817 161.607 13.011 161.607C13.5763 161.607 14.0723 161.693 14.499 161.863C14.9257 162.034 15.283 162.269 15.571 162.567C15.8697 162.866 16.099 163.218 16.259 163.623C16.419 164.029 16.5097 164.461 16.531 164.919H14.867ZM13.699 172.359C13.987 172.231 14.2323 172.05 14.435 171.815C14.6377 171.581 14.7923 171.303 14.899 170.983C15.0057 170.663 15.059 170.317 15.059 169.943C15.059 169.57 15.0003 169.223 14.883 168.903C14.7763 168.583 14.6163 168.311 14.403 168.087C14.2003 167.853 13.955 167.671 13.667 167.543C13.3897 167.405 13.075 167.335 12.723 167.335C12.3923 167.335 12.083 167.405 11.795 167.543C11.507 167.671 11.2563 167.853 11.043 168.087C10.8403 168.311 10.675 168.583 10.547 168.903C10.4296 169.223 10.371 169.57 10.371 169.943C10.371 170.317 10.4243 170.663 10.531 170.983C10.6377 171.303 10.7923 171.581 10.995 171.815C11.1977 172.05 11.443 172.231 11.731 172.359C12.0297 172.487 12.3603 172.551 12.723 172.551C13.0857 172.551 13.411 172.487 13.699 172.359Z" fill="#333333"/>
<path d="M4.112 173.832H2.432V163.704L0 164.584V163.256L3.296 161.768H4.112V173.832Z" fill="#333333"/>
<path d="M31.1534 192.728H29.5014L27.5134 189.928L25.5254 192.728H23.8594L26.6734 188.724L23.9714 184.888H25.6374L27.4994 187.548L29.3754 184.888H31.0554L28.3394 188.738L31.1534 192.728Z" fill="#333333"/>
<path d="M17.9113 195.696H16.4553V184.888H17.8833V185.742H17.9813C18.1493 185.471 18.3966 185.238 18.7233 185.042C19.0593 184.846 19.4326 184.748 19.8433 184.748C20.3473 184.748 20.8046 184.846 21.2153 185.042C21.6353 185.229 21.9946 185.499 22.2933 185.854C22.5919 186.209 22.8206 186.638 22.9793 187.142C23.1473 187.637 23.2313 188.192 23.2313 188.808C23.2313 189.424 23.1473 189.984 22.9793 190.488C22.8206 190.992 22.5919 191.421 22.2933 191.776C21.9946 192.121 21.6353 192.387 21.2153 192.574C20.8046 192.77 20.3519 192.868 19.8573 192.868C19.6706 192.868 19.4839 192.84 19.2973 192.784C19.1199 192.728 18.9473 192.653 18.7793 192.56C18.6113 192.467 18.4573 192.355 18.3173 192.224C18.1866 192.093 18.0839 191.958 18.0093 191.818H17.9113V195.696ZM20.6973 191.426C20.9399 191.277 21.1406 191.076 21.2993 190.824C21.4579 190.572 21.5746 190.273 21.6493 189.928C21.7333 189.583 21.7753 189.209 21.7753 188.808C21.7753 188.416 21.7333 188.047 21.6493 187.702C21.5746 187.357 21.4579 187.058 21.2993 186.806C21.1406 186.554 20.9399 186.358 20.6973 186.218C20.4546 186.069 20.1699 185.994 19.8433 185.994C19.5913 185.994 19.3486 186.041 19.1153 186.134C18.8819 186.227 18.6766 186.381 18.4993 186.596C18.3219 186.811 18.1773 187.095 18.0653 187.45C17.9626 187.805 17.9113 188.248 17.9113 188.78C17.9113 189.293 17.9626 189.732 18.0653 190.096C18.1773 190.46 18.3219 190.759 18.4993 190.992C18.6859 191.216 18.8913 191.379 19.1153 191.482C19.3486 191.585 19.5913 191.636 19.8433 191.636C20.1699 191.636 20.4546 191.566 20.6973 191.426Z" fill="#333333"/>
<path d="M13.5266 192.728H12.0566V190.194H7.22662V189.34L12.0986 182.172H13.5266V188.934H15.1226V190.194H13.5266V192.728ZM12.0566 188.934V185.504L12.1266 184.524H12.0566L9.17262 188.934H12.0566Z" fill="#333333"/>
<path d="M3.598 192.728H2.128V183.866L0 184.636V183.474L2.884 182.172H3.598V192.728Z" fill="#333333"/>
<path d="M26.7029 211.623H25.2869L23.5829 209.223L21.8789 211.623H20.4509L22.8629 208.191L20.5469 204.903H21.9749L23.5709 207.183L25.1789 204.903H26.6189L24.2909 208.203L26.7029 211.623Z" fill="#333333"/>
<path d="M15.3525 214.168H14.1045V204.904H15.3285V205.636H15.4125C15.5565 205.404 15.7685 205.204 16.0485 205.036C16.3365 204.868 16.6565 204.784 17.0085 204.784C17.4405 204.784 17.8325 204.868 18.1845 205.036C18.5445 205.196 18.8525 205.428 19.1085 205.732C19.3645 206.036 19.5605 206.404 19.6965 206.836C19.8405 207.26 19.9125 207.736 19.9125 208.264C19.9125 208.792 19.8405 209.272 19.6965 209.704C19.5605 210.136 19.3645 210.504 19.1085 210.808C18.8525 211.104 18.5445 211.332 18.1845 211.492C17.8325 211.66 17.4445 211.744 17.0205 211.744C16.8605 211.744 16.7005 211.72 16.5405 211.672C16.3885 211.624 16.2405 211.56 16.0965 211.48C15.9525 211.4 15.8205 211.304 15.7005 211.192C15.5885 211.08 15.5005 210.964 15.4365 210.844H15.3525V214.168ZM17.7405 210.508C17.9485 210.38 18.1205 210.208 18.2565 209.992C18.3925 209.776 18.4925 209.52 18.5565 209.224C18.6285 208.928 18.6645 208.608 18.6645 208.264C18.6645 207.928 18.6285 207.612 18.5565 207.316C18.4925 207.02 18.3925 206.764 18.2565 206.548C18.1205 206.332 17.9485 206.164 17.7405 206.044C17.5325 205.916 17.2885 205.852 17.0085 205.852C16.7925 205.852 16.5845 205.892 16.3845 205.972C16.1845 206.052 16.0085 206.184 15.8565 206.368C15.7045 206.552 15.5805 206.796 15.4845 207.1C15.3965 207.404 15.3525 207.784 15.3525 208.24C15.3525 208.68 15.3965 209.056 15.4845 209.368C15.5805 209.68 15.7045 209.936 15.8565 210.136C16.0165 210.328 16.1925 210.468 16.3845 210.556C16.5845 210.644 16.7925 210.688 17.0085 210.688C17.2885 210.688 17.5325 210.628 17.7405 210.508Z" fill="#333333"/>
<path d="M12.7102 211.624H6.66225V210.76L9.60225 207.496C9.86625 207.208 10.0862 206.948 10.2622 206.716C10.4462 206.484 10.5942 206.276 10.7062 206.092C10.8182 205.9 10.8982 205.724 10.9462 205.564C11.0022 205.404 11.0302 205.244 11.0302 205.084C11.0302 204.62 10.8902 204.248 10.6102 203.968C10.3382 203.688 9.94625 203.548 9.43425 203.548C8.89025 203.548 8.46625 203.728 8.16225 204.088C7.86625 204.44 7.71825 204.912 7.71825 205.504H6.47025C6.47025 205.088 6.53825 204.696 6.67425 204.328C6.81025 203.96 7.00225 203.64 7.25025 203.368C7.50625 203.088 7.81825 202.868 8.18625 202.708C8.55425 202.548 8.97025 202.468 9.43425 202.468C10.3222 202.468 11.0182 202.696 11.5222 203.152C12.0342 203.6 12.2902 204.224 12.2902 205.024C12.2902 205.304 12.2382 205.58 12.1342 205.852C12.0302 206.124 11.8942 206.396 11.7262 206.668C11.5582 206.94 11.3662 207.208 11.1502 207.472C10.9342 207.728 10.7102 207.98 10.4782 208.228L8.37825 210.544H12.7102V211.624Z" fill="#333333"/>
<path d="M3.084 211.624H1.824V204.028L0 204.688V203.692L2.472 202.576H3.084V211.624Z" fill="#333333"/>
</svg>
