<svg width="241" height="112" viewBox="0 0 241 112" fill="none" xmlns="http://www.w3.org/2000/svg">
<path d="M141.465 39.3945L143.789 43.5156L146.133 39.3945H148.418L145.117 44.6875L148.438 50H146.172L143.789 46.0352L141.426 50H139.141L142.422 44.6875L139.16 39.3945H141.465Z" fill="#333333"/>
<path d="M128.457 53.9844V39.3945H130.488V41.1133H130.664C131.035 40.4492 131.748 39.2578 133.711 39.2578C136.279 39.2578 138.164 41.2695 138.164 44.7266C138.164 48.1445 136.299 50.2051 133.73 50.2148C131.807 50.2051 131.045 49.0332 130.664 48.3398H130.547V53.9844H128.457ZM130.508 44.6875C130.508 46.9141 131.484 48.4277 133.262 48.4375C135.098 48.4277 136.055 46.8164 136.055 44.6875C136.055 42.5977 135.127 41.0254 133.262 41.0352C131.465 41.0254 130.508 42.4805 130.508 44.6875Z" fill="#333333"/>
<path d="M121.016 50.1953C117.744 50.1953 115.82 47.5586 115.82 42.9297C115.82 38.3301 117.764 35.6641 121.016 35.6641C124.258 35.6641 126.201 38.3301 126.211 42.9297C126.201 47.5586 124.287 50.1953 121.016 50.1953ZM117.969 42.9297C117.959 46.4551 119.102 48.3398 121.016 48.3398C122.92 48.3398 124.062 46.4551 124.062 42.9297C124.062 39.4141 122.91 37.4902 121.016 37.4805C119.111 37.4902 117.969 39.4141 117.969 42.9297Z" fill="#333333"/>
<path d="M104.199 50V48.4375L109.102 43.4961C110.654 41.8848 111.426 40.9863 111.426 39.7461C111.426 38.3496 110.293 37.4609 108.809 37.4609C107.236 37.4609 106.24 38.457 106.23 39.9609H104.199C104.18 37.373 106.152 35.6641 108.848 35.6641C111.572 35.6641 113.457 37.3926 113.477 39.6875C113.457 41.2695 112.715 42.5293 110.059 45.1367L107.188 48.0469V48.1641H113.711V50H104.199Z" fill="#333333"/>
<path d="M91.6016 50.2148C88.9551 50.2246 87.0898 48.0957 87.0898 44.7266C87.0898 41.3672 88.9551 39.2578 91.6211 39.2578C93.6816 39.2578 94.3262 40.5078 94.6875 41.0742H94.8047V35.8594H96.5039V50H94.8633V48.3789H94.6875C94.3164 48.9648 93.623 50.2246 91.6016 50.2148ZM88.7891 44.6875C88.7891 46.9434 89.8242 48.7109 91.8359 48.7109C93.7793 48.7109 94.8535 47.0703 94.8633 44.6875C94.8535 42.334 93.8086 40.7617 91.8359 40.7617C89.7949 40.7617 88.7891 42.4707 88.7891 44.6875Z" fill="#333333"/>
<path d="M80.957 50V39.3945H82.5781V41.0156H82.6953C83.0762 39.9414 84.1797 39.2285 85.4297 39.2188C85.6836 39.2285 86.1133 39.2383 86.3086 39.2578V40.957C86.1816 40.9277 85.7324 40.8398 85.293 40.8398C83.7695 40.8398 82.6367 41.8945 82.6367 43.3203V50H80.957Z" fill="#333333"/>
<path d="M69.7461 46.9922C69.7461 44.5605 71.8945 44.0039 73.7305 43.8672C74.4141 43.8184 76.123 43.7207 76.6016 43.7109V42.8516C76.6016 41.5039 75.8008 40.7227 74.1992 40.7227C72.8613 40.7227 72.0508 41.3379 71.8164 42.1484H70.0586C70.2734 40.4395 71.9336 39.2578 74.2773 39.2578C75.6641 39.2578 78.2715 39.668 78.2617 43.0078V50H76.6016V48.5547H76.5234C76.1719 49.2676 75.2051 50.2441 73.3594 50.2539C71.3477 50.2441 69.7461 49.0625 69.7461 46.9922ZM71.4258 47.0703C71.4355 48.1934 72.3633 48.7598 73.6523 48.75C75.5469 48.7598 76.6016 47.4902 76.6016 46.1523V45.0879C76.1035 45.1172 74.4336 45.2441 73.9258 45.2734C72.4023 45.3711 71.4355 45.9082 71.4258 47.0703Z" fill="#333333"/>
<path d="M62.4414 50.2148C59.7949 50.2246 57.9297 48.0957 57.9297 44.7266C57.9297 41.3672 59.7949 39.2578 62.4609 39.2578C64.5215 39.2578 65.166 40.5078 65.5273 41.0742H65.6445V35.8594H67.3438V50H65.7031V48.3789H65.5273C65.1562 48.9648 64.4629 50.2246 62.4414 50.2148ZM59.6289 44.6875C59.6289 46.9434 60.6641 48.7109 62.6758 48.7109C64.6191 48.7109 65.6934 47.0703 65.7031 44.6875C65.6934 42.334 64.6484 40.7617 62.6758 40.7617C60.6348 40.7617 59.6289 42.4707 59.6289 44.6875Z" fill="#333333"/>
<path d="M48.9844 43.6328V50H47.3047V39.3945H48.9258V41.0547H49.0625C49.5605 39.9707 50.5566 39.2578 52.168 39.2578C54.3164 39.2578 55.752 40.5664 55.7422 43.2617V50H54.0625V43.3789C54.0625 41.7383 53.1641 40.7617 51.6602 40.7617C50.1172 40.7617 48.9844 41.7969 48.9844 43.6328Z" fill="#333333"/>
<path d="M40.7031 50.2148C37.6367 50.2246 35.7422 48.0371 35.7422 44.7852C35.7422 41.5234 37.666 39.2578 40.5469 39.2578C42.7734 39.2578 45.127 40.625 45.1172 44.5508V45.2539H37.4219C37.5098 47.5 38.8184 48.7305 40.7031 48.7305C41.9727 48.7305 42.7734 48.1738 43.1641 47.5195H44.9609C44.4629 49.1309 42.8906 50.2246 40.7031 50.2148ZM37.4316 43.8281H43.418C43.4082 42.0605 42.2949 40.7422 40.5469 40.7422C38.7109 40.7422 37.5488 42.1875 37.4316 43.8281Z" fill="#333333"/>
<path d="M34.1992 39.3945V40.8008H31.9727V46.9531C31.9629 48.3105 32.6465 48.5352 33.3594 48.5352C33.6621 48.5352 34.1113 48.5059 34.3555 48.4961V50.0586C34.0918 50.0977 33.6816 50.1367 33.1836 50.1367C31.7676 50.1367 30.2832 49.2578 30.2734 47.3828V40.8008H28.6719V39.3945H30.2734V36.8555H31.9727V39.3945H34.1992Z" fill="#333333"/>
<path d="M22.9688 50.2148C19.9023 50.2246 18.0078 48.0371 18.0078 44.7852C18.0078 41.5234 19.9316 39.2578 22.8125 39.2578C25.0391 39.2578 27.3926 40.625 27.3828 44.5508V45.2539H19.6875C19.7754 47.5 21.084 48.7305 22.9688 48.7305C24.2383 48.7305 25.0391 48.1738 25.4297 47.5195H27.2266C26.7285 49.1309 25.1562 50.2246 22.9688 50.2148ZM19.6973 43.8281H25.6836C25.6738 42.0605 24.5605 40.7422 22.8125 40.7422C20.9766 40.7422 19.8145 42.1875 19.6973 43.8281Z" fill="#333333"/>
<path d="M11.875 50V39.3945H13.4961V41.0156H13.6133C13.9941 39.9414 15.0977 39.2285 16.3477 39.2188C16.6016 39.2285 17.0312 39.2383 17.2266 39.2578V40.957C17.0996 40.9277 16.6504 40.8398 16.2109 40.8398C14.6875 40.8398 13.5547 41.8945 13.5547 43.3203V50H11.875Z" fill="#333333"/>
<path d="M0 50V35.8594H4.80469C8.11523 35.8594 9.62891 37.832 9.62891 40.3516C9.62891 42.8613 8.11523 44.8633 4.82422 44.8633H1.75781V50H0ZM1.75781 43.3008H4.74609C7.00195 43.3008 7.88086 42.0312 7.89062 40.3516C7.88086 38.6621 7.00195 37.4219 4.72656 37.4219H1.75781V43.3008Z" fill="#333333"/>
<path d="M229.75 6.03125L233.469 12.625L237.219 6.03125H240.875L235.594 14.5L240.906 23H237.281L233.469 16.6562L229.688 23H226.031L231.281 14.5L226.062 6.03125H229.75Z" fill="#333333"/>
<path d="M208.938 29.375V6.03125H212.188V8.78125H212.469C213.062 7.71875 214.203 5.8125 217.344 5.8125C221.453 5.8125 224.469 9.03125 224.469 14.5625C224.469 20.0312 221.484 23.3281 217.375 23.3438C214.297 23.3281 213.078 21.4531 212.469 20.3438H212.281V29.375H208.938ZM212.219 14.5C212.219 18.0625 213.781 20.4844 216.625 20.5C219.562 20.4844 221.094 17.9062 221.094 14.5C221.094 11.1562 219.609 8.64062 216.625 8.65625C213.75 8.64062 212.219 10.9688 212.219 14.5Z" fill="#333333"/>
<path d="M189.875 23V20.5L197.719 12.5938C200.203 10.0156 201.437 8.57812 201.437 6.59375C201.437 4.35938 199.625 2.9375 197.25 2.9375C194.734 2.9375 193.141 4.53125 193.125 6.9375H189.875C189.844 2.79688 193 0.0625 197.312 0.0625C201.672 0.0625 204.687 2.82812 204.719 6.5C204.687 9.03125 203.5 11.0469 199.25 15.2188L194.656 19.875V20.0625H205.094V23H189.875Z" fill="#333333"/>
<path d="M177.938 23.3125C173.25 23.3125 169.922 20.7969 169.781 17.0938H173.281C173.406 19.0781 175.375 20.3438 177.906 20.3438C180.641 20.3438 182.625 18.8594 182.625 16.6562C182.625 14.4219 180.766 12.8281 177.531 12.8125H175.594V10H177.531C180.109 10.0156 181.906 8.57812 181.906 6.40625C181.906 4.34375 180.359 2.9375 177.969 2.9375C175.703 2.9375 173.672 4.20312 173.594 6.25H170.281C170.375 2.5625 173.781 0.0625 178 0.0625C182.453 0.0625 185.25 2.875 185.219 6.21875C185.25 8.79688 183.656 10.6406 181.219 11.25V11.4062C184.312 11.8438 186.109 13.9219 186.094 16.7812C186.109 20.5469 182.625 23.3125 177.938 23.3125Z" fill="#333333"/>
<path d="M149.344 23.3438C145.25 23.3281 142.25 20.0312 142.25 14.5625C142.25 9.03125 145.297 5.8125 149.375 5.8125C152.531 5.8125 153.672 7.71875 154.281 8.78125H154.438V0.375H157.781V23H154.531V20.3438H154.281C153.656 21.4531 152.438 23.3281 149.344 23.3438ZM145.656 14.5C145.641 17.9062 147.172 20.4844 150.094 20.5C152.938 20.4844 154.531 18.0625 154.531 14.5C154.531 10.9688 152.969 8.64062 150.094 8.65625C147.141 8.64062 145.641 11.1562 145.656 14.5Z" fill="#333333"/>
<path d="M131.938 23.0002V6.03142H135.156V8.71892H135.344C135.969 6.90642 137.672 5.7658 139.656 5.78142C140.062 5.7658 140.719 5.81267 141.062 5.84392V9.03142C140.781 8.96892 140 8.8283 139.312 8.84392C137 8.8283 135.281 10.4377 135.281 12.6564V23.0002H131.938Z" fill="#333333"/>
<path d="M113.781 18.2188C113.766 14.3438 117.063 13.3438 120.125 13.125C121.25 13.0625 123.797 12.9219 124.578 12.8906L124.563 11.5312C124.578 9.60938 123.391 8.5 121.125 8.5C119.156 8.5 117.969 9.40625 117.625 10.6562H114.313C114.609 7.84375 117.234 5.8125 121.25 5.8125C123.953 5.8125 127.891 6.79688 127.906 11.7188V23H124.656V20.6875H124.531C123.875 21.9531 122.313 23.375 119.5 23.375C116.281 23.375 113.766 21.5312 113.781 18.2188ZM117.031 18.25C117.031 19.875 118.375 20.7031 120.25 20.7188C122.969 20.7031 124.594 18.8906 124.594 16.875L124.578 15.3281C123.813 15.375 121.391 15.5469 120.594 15.5938C118.406 15.75 117.031 16.5781 117.031 18.25Z" fill="#333333"/>
<path d="M101.781 23.3438C97.6875 23.3281 94.6875 20.0312 94.6875 14.5625C94.6875 9.03125 97.7344 5.8125 101.812 5.8125C104.969 5.8125 106.109 7.71875 106.719 8.78125H106.875V0.375H110.219V23H106.969V20.3438H106.719C106.094 21.4531 104.875 23.3281 101.781 23.3438ZM98.0938 14.5C98.0781 17.9062 99.6094 20.4844 102.531 20.5C105.375 20.4844 106.969 18.0625 106.969 14.5C106.969 10.9688 105.406 8.64062 102.531 8.65625C99.5781 8.64062 98.0781 11.1562 98.0938 14.5Z" fill="#333333"/>
<path d="M80.5312 12.9375V23H77.1875V6.03125H80.4062V8.8125H80.5938C81.3906 6.98438 83.0625 5.8125 85.5938 5.8125C89.0781 5.8125 91.3906 8.01562 91.375 12.2188V23H88.0625V12.625C88.0469 10.1562 86.7188 8.6875 84.4688 8.6875C82.1719 8.6875 80.5312 10.2344 80.5312 12.9375Z" fill="#333333"/>
<path d="M66.5625 23.3438C61.5625 23.3438 58.4844 19.8906 58.5 14.625C58.4844 9.40625 61.6094 5.8125 66.3437 5.8125C70.2031 5.8125 73.875 8.20312 73.875 14.3438V15.5312H61.8125C61.9062 18.7656 63.8125 20.5938 66.5937 20.5938C68.4844 20.5938 69.7187 19.7812 70.2812 18.75H73.6562C72.9062 21.5 70.2969 23.3438 66.5625 23.3438ZM61.8281 13.0312H70.5937C70.5937 10.4531 68.9219 8.54688 66.375 8.5625C63.7031 8.54688 61.9687 10.6406 61.8281 13.0312Z" fill="#333333"/>
<path d="M56.1875 6.03125V8.6875H52.7188V18C52.7344 19.9219 53.6719 20.2656 54.75 20.2812C55.2344 20.2812 55.9688 20.2344 56.4375 20.1875V23.0938C55.9844 23.1562 55.2656 23.2188 54.3438 23.2188C51.7344 23.2188 49.375 21.7812 49.4062 18.6875V8.6875H46.9062V6.03125H49.4062V1.96875H52.7188V6.03125H56.1875Z" fill="#333333"/>
<path d="M37.625 23.3438C32.625 23.3438 29.5469 19.8906 29.5625 14.625C29.5469 9.40625 32.6719 5.8125 37.4062 5.8125C41.2656 5.8125 44.9375 8.20312 44.9375 14.3438V15.5312H32.875C32.9687 18.7656 34.875 20.5938 37.6562 20.5938C39.5469 20.5938 40.7812 19.7812 41.3437 18.75H44.7187C43.9687 21.5 41.3594 23.3438 37.625 23.3438ZM32.8906 13.0312H41.6562C41.6562 10.4531 39.9844 8.54688 37.4375 8.5625C34.7656 8.54688 33.0312 10.6406 32.8906 13.0312Z" fill="#333333"/>
<path d="M19.25 23.0002V6.03142H22.4688V8.71892H22.6562C23.2812 6.90642 24.9844 5.7658 26.9688 5.78142C27.375 5.7658 28.0312 5.81267 28.375 5.84392V9.03142C28.0938 8.96892 27.3125 8.8283 26.625 8.84392C24.3125 8.8283 22.5938 10.4377 22.5938 12.6564V23.0002H19.25Z" fill="#333333"/>
<path d="M0 23V0.375H8.0625C13.3281 0.375 15.9062 3.53125 15.9062 7.71875C15.9062 11.8906 13.3125 15.0625 8.0625 15.0625H3.4375V23H0ZM3.4375 12.125H7.71875C11.0469 12.1406 12.4375 10.2656 12.4375 7.71875C12.4375 5.15625 11.0469 3.32812 7.71875 3.3125H3.4375V12.125Z" fill="#333333"/>
<path d="M110.922 62.5156L112.781 65.8125L114.656 62.5156H116.484L113.844 66.75L116.5 71H114.688L112.781 67.8281L110.891 71H109.062L111.688 66.75L109.078 62.5156H110.922Z" fill="#333333"/>
<path d="M100.516 74.1875V62.5156H102.141V63.8906H102.281C102.578 63.3594 103.148 62.4062 104.719 62.4062C106.773 62.4062 108.281 64.0156 108.281 66.7812C108.281 69.5156 106.789 71.1641 104.734 71.1719C103.195 71.1641 102.586 70.2266 102.281 69.6719H102.188V74.1875H100.516ZM102.156 66.75C102.156 68.5312 102.938 69.7422 104.359 69.75C105.828 69.7422 106.594 68.4531 106.594 66.75C106.594 65.0781 105.852 63.8203 104.359 63.8281C102.922 63.8203 102.156 64.9844 102.156 66.75Z" fill="#333333"/>
<path d="M94.625 71.1562C92.5312 71.1406 90.3438 69.8984 90.3438 65.7188C90.3516 61.7812 92.0547 59.5312 94.7656 59.5312C96.8516 59.5312 98.2969 60.8281 98.5625 62.625H96.8594C96.6328 61.7031 95.9062 61.0391 94.7656 61.0312C93.0156 61.0391 92 62.5547 92 65.1094H92.125C92.7422 64.1484 93.8047 63.5859 95.0312 63.5781C97.0469 63.5859 98.6719 65.1328 98.6719 67.2969C98.6719 69.4922 97.0547 71.1719 94.625 71.1562ZM92.2031 67.3438C92.2109 68.6016 93.2188 69.7109 94.6094 69.7188C95.9766 69.7109 97 68.6484 97 67.3281C97 66.0312 96.0156 64.9766 94.6562 64.9844C93.2734 64.9766 92.2188 66.0859 92.2031 67.3438Z" fill="#333333"/>
<path d="M87.6562 59.6875V71H85.9219V61.4062H85.8594L83.1562 63.1719V61.5312L85.9688 59.6875H87.6562Z" fill="#333333"/>
<path d="M73.2812 71.1719C71.1641 71.1797 69.6719 69.4766 69.6719 66.7812C69.6719 64.0938 71.1641 62.4062 73.2969 62.4062C74.9453 62.4062 75.4609 63.4062 75.75 63.8594H75.8438V59.6875H77.2031V71H75.8906V69.7031H75.75C75.4531 70.1719 74.8984 71.1797 73.2812 71.1719ZM71.0312 66.75C71.0312 68.5547 71.8594 69.9688 73.4688 69.9688C75.0234 69.9688 75.8828 68.6562 75.8906 66.75C75.8828 64.8672 75.0469 63.6094 73.4688 63.6094C71.8359 63.6094 71.0312 64.9766 71.0312 66.75Z" fill="#333333"/>
<path d="M64.7656 71V62.5156H66.0625V63.8125H66.1562C66.4609 62.9531 67.3438 62.3828 68.3438 62.375C68.5469 62.3828 68.8906 62.3906 69.0469 62.4062V63.7656C68.9453 63.7422 68.5859 63.6719 68.2344 63.6719C67.0156 63.6719 66.1094 64.5156 66.1094 65.6562V71H64.7656Z" fill="#333333"/>
<path d="M55.7969 68.5938C55.7969 66.6484 57.5156 66.2031 58.9844 66.0938C59.5312 66.0547 60.8984 65.9766 61.2812 65.9688V65.2812C61.2812 64.2031 60.6406 63.5781 59.3594 63.5781C58.2891 63.5781 57.6406 64.0703 57.4531 64.7188H56.0469C56.2188 63.3516 57.5469 62.4062 59.4219 62.4062C60.5312 62.4062 62.6172 62.7344 62.6094 65.4062V71H61.2812V69.8438H61.2188C60.9375 70.4141 60.1641 71.1953 58.6875 71.2031C57.0781 71.1953 55.7969 70.25 55.7969 68.5938ZM57.1406 68.6562C57.1484 69.5547 57.8906 70.0078 58.9219 70C60.4375 70.0078 61.2812 68.9922 61.2812 67.9219V67.0703C60.8828 67.0938 59.5469 67.1953 59.1406 67.2188C57.9219 67.2969 57.1484 67.7266 57.1406 68.6562Z" fill="#333333"/>
<path d="M49.9531 71.1719C47.8359 71.1797 46.3438 69.4766 46.3438 66.7812C46.3438 64.0938 47.8359 62.4062 49.9688 62.4062C51.6172 62.4062 52.1328 63.4062 52.4219 63.8594H52.5156V59.6875H53.875V71H52.5625V69.7031H52.4219C52.125 70.1719 51.5703 71.1797 49.9531 71.1719ZM47.7031 66.75C47.7031 68.5547 48.5312 69.9688 50.1406 69.9688C51.6953 69.9688 52.5547 68.6562 52.5625 66.75C52.5547 64.8672 51.7188 63.6094 50.1406 63.6094C48.5078 63.6094 47.7031 64.9766 47.7031 66.75Z" fill="#333333"/>
<path d="M39.1875 65.9062V71H37.8438V62.5156H39.1406V63.8438H39.25C39.6484 62.9766 40.4453 62.4062 41.7344 62.4062C43.4531 62.4062 44.6016 63.4531 44.5938 65.6094V71H43.25V65.7031C43.25 64.3906 42.5312 63.6094 41.3281 63.6094C40.0938 63.6094 39.1875 64.4375 39.1875 65.9062Z" fill="#333333"/>
<path d="M32.5625 71.1719C30.1094 71.1797 28.5938 69.4297 28.5938 66.8281C28.5938 64.2188 30.1328 62.4062 32.4375 62.4062C34.2188 62.4062 36.1016 63.5 36.0938 66.6406V67.2031H29.9375C30.0078 69 31.0547 69.9844 32.5625 69.9844C33.5781 69.9844 34.2188 69.5391 34.5312 69.0156H35.9688C35.5703 70.3047 34.3125 71.1797 32.5625 71.1719ZM29.9453 66.0625H34.7344C34.7266 64.6484 33.8359 63.5938 32.4375 63.5938C30.9688 63.5938 30.0391 64.75 29.9453 66.0625Z" fill="#333333"/>
<path d="M27.3594 62.5156V63.6406H25.5781V68.5625C25.5703 69.6484 26.1172 69.8281 26.6875 69.8281C26.9297 69.8281 27.2891 69.8047 27.4844 69.7969V71.0469C27.2734 71.0781 26.9453 71.1094 26.5469 71.1094C25.4141 71.1094 24.2266 70.4062 24.2188 68.9062V63.6406H22.9375V62.5156H24.2188V60.4844H25.5781V62.5156H27.3594Z" fill="#333333"/>
<path d="M18.375 71.1719C15.9219 71.1797 14.4062 69.4297 14.4062 66.8281C14.4062 64.2188 15.9453 62.4062 18.25 62.4062C20.0312 62.4062 21.9141 63.5 21.9062 66.6406V67.2031H15.75C15.8203 69 16.8672 69.9844 18.375 69.9844C19.3906 69.9844 20.0312 69.5391 20.3438 69.0156H21.7812C21.3828 70.3047 20.125 71.1797 18.375 71.1719ZM15.7578 66.0625H20.5469C20.5391 64.6484 19.6484 63.5938 18.25 63.5938C16.7812 63.5938 15.8516 64.75 15.7578 66.0625Z" fill="#333333"/>
<path d="M9.5 71V62.5156H10.7969V63.8125H10.8906C11.1953 62.9531 12.0781 62.3828 13.0781 62.375C13.2812 62.3828 13.625 62.3906 13.7812 62.4062V63.7656C13.6797 63.7422 13.3203 63.6719 12.9688 63.6719C11.75 63.6719 10.8438 64.5156 10.8438 65.6562V71H9.5Z" fill="#333333"/>
<path d="M0 71V59.6875H3.84375C6.49219 59.6875 7.70312 61.2656 7.70312 63.2812C7.70312 65.2891 6.49219 66.8906 3.85938 66.8906H1.40625V71H0ZM1.40625 65.6406H3.79688C5.60156 65.6406 6.30469 64.625 6.3125 63.2812C6.30469 61.9297 5.60156 60.9375 3.78125 60.9375H1.40625V65.6406Z" fill="#333333"/>
<path d="M97.2207 82.5762L98.8477 85.4609L100.488 82.5762H102.088L99.7773 86.2812L102.102 90H100.516L98.8477 87.2246L97.1934 90H95.5938L97.8906 86.2812L95.6074 82.5762H97.2207Z" fill="#333333"/>
<path d="M88.1152 92.7891V82.5762H89.5371V83.7793H89.6602C89.9199 83.3145 90.4189 82.4805 91.793 82.4805C93.5908 82.4805 94.9102 83.8887 94.9102 86.3086C94.9102 88.7012 93.6045 90.1436 91.8066 90.1504C90.46 90.1436 89.9268 89.3232 89.6602 88.8379H89.5781V92.7891H88.1152ZM89.5508 86.2812C89.5508 87.8398 90.2344 88.8994 91.4785 88.9062C92.7637 88.8994 93.4336 87.7715 93.4336 86.2812C93.4336 84.8184 92.7842 83.7178 91.4785 83.7246C90.2207 83.7178 89.5508 84.7363 89.5508 86.2812Z" fill="#333333"/>
<path d="M78.9961 88.0723V86.8555L83.3711 80.1016H85.2305V86.8008H86.584V88.0723H85.2305V90H83.8086V88.0723H78.9961ZM80.582 86.8008H83.8086V81.8926H83.6992L80.582 86.7188V86.8008Z" fill="#333333"/>
<path d="M76.6992 80.1016V90H75.1816V81.6055H75.127L72.7617 83.1504V81.7148L75.2227 80.1016H76.6992Z" fill="#333333"/>
<path d="M64.1211 90.1504C62.2686 90.1572 60.9629 88.667 60.9629 86.3086C60.9629 83.957 62.2686 82.4805 64.1348 82.4805C65.5771 82.4805 66.0283 83.3555 66.2812 83.752H66.3633V80.1016H67.5527V90H66.4043V88.8652H66.2812C66.0215 89.2754 65.5361 90.1572 64.1211 90.1504ZM62.1523 86.2812C62.1523 87.8604 62.877 89.0977 64.2852 89.0977C65.6455 89.0977 66.3975 87.9492 66.4043 86.2812C66.3975 84.6338 65.666 83.5332 64.2852 83.5332C62.8564 83.5332 62.1523 84.7295 62.1523 86.2812Z" fill="#333333"/>
<path d="M56.6699 90V82.5762H57.8047V83.7109H57.8867C58.1533 82.959 58.9258 82.46 59.8008 82.4531C59.9785 82.46 60.2793 82.4668 60.416 82.4805V83.6699C60.3271 83.6494 60.0127 83.5879 59.7051 83.5879C58.6387 83.5879 57.8457 84.3262 57.8457 85.3242V90H56.6699Z" fill="#333333"/>
<path d="M48.8223 87.8945C48.8223 86.1924 50.3262 85.8027 51.6113 85.707C52.0898 85.6729 53.2861 85.6045 53.6211 85.5977V84.9961C53.6211 84.0527 53.0605 83.5059 51.9395 83.5059C51.0029 83.5059 50.4355 83.9365 50.2715 84.5039H49.041C49.1914 83.3076 50.3535 82.4805 51.9941 82.4805C52.9648 82.4805 54.79 82.7676 54.7832 85.1055V90H53.6211V88.9883H53.5664C53.3203 89.4873 52.6436 90.1709 51.3516 90.1777C49.9434 90.1709 48.8223 89.3438 48.8223 87.8945ZM49.998 87.9492C50.0049 88.7354 50.6543 89.1318 51.5566 89.125C52.8828 89.1318 53.6211 88.2432 53.6211 87.3066V86.5615C53.2725 86.582 52.1035 86.6709 51.748 86.6914C50.6816 86.7598 50.0049 87.1357 49.998 87.9492Z" fill="#333333"/>
<path d="M43.709 90.1504C41.8564 90.1572 40.5508 88.667 40.5508 86.3086C40.5508 83.957 41.8564 82.4805 43.7227 82.4805C45.165 82.4805 45.6162 83.3555 45.8691 83.752H45.9512V80.1016H47.1406V90H45.9922V88.8652H45.8691C45.6094 89.2754 45.124 90.1572 43.709 90.1504ZM41.7402 86.2812C41.7402 87.8604 42.4648 89.0977 43.873 89.0977C45.2334 89.0977 45.9854 87.9492 45.9922 86.2812C45.9854 84.6338 45.2539 83.5332 43.873 83.5332C42.4443 83.5332 41.7402 84.7295 41.7402 86.2812Z" fill="#333333"/>
<path d="M34.2891 85.543V90H33.1133V82.5762H34.248V83.7383H34.3438C34.6924 82.9795 35.3896 82.4805 36.5176 82.4805C38.0215 82.4805 39.0264 83.3965 39.0195 85.2832V90H37.8438V85.3652C37.8438 84.2168 37.2148 83.5332 36.1621 83.5332C35.082 83.5332 34.2891 84.2578 34.2891 85.543Z" fill="#333333"/>
<path d="M28.4922 90.1504C26.3457 90.1572 25.0195 88.626 25.0195 86.3496C25.0195 84.0664 26.3662 82.4805 28.3828 82.4805C29.9414 82.4805 31.5889 83.4375 31.582 86.1855V86.6777H26.1953C26.2568 88.25 27.1729 89.1113 28.4922 89.1113C29.3809 89.1113 29.9414 88.7217 30.2148 88.2637H31.4727C31.124 89.3916 30.0234 90.1572 28.4922 90.1504ZM26.2021 85.6797H30.3926C30.3857 84.4424 29.6064 83.5195 28.3828 83.5195C27.0977 83.5195 26.2842 84.5312 26.2021 85.6797Z" fill="#333333"/>
<path d="M23.9395 82.5762V83.5605H22.3809V87.8672C22.374 88.8174 22.8525 88.9746 23.3516 88.9746C23.5635 88.9746 23.8779 88.9541 24.0488 88.9473V90.041C23.8643 90.0684 23.5771 90.0957 23.2285 90.0957C22.2373 90.0957 21.1982 89.4805 21.1914 88.168V83.5605H20.0703V82.5762H21.1914V80.7988H22.3809V82.5762H23.9395Z" fill="#333333"/>
<path d="M16.0781 90.1504C13.9316 90.1572 12.6055 88.626 12.6055 86.3496C12.6055 84.0664 13.9521 82.4805 15.9688 82.4805C17.5273 82.4805 19.1748 83.4375 19.168 86.1855V86.6777H13.7812C13.8428 88.25 14.7588 89.1113 16.0781 89.1113C16.9668 89.1113 17.5273 88.7217 17.8008 88.2637H19.0586C18.71 89.3916 17.6094 90.1572 16.0781 90.1504ZM13.7881 85.6797H17.9785C17.9717 84.4424 17.1924 83.5195 15.9688 83.5195C14.6836 83.5195 13.8701 84.5312 13.7881 85.6797Z" fill="#333333"/>
<path d="M8.3125 90V82.5762H9.44727V83.7109H9.5293C9.7959 82.959 10.5684 82.46 11.4434 82.4531C11.6211 82.46 11.9219 82.4668 12.0586 82.4805V83.6699C11.9697 83.6494 11.6553 83.5879 11.3477 83.5879C10.2812 83.5879 9.48828 84.3262 9.48828 85.3242V90H8.3125Z" fill="#333333"/>
<path d="M0 90V80.1016H3.36328C5.68066 80.1016 6.74023 81.4824 6.74023 83.2461C6.74023 85.0029 5.68066 86.4043 3.37695 86.4043H1.23047V90H0ZM1.23047 85.3105H3.32227C4.90137 85.3105 5.5166 84.4219 5.52344 83.2461C5.5166 82.0635 4.90137 81.1953 3.30859 81.1953H1.23047V85.3105Z" fill="#333333"/>
<path d="M82.8516 102.637L84.2461 105.109L85.6523 102.637H87.0234L85.043 105.812L87.0352 109H85.6758L84.2461 106.621L82.8281 109H81.457L83.4258 105.812L81.4688 102.637H82.8516Z" fill="#333333"/>
<path d="M75.0469 111.391V102.637H76.2656V103.668H76.3711C76.5938 103.27 77.0215 102.555 78.1992 102.555C79.7402 102.555 80.8711 103.762 80.8711 105.836C80.8711 107.887 79.752 109.123 78.2109 109.129C77.0566 109.123 76.5996 108.42 76.3711 108.004H76.3008V111.391H75.0469ZM76.2773 105.812C76.2773 107.148 76.8633 108.057 77.9297 108.062C79.0312 108.057 79.6055 107.09 79.6055 105.812C79.6055 104.559 79.0488 103.615 77.9297 103.621C76.8516 103.615 76.2773 104.488 76.2773 105.812Z" fill="#333333"/>
<path d="M67.8985 109V108.062L70.8399 105.098C71.7715 104.131 72.2344 103.592 72.2344 102.848C72.2344 102.01 71.5547 101.477 70.6641 101.477C69.7207 101.477 69.1231 102.074 69.1172 102.977H67.8985C67.8867 101.424 69.0703 100.398 70.6875 100.398C72.3223 100.398 73.4532 101.436 73.4649 102.812C73.4532 103.762 73.0078 104.518 71.4141 106.082L69.6914 107.828V107.898H73.6055V109H67.8985Z" fill="#333333"/>
<path d="M65.7422 100.516V109H64.4414V101.805H64.3945L62.3672 103.129V101.898L64.4766 100.516H65.7422Z" fill="#333333"/>
<path d="M54.9609 109.129C53.373 109.135 52.2539 107.857 52.2539 105.836C52.2539 103.82 53.373 102.555 54.9727 102.555C56.209 102.555 56.5957 103.305 56.8125 103.645H56.8828V100.516H57.9023V109H56.918V108.027H56.8125C56.5898 108.379 56.1738 109.135 54.9609 109.129ZM53.2734 105.812C53.2734 107.166 53.8945 108.227 55.1016 108.227C56.2676 108.227 56.9121 107.242 56.918 105.812C56.9121 104.4 56.2852 103.457 55.1016 103.457C53.877 103.457 53.2734 104.482 53.2734 105.812Z" fill="#333333"/>
<path d="M48.5742 109V102.637H49.5469V103.609H49.6172C49.8457 102.965 50.5078 102.537 51.2578 102.531C51.4102 102.537 51.668 102.543 51.7852 102.555V103.574C51.709 103.557 51.4395 103.504 51.1758 103.504C50.2617 103.504 49.582 104.137 49.582 104.992V109H48.5742Z" fill="#333333"/>
<path d="M41.8477 107.195C41.8477 105.736 43.1367 105.402 44.2383 105.32C44.6484 105.291 45.6738 105.232 45.9609 105.227V104.711C45.9609 103.902 45.4805 103.434 44.5195 103.434C43.7168 103.434 43.2305 103.803 43.0898 104.289H42.0352C42.1641 103.264 43.1602 102.555 44.5664 102.555C45.3984 102.555 46.9629 102.801 46.957 104.805V109H45.9609V108.133H45.9141C45.7031 108.561 45.123 109.146 44.0156 109.152C42.8086 109.146 41.8477 108.438 41.8477 107.195ZM42.8555 107.242C42.8613 107.916 43.418 108.256 44.1914 108.25C45.3281 108.256 45.9609 107.494 45.9609 106.691V106.053C45.6621 106.07 44.6602 106.146 44.3555 106.164C43.4414 106.223 42.8613 106.545 42.8555 107.242Z" fill="#333333"/>
<path d="M37.4648 109.129C35.877 109.135 34.7578 107.857 34.7578 105.836C34.7578 103.82 35.877 102.555 37.4766 102.555C38.7129 102.555 39.0996 103.305 39.3164 103.645H39.3867V100.516H40.4062V109H39.4219V108.027H39.3164C39.0938 108.379 38.6777 109.135 37.4648 109.129ZM35.7773 105.812C35.7773 107.166 36.3984 108.227 37.6055 108.227C38.7715 108.227 39.416 107.242 39.4219 105.812C39.416 104.4 38.7891 103.457 37.6055 103.457C36.3809 103.457 35.7773 104.482 35.7773 105.812Z" fill="#333333"/>
<path d="M29.3906 105.18V109H28.3828V102.637H29.3555V103.633H29.4375C29.7363 102.982 30.334 102.555 31.3008 102.555C32.5898 102.555 33.4512 103.34 33.4453 104.957V109H32.4375V105.027C32.4375 104.043 31.8984 103.457 30.9961 103.457C30.0703 103.457 29.3906 104.078 29.3906 105.18Z" fill="#333333"/>
<path d="M24.4219 109.129C22.582 109.135 21.4453 107.822 21.4453 105.871C21.4453 103.914 22.5996 102.555 24.3281 102.555C25.6641 102.555 27.0762 103.375 27.0703 105.73V106.152H22.4531C22.5059 107.5 23.291 108.238 24.4219 108.238C25.1836 108.238 25.6641 107.904 25.8984 107.512H26.9766C26.6777 108.479 25.7344 109.135 24.4219 109.129ZM22.459 105.297H26.0508C26.0449 104.236 25.377 103.445 24.3281 103.445C23.2266 103.445 22.5293 104.312 22.459 105.297Z" fill="#333333"/>
<path d="M20.5195 102.637V103.48H19.1836V107.172C19.1777 107.986 19.5879 108.121 20.0156 108.121C20.1973 108.121 20.4668 108.104 20.6133 108.098V109.035C20.4551 109.059 20.209 109.082 19.9102 109.082C19.0605 109.082 18.1699 108.555 18.1641 107.43V103.48H17.2031V102.637H18.1641V101.113H19.1836V102.637H20.5195Z" fill="#333333"/>
<path d="M13.7812 109.129C11.9414 109.135 10.8047 107.822 10.8047 105.871C10.8047 103.914 11.959 102.555 13.6875 102.555C15.0234 102.555 16.4355 103.375 16.4297 105.73V106.152H11.8125C11.8652 107.5 12.6504 108.238 13.7812 108.238C14.543 108.238 15.0234 107.904 15.2578 107.512H16.3359C16.0371 108.479 15.0938 109.135 13.7812 109.129ZM11.8184 105.297H15.4102C15.4043 104.236 14.7363 103.445 13.6875 103.445C12.5859 103.445 11.8887 104.312 11.8184 105.297Z" fill="#333333"/>
<path d="M7.125 109V102.637H8.09766V103.609H8.16797C8.39648 102.965 9.05859 102.537 9.80859 102.531C9.96094 102.537 10.2188 102.543 10.3359 102.555V103.574C10.2598 103.557 9.99023 103.504 9.72656 103.504C8.8125 103.504 8.13281 104.137 8.13281 104.992V109H7.125Z" fill="#333333"/>
<path d="M0 109V100.516H2.88281C4.86914 100.516 5.77734 101.699 5.77734 103.211C5.77734 104.717 4.86914 105.918 2.89453 105.918H1.05469V109H0ZM1.05469 104.98H2.84766C4.20117 104.98 4.72852 104.219 4.73438 103.211C4.72852 102.197 4.20117 101.453 2.83594 101.453H1.05469V104.98Z" fill="#333333"/>
</svg>
