<svg width="72" height="112" viewBox="0 0 72 112" fill="none" xmlns="http://www.w3.org/2000/svg">
<path d="M37.2657 39.3945L39.59 43.5156L41.9337 39.3945H44.2189L40.9181 44.6875L44.2384 50H41.9728L39.59 46.0352L37.2267 50H34.9415L38.2228 44.6875L34.9611 39.3945H37.2657Z" fill="#333333"/>
<path d="M24.2579 53.9844V39.3945H26.2892V41.1133H26.465C26.8361 40.4492 27.549 39.2578 29.5118 39.2578C32.0802 39.2578 33.965 41.2695 33.965 44.7266C33.965 48.1445 32.0997 50.2051 29.5314 50.2148C27.6075 50.2051 26.8458 49.0332 26.465 48.3398H26.3478V53.9844H24.2579ZM26.3087 44.6875C26.3087 46.9141 27.2853 48.4277 29.0626 48.4375C30.8986 48.4277 31.8556 46.8164 31.8556 44.6875C31.8556 42.5977 30.9279 41.0254 29.0626 41.0352C27.2657 41.0254 26.3087 42.4805 26.3087 44.6875Z" fill="#333333"/>
<path d="M16.8165 50.1953C13.545 50.1953 11.6212 47.5586 11.6212 42.9297C11.6212 38.3301 13.5646 35.6641 16.8165 35.6641C20.0587 35.6641 22.0021 38.3301 22.0118 42.9297C22.0021 47.5586 20.088 50.1953 16.8165 50.1953ZM13.7697 42.9297C13.7599 46.4551 14.9025 48.3398 16.8165 48.3398C18.7208 48.3398 19.8634 46.4551 19.8634 42.9297C19.8634 39.4141 18.7111 37.4902 16.8165 37.4805C14.9122 37.4902 13.7697 39.4141 13.7697 42.9297Z" fill="#333333"/>
<path d="M0.000143762 50V48.4375L4.90249 43.4961C6.45522 41.8848 7.22671 40.9863 7.22671 39.7461C7.22671 38.3496 6.09389 37.4609 4.60952 37.4609C3.03725 37.4609 2.04116 38.457 2.03139 39.9609H0.000143762C-0.0193875 37.373 1.95327 35.6641 4.64858 35.6641C7.37319 35.6641 9.25796 37.3926 9.27749 39.6875C9.25796 41.2695 8.51577 42.5293 5.85952 45.1367L2.98843 48.0469V48.1641H9.51186V50H0.000143762Z" fill="#333333"/>
<path d="M59.9688 6.03125L63.6875 12.625L67.4375 6.03125H71.0938L65.8125 14.5L71.125 23H67.5L63.6875 16.6562L59.9062 23H56.25L61.5 14.5L56.2812 6.03125H59.9688Z" fill="#333333"/>
<path d="M39.1562 29.375V6.03125H42.4062V8.78125H42.6875C43.2812 7.71875 44.4219 5.8125 47.5625 5.8125C51.6719 5.8125 54.6875 9.03125 54.6875 14.5625C54.6875 20.0312 51.7031 23.3281 47.5938 23.3438C44.5156 23.3281 43.2969 21.4531 42.6875 20.3438H42.5V29.375H39.1562ZM42.4375 14.5C42.4375 18.0625 44 20.4844 46.8438 20.5C49.7812 20.4844 51.3125 17.9062 51.3125 14.5C51.3125 11.1562 49.8281 8.64062 46.8438 8.65625C43.9688 8.64062 42.4375 10.9688 42.4375 14.5Z" fill="#333333"/>
<path d="M20.0937 23V20.5L27.9375 12.5938C30.4219 10.0156 31.6562 8.57812 31.6562 6.59375C31.6562 4.35938 29.8437 2.9375 27.4687 2.9375C24.9531 2.9375 23.3594 4.53125 23.3437 6.9375H20.0937C20.0625 2.79688 23.2187 0.0625 27.5312 0.0625C31.8906 0.0625 34.9062 2.82812 34.9375 6.5C34.9062 9.03125 33.7187 11.0469 29.4687 15.2188L24.875 19.875V20.0625H35.3125V23H20.0937Z" fill="#333333"/>
<path d="M8.15625 23.3125C3.46875 23.3125 0.140625 20.7969 0 17.0938H3.5C3.625 19.0781 5.59375 20.3438 8.125 20.3438C10.8594 20.3438 12.8438 18.8594 12.8438 16.6562C12.8438 14.4219 10.9844 12.8281 7.75 12.8125H5.8125V10H7.75C10.3281 10.0156 12.125 8.57812 12.125 6.40625C12.125 4.34375 10.5781 2.9375 8.1875 2.9375C5.92188 2.9375 3.89062 4.20312 3.8125 6.25H0.5C0.59375 2.5625 4 0.0625 8.21875 0.0625C12.6719 0.0625 15.4688 2.875 15.4375 6.21875C15.4688 8.79688 13.875 10.6406 11.4375 11.25V11.4062C14.5312 11.8438 16.3281 13.9219 16.3125 16.7812C16.3281 20.5469 12.8438 23.3125 8.15625 23.3125Z" fill="#333333"/>
<path d="M27.7656 62.5156L29.625 65.8125L31.5 62.5156H33.3281L30.6875 66.75L33.3438 71H31.5312L29.625 67.8281L27.7344 71H25.9062L28.5312 66.75L25.9219 62.5156H27.7656Z" fill="#333333"/>
<path d="M17.3594 74.1875V62.5156H18.9844V63.8906H19.125C19.4219 63.3594 19.9922 62.4062 21.5625 62.4062C23.6172 62.4062 25.125 64.0156 25.125 66.7812C25.125 69.5156 23.6328 71.1641 21.5781 71.1719C20.0391 71.1641 19.4297 70.2266 19.125 69.6719H19.0312V74.1875H17.3594ZM19 66.75C19 68.5312 19.7812 69.7422 21.2031 69.75C22.6719 69.7422 23.4375 68.4531 23.4375 66.75C23.4375 65.0781 22.6953 63.8203 21.2031 63.8281C19.7656 63.8203 19 64.9844 19 66.75Z" fill="#333333"/>
<path d="M11.4688 71.1562C9.375 71.1406 7.1875 69.8984 7.1875 65.7188C7.19531 61.7812 8.89844 59.5312 11.6094 59.5312C13.6953 59.5312 15.1406 60.8281 15.4062 62.625H13.7031C13.4766 61.7031 12.75 61.0391 11.6094 61.0312C9.85938 61.0391 8.84375 62.5547 8.84375 65.1094H8.96875C9.58594 64.1484 10.6484 63.5859 11.875 63.5781C13.8906 63.5859 15.5156 65.1328 15.5156 67.2969C15.5156 69.4922 13.8984 71.1719 11.4688 71.1562ZM9.04688 67.3438C9.05469 68.6016 10.0625 69.7109 11.4531 69.7188C12.8203 69.7109 13.8438 68.6484 13.8438 67.3281C13.8438 66.0312 12.8594 64.9766 11.5 64.9844C10.1172 64.9766 9.0625 66.0859 9.04688 67.3438Z" fill="#333333"/>
<path d="M4.5 59.6875V71H2.76562V61.4062H2.70312L0 63.1719V61.5312L2.8125 59.6875H4.5Z" fill="#333333"/>
<path d="M24.459 82.5762L26.0859 85.4609L27.7266 82.5762H29.3262L27.0156 86.2812L29.3398 90H27.7539L26.0859 87.2246L24.4316 90H22.832L25.1289 86.2812L22.8457 82.5762H24.459Z" fill="#333333"/>
<path d="M15.3535 92.7891V82.5762H16.7754V83.7793H16.8984C17.1582 83.3145 17.6572 82.4805 19.0312 82.4805C20.8291 82.4805 22.1484 83.8887 22.1484 86.3086C22.1484 88.7012 20.8428 90.1436 19.0449 90.1504C17.6982 90.1436 17.165 89.3232 16.8984 88.8379H16.8164V92.7891H15.3535ZM16.7891 86.2812C16.7891 87.8398 17.4727 88.8994 18.7168 88.9062C20.002 88.8994 20.6719 87.7715 20.6719 86.2812C20.6719 84.8184 20.0225 83.7178 18.7168 83.7246C17.459 83.7178 16.7891 84.7363 16.7891 86.2812Z" fill="#333333"/>
<path d="M6.23438 88.0723V86.8555L10.6094 80.1016H12.4688V86.8008H13.8223V88.0723H12.4688V90H11.0469V88.0723H6.23438ZM7.82031 86.8008H11.0469V81.8926H10.9375L7.82031 86.7188V86.8008Z" fill="#333333"/>
<path d="M3.9375 80.1016V90H2.41992V81.6055H2.36523L0 83.1504V81.7148L2.46094 80.1016H3.9375Z" fill="#333333"/>
<path d="M20.4844 102.637L21.8789 105.109L23.2852 102.637H24.6562L22.6758 105.812L24.668 109H23.3086L21.8789 106.621L20.4609 109H19.0898L21.0586 105.812L19.1016 102.637H20.4844Z" fill="#333333"/>
<path d="M12.6797 111.391V102.637H13.8984V103.668H14.0039C14.2266 103.27 14.6543 102.555 15.832 102.555C17.373 102.555 18.5039 103.762 18.5039 105.836C18.5039 107.887 17.3848 109.123 15.8438 109.129C14.6895 109.123 14.2324 108.42 14.0039 108.004H13.9336V111.391H12.6797ZM13.9102 105.812C13.9102 107.148 14.4961 108.057 15.5625 108.062C16.6641 108.057 17.2383 107.09 17.2383 105.812C17.2383 104.559 16.6816 103.615 15.5625 103.621C14.4844 103.615 13.9102 104.488 13.9102 105.812Z" fill="#333333"/>
<path d="M5.53128 109V108.062L8.47268 105.098C9.40432 104.131 9.86721 103.592 9.86721 102.848C9.86721 102.01 9.18753 101.477 8.2969 101.477C7.35354 101.477 6.75588 102.074 6.75003 102.977H5.53128C5.51956 101.424 6.70315 100.398 8.32034 100.398C9.9551 100.398 11.086 101.436 11.0977 102.812C11.086 103.762 10.6407 104.518 9.0469 106.082L7.32424 107.828V107.898H11.2383V109H5.53128Z" fill="#333333"/>
<path d="M3.375 100.516V109H2.07422V101.805H2.02734L0 103.129V101.898L2.10938 100.516H3.375Z" fill="#333333"/>
</svg>
