<svg width="442" height="173" viewBox="0 0 442 173" fill="none" xmlns="http://www.w3.org/2000/svg">
<path d="M442 0L118.638 153.952C91.8228 166.637 69.299 173 51.0848 173C30.458 173 15.4851 164.928 6.20304 148.762C0.364907 138.384 -1.34786 125.225 1.04633 109.265C3.44051 93.3059 9.81273 76.3169 20.1261 58.2364C28.7268 43.6155 42.8157 24.4024 62.4296 0.576596C55.7768 12.287 50.8983 25.145 47.9908 38.6321C42.8341 63.2404 47.4751 81.3003 61.9139 92.8323C68.7834 98.207 78.2312 100.905 90.2758 100.905C99.8893 100.905 110.718 99.1749 122.763 95.7153L442 0Z" fill="black"/>
</svg>
