<svg width="1748" height="684" viewBox="0 0 1748 684" fill="none" xmlns="http://www.w3.org/2000/svg">
<path d="M1748 0L469.182 608.688C363.136 658.842 274.06 684 202.028 684C120.454 684 61.2397 652.084 24.5315 588.17C1.44312 547.135 -5.33043 495.108 4.13797 432.009C13.6064 368.909 38.8069 301.738 79.5939 230.253C113.607 172.445 169.325 96.4814 246.893 2.27972C220.583 48.5799 201.29 99.4172 189.792 152.742C169.398 250.037 187.752 321.442 244.854 367.036C272.021 388.287 309.385 398.952 357.018 398.952C395.038 398.952 437.864 392.113 485.497 378.435L1748 0Z" fill="black"/>
</svg>
