<svg width="1719" height="2079" viewBox="0 0 1719 2079" fill="none" xmlns="http://www.w3.org/2000/svg">
<path d="M559.871 166.434L1004.51 212.73L1286.17 559.871L1239.88 1004.51L892.738 1286.17L448.102 1239.88L166.434 892.738L212.73 448.102L559.871 166.434Z" fill="#5CA775" fill-opacity="0.95"/>
<path d="M1143.85 295.749L1528.44 438.726L1699.29 811.775L1556.32 1196.37L1183.27 1367.22L798.671 1224.24L627.821 851.194L770.798 466.599L1143.85 295.749Z" fill="#F1D566" fill-opacity="0.7"/>
<path d="M1102.29 809.276L1417.34 856.181L1606.95 1112.12L1560.05 1427.18L1304.1 1616.79L989.048 1569.88L799.439 1313.94L846.344 998.886L1102.29 809.276Z" fill="#804FD0" fill-opacity="0.8"/>
<path d="M783.912 1151.12L1098.49 1101.12L1356.29 1288.2L1406.29 1602.78L1219.21 1860.57L904.629 1910.57L646.832 1723.49L596.83 1408.92L783.912 1151.12Z" fill="#EBAA70" fill-opacity="0.8"/>
</svg>
