<svg width="252" height="278" viewBox="0 0 252 278" fill="none" xmlns="http://www.w3.org/2000/svg">
<path fill-rule="evenodd" clip-rule="evenodd" d="M97.0818 133.401C77.4438 123.717 63.3755 104.456 60.9744 81.7158C39.3674 92.3708 24.5029 114.62 24.5029 140.34C24.5029 176.419 53.7503 205.666 89.8287 205.666C103.178 205.666 115.593 201.662 125.936 194.789C108.325 183.087 96.7176 163.069 96.7176 140.34C96.7176 137.996 96.841 135.681 97.0818 133.401Z" fill="#C21920" fill-opacity="0.8"/>
<path fill-rule="evenodd" clip-rule="evenodd" d="M107.226 127.81L106.53 134.399C106.324 136.349 106.219 138.331 106.219 140.341C106.219 159.754 116.121 176.859 131.194 186.875L143.104 194.789L131.194 202.703C119.34 210.58 105.105 215.169 89.8277 215.169C48.5015 215.169 15 181.667 15 140.341C15 110.865 32.044 85.3881 56.771 73.1945L68.9921 67.168L70.4229 80.7189C72.4715 100.122 84.4826 116.595 101.283 124.88L107.226 127.81ZM60.9735 81.7166C57.8692 83.2474 54.9042 85.0174 52.1024 87.0027C35.4021 98.8361 24.5019 118.315 24.5019 140.341C24.5019 176.419 53.7493 205.667 89.8277 205.667C99.4164 205.667 108.523 203.601 116.726 199.89C119.943 198.434 123.021 196.726 125.935 194.789C123.12 192.919 120.458 190.836 117.973 188.563C104.91 176.618 96.7166 159.436 96.7166 140.341C96.7166 137.997 96.84 135.682 97.0808 133.402C80.3294 125.141 67.6306 109.912 62.7691 91.4994C61.9314 88.3266 61.3264 85.0592 60.9735 81.7166Z" fill="#F3F4F3"/>
<path fill-rule="evenodd" clip-rule="evenodd" d="M191.261 74.8267C191.261 77.1707 191.137 79.4857 190.897 81.7659C182.195 77.475 172.4 75.0643 162.042 75.0643C148.693 75.0643 136.279 79.0686 125.935 85.9416C115.592 79.0686 103.177 75.0643 89.8278 75.0643C79.4699 75.0643 69.675 77.475 60.9736 81.7659C60.7328 79.4857 60.6094 77.1707 60.6094 74.8267C60.6094 38.7483 89.8567 9.50098 125.935 9.50098C162.014 9.50098 191.261 38.7483 191.261 74.8267Z" fill="#DAD0C7" fill-opacity="0.8"/>
<path fill-rule="evenodd" clip-rule="evenodd" d="M198.915 96.3155L186.694 90.2889C179.271 86.6283 170.911 84.5672 162.042 84.5672C150.621 84.5672 140.027 87.987 131.194 93.8566L125.935 97.3509L120.676 93.8566C111.843 87.987 101.249 84.5672 89.8278 84.5672C80.9593 84.5672 72.5993 86.6283 65.176 90.2889L52.9549 96.3154L51.5241 82.7645C51.2485 80.1536 51.1074 77.5055 51.1074 74.8277C51.1074 33.5015 84.6089 0 125.935 0C167.261 0 200.763 33.5015 200.763 74.8277C200.763 77.5055 200.622 80.1536 200.346 82.7645L198.915 96.3155ZM190.897 81.7668C191.137 79.4867 191.261 77.1716 191.261 74.8277C191.261 73.6945 191.232 72.568 191.175 71.449C189.417 36.9408 160.88 9.50193 125.935 9.50193C90.9899 9.50193 62.4534 36.9408 60.6952 71.449C60.6382 72.568 60.6094 73.6945 60.6094 74.8277C60.6094 77.1716 60.7328 79.4867 60.9735 81.7668C63.9308 80.3085 67.0143 79.0674 70.2033 78.0643C76.3977 76.1158 82.99 75.0652 89.8278 75.0652C103.177 75.0652 115.592 79.0695 125.935 85.9425C136.279 79.0695 148.693 75.0652 162.042 75.0652C168.88 75.0652 175.473 76.1158 181.667 78.0643C184.856 79.0674 187.939 80.3085 190.897 81.7668Z" fill="#F3F4F3"/>
<path fill-rule="evenodd" clip-rule="evenodd" d="M190.659 81.7158C188.258 104.456 174.189 123.717 154.552 133.401C154.792 135.681 154.916 137.996 154.916 140.34C154.916 163.069 143.308 183.087 125.697 194.789C136.041 201.661 148.455 205.666 161.805 205.666C197.883 205.666 227.13 176.418 227.13 140.34C227.13 114.62 212.266 92.3708 190.659 81.7158Z" fill="#F4B01B"/>
<path fill-rule="evenodd" clip-rule="evenodd" d="M182.64 67.168L194.861 73.1945C219.588 85.3881 236.632 110.865 236.632 140.341C236.632 181.667 203.131 215.168 161.805 215.168C146.527 215.168 132.292 210.58 120.439 202.703L108.528 194.789L120.439 186.875C135.512 176.859 145.414 159.754 145.414 140.341C145.414 138.331 145.308 136.349 145.102 134.399L144.406 127.81L150.349 124.88C167.15 116.595 179.161 100.122 181.209 80.7189L182.64 67.168ZM133.66 188.563C146.723 176.618 154.916 159.436 154.916 140.341C154.916 137.997 154.792 135.682 154.552 133.402C171.303 125.141 184.002 109.912 188.863 91.4994C189.701 88.3266 190.306 85.0592 190.659 81.7166C193.763 83.2474 196.728 85.0174 199.53 87.0027C216.23 98.8361 227.13 118.315 227.13 140.341C227.13 176.419 197.883 205.667 161.805 205.667C152.216 205.667 143.11 203.601 134.907 199.89C131.69 198.434 128.611 196.726 125.697 194.789C128.513 192.919 131.174 190.835 133.66 188.563Z" fill="#F3F4F3"/>
<path fill-rule="evenodd" clip-rule="evenodd" d="M89.9392 75.0645C79.5813 75.0645 69.7864 77.4751 61.085 81.766C63.486 104.506 77.5543 123.767 97.1923 133.451C99.2861 113.621 110.252 96.4369 126.047 85.9417C115.703 79.0687 103.289 75.0645 89.9392 75.0645Z" fill="#EF897F"/>
<path fill-rule="evenodd" clip-rule="evenodd" d="M97.0818 133.401C77.4438 123.717 63.3755 104.456 60.9744 81.7158C39.3674 92.3708 24.5029 114.62 24.5029 140.34C24.5029 176.419 53.7503 205.666 89.8287 205.666C103.178 205.666 115.593 201.662 125.936 194.789C108.325 183.087 96.7176 163.069 96.7176 140.34C96.7176 137.996 96.841 135.681 97.0818 133.401Z" fill="#C21920"/>
<path fill-rule="evenodd" clip-rule="evenodd" d="M126.046 85.9932C141.84 96.4883 152.806 113.673 154.9 133.503C146.198 137.793 136.404 140.204 126.046 140.204C115.688 140.204 105.893 137.793 97.1914 133.503C99.2852 113.673 110.251 96.4883 126.046 85.9932Z" fill="#542623"/>
<path fill-rule="evenodd" clip-rule="evenodd" d="M154.552 133.451C174.19 123.767 188.258 104.506 190.659 81.766C181.957 77.4751 172.163 75.0645 161.805 75.0645C148.455 75.0645 136.041 79.0687 125.697 85.9417C141.492 96.4369 152.458 113.621 154.552 133.451Z" fill="#F6DD73"/>
<path fill-rule="evenodd" clip-rule="evenodd" d="M191.261 74.8267C191.261 77.1707 191.137 79.4857 190.897 81.7659C182.195 77.475 172.4 75.0643 162.042 75.0643C148.693 75.0643 136.279 79.0686 125.935 85.9416C115.592 79.0686 103.177 75.0643 89.8278 75.0643C79.4699 75.0643 69.675 77.475 60.9736 81.7659C60.7328 79.4857 60.6094 77.1707 60.6094 74.8267C60.6094 38.7483 89.8567 9.50098 125.935 9.50098C162.014 9.50098 191.261 38.7483 191.261 74.8267Z" fill="#DAD0C7"/>
<path fill-rule="evenodd" clip-rule="evenodd" d="M190.659 81.7158C188.258 104.456 174.189 123.717 154.552 133.401C154.792 135.681 154.916 137.996 154.916 140.34C154.916 163.069 143.308 183.087 125.697 194.789C136.041 201.661 148.455 205.666 161.805 205.666C197.883 205.666 227.13 176.418 227.13 140.34C227.13 114.62 212.266 92.3708 190.659 81.7158Z" fill="#F4B01B"/>
<path fill-rule="evenodd" clip-rule="evenodd" d="M154.789 133.502C146.088 137.793 136.293 140.204 125.935 140.204C115.577 140.204 105.782 137.793 97.081 133.502C96.8402 135.782 96.7168 138.097 96.7168 140.441C96.7168 163.17 108.325 183.188 125.935 194.889C143.546 183.188 155.154 163.17 155.154 140.441C155.154 138.097 155.03 135.782 154.789 133.502Z" fill="#EB5E3C"/>
<path d="M251.63 227.873V257.511H245.877V227.873H251.63ZM222.747 244.901C220.849 247.961 218.466 250.479 215.599 252.455C212.732 254.392 209.555 255.594 206.068 256.058V250.712C209.129 250.17 211.822 248.833 214.146 246.702C216.471 244.571 218.253 241.917 219.493 238.74C220.771 235.525 221.43 232.057 221.469 228.338L227.222 228.687C227.222 232.755 226.505 236.61 225.072 240.251L240.821 251.177L237.566 255.361L222.747 244.901ZM209.09 260.243H251.63V277.503H245.818V265.24H209.09V260.243Z" fill="#E04B33"/>
<path d="M182.805 249.318H140.382V228.164H146.077V234.15H177.168V228.164H182.805V249.318ZM177.168 244.727V238.567H146.077V244.727H177.168ZM186.408 254.199V259.081H164.499V266.81H158.688V259.081H136.837V254.199H186.408ZM146.135 272.04H183.851V276.922H140.266V263.556H146.135V272.04Z" fill="#E04B33"/>
<path d="M85.1547 246.354C83.4113 248.872 81.1836 250.945 78.4716 252.572C75.7596 254.161 72.7183 255.149 69.3477 255.536V250.538C73.0282 249.996 76.0502 248.543 78.4135 246.18C80.7768 243.778 82.2684 240.814 82.8883 237.288H69.8707V232.465H83.0045V227.002H88.8159V232.465H101.775V237.288H88.7578C88.5253 238.838 88.1185 240.388 87.5374 241.937L102.531 250.713L99.9157 255.071L85.1547 246.354ZM115.084 227.874V255.536H109.33V244.669H99.7995V239.555H109.33V227.874H115.084ZM109.33 258.267H115.084V276.864H72.8345V258.267H78.5878V262.8H109.33V258.267ZM109.33 272.273V267.333H78.5878V272.273H109.33Z" fill="#E04B33"/>
<path d="M51.7797 242.808H44.806V254.838H39.0527V227.873H44.806V237.346H51.7797V242.808ZM16.6207 243.331C14.761 246.16 12.4171 248.484 9.58884 250.305C6.76062 252.126 3.56434 253.269 0 253.734V248.504C3.06068 247.961 5.71456 246.741 7.96164 244.842C10.2475 242.944 11.9909 240.561 13.1919 237.694C14.3929 234.827 15.0128 231.709 15.0516 228.338L20.8049 228.687C20.8049 232.29 20.185 235.66 18.9452 238.799L34.4617 248.852L31.4979 253.095L16.6207 243.331ZM3.31251 257.569H44.806V276.863H3.31251V257.569ZM9.06581 272.04H39.0527V262.451H9.06581V272.04Z" fill="#E04B33"/>
</svg>
