<svg width="1631" height="1583" viewBox="0 0 1631 1583" fill="none" xmlns="http://www.w3.org/2000/svg">
<path fill-rule="evenodd" clip-rule="evenodd" d="M603.74 981.22C459.294 909.99 355.815 768.318 338.154 601.054C179.225 679.426 69.8906 843.075 69.8906 1032.26C69.8906 1297.63 285.017 1512.76 550.39 1512.76C648.582 1512.76 739.894 1483.31 815.975 1432.75C686.441 1346.68 601.061 1199.44 601.061 1032.26C601.061 1015.02 601.969 997.991 603.74 981.22Z" fill="#C21920" fill-opacity="0.8"/>
<path fill-rule="evenodd" clip-rule="evenodd" d="M678.362 940.098L673.244 988.565C671.73 1002.9 670.952 1017.48 670.952 1032.27C670.952 1175.06 743.785 1300.88 854.655 1374.55L942.26 1432.76L854.655 1490.97C767.467 1548.9 662.764 1582.66 550.39 1582.66C246.418 1582.66 0 1336.24 0 1032.27C0 815.461 125.366 628.066 307.244 538.377L397.135 494.049L407.659 593.722C422.728 736.44 511.075 857.604 634.651 918.543L678.362 940.098ZM338.155 601.06C315.322 612.32 293.513 625.339 272.904 639.942C150.067 726.982 69.8908 870.261 69.8908 1032.27C69.8908 1297.64 285.018 1512.77 550.39 1512.77C620.919 1512.77 687.9 1497.57 748.235 1470.27C771.9 1459.57 794.542 1447 815.975 1432.76C795.268 1419 775.689 1403.68 757.407 1386.96C661.325 1299.1 601.061 1172.72 601.061 1032.27C601.061 1015.03 601.969 997.998 603.74 981.226C480.526 920.466 387.121 808.451 351.363 673.017C345.201 649.68 340.751 625.646 338.155 601.06Z" fill="#F3F4F3"/>
<path fill-rule="evenodd" clip-rule="evenodd" d="M1296.48 550.386C1296.48 567.627 1295.57 584.655 1293.8 601.426C1229.8 569.865 1157.75 552.133 1081.56 552.133C983.372 552.133 892.06 581.587 815.979 632.14C739.898 581.587 648.586 552.133 550.394 552.133C474.207 552.133 402.161 569.865 338.158 601.426C336.387 584.655 335.479 567.627 335.479 550.386C335.479 285.014 550.606 69.8867 815.979 69.8867C1081.35 69.8867 1296.48 285.014 1296.48 550.386Z" fill="#DAD0C7" fill-opacity="0.8"/>
<path fill-rule="evenodd" clip-rule="evenodd" d="M1352.77 708.442L1262.88 664.114C1208.28 637.188 1146.79 622.028 1081.56 622.028C997.549 622.028 919.627 647.182 854.653 690.356L815.973 716.058L777.293 690.356C712.319 647.182 634.397 622.028 550.388 622.028C485.156 622.028 423.665 637.188 369.064 664.114L279.172 708.442L268.648 608.769C266.62 589.564 265.583 570.086 265.583 550.39C265.583 246.418 512.001 0 815.973 0C1119.95 0 1366.36 246.418 1366.36 550.39C1366.36 570.087 1365.33 589.565 1363.3 608.769L1352.77 708.442ZM1293.79 601.43C1295.56 584.659 1296.47 567.631 1296.47 550.39C1296.47 542.055 1296.26 533.769 1295.84 525.538C1282.91 271.716 1073.01 69.8908 815.973 69.8908C558.936 69.8908 349.038 271.716 336.105 525.538C335.686 533.769 335.474 542.055 335.474 550.39C335.474 567.631 336.382 584.659 338.153 601.43C359.904 590.704 382.585 581.575 406.041 574.197C451.604 559.865 500.093 552.137 550.388 552.137C648.58 552.137 739.892 581.591 815.973 632.144C892.054 581.591 983.366 552.137 1081.56 552.137C1131.85 552.137 1180.34 559.865 1225.9 574.197C1249.36 581.575 1272.04 590.704 1293.79 601.43Z" fill="#F3F4F3"/>
<path fill-rule="evenodd" clip-rule="evenodd" d="M1292.05 601.054C1274.39 768.317 1170.91 909.99 1026.46 981.22C1028.23 997.991 1029.14 1015.02 1029.14 1032.26C1029.14 1199.44 943.761 1346.68 814.227 1432.75C890.307 1483.31 981.62 1512.76 1079.81 1512.76C1345.18 1512.76 1560.31 1297.63 1560.31 1032.26C1560.31 843.075 1450.98 679.426 1292.05 601.054Z" fill="#F4B01B"/>
<path fill-rule="evenodd" clip-rule="evenodd" d="M1233.07 494.049L1322.96 538.377C1504.84 628.066 1630.2 815.461 1630.2 1032.27C1630.2 1336.24 1383.79 1582.66 1079.81 1582.66C967.44 1582.66 862.737 1548.9 775.549 1490.97L687.944 1432.76L775.549 1374.55C886.419 1300.88 959.253 1175.06 959.253 1032.27C959.253 1017.48 958.474 1002.9 956.961 988.565L951.843 940.098L995.554 918.543C1119.13 857.604 1207.48 736.44 1222.55 593.722L1233.07 494.049ZM872.797 1386.96C968.879 1299.1 1029.14 1172.72 1029.14 1032.27C1029.14 1015.03 1028.24 997.998 1026.47 981.226C1149.68 920.466 1243.08 808.451 1278.84 673.017C1285 649.68 1289.45 625.646 1292.05 601.06C1314.88 612.32 1336.69 625.339 1357.3 639.942C1480.14 726.981 1560.31 870.261 1560.31 1032.27C1560.31 1297.64 1345.19 1512.77 1079.81 1512.77C1009.29 1512.77 942.305 1497.57 881.969 1470.27C858.305 1459.57 835.663 1447 814.23 1432.76C834.937 1419 854.515 1403.68 872.797 1386.96Z" fill="#F3F4F3"/>
<path fill-rule="evenodd" clip-rule="evenodd" d="M551.206 552.133C475.019 552.133 402.973 569.864 338.971 601.426C356.631 768.69 460.11 910.362 604.556 981.593C619.956 835.734 700.615 709.336 816.792 632.14C740.711 581.586 649.398 552.133 551.206 552.133Z" fill="#EF897F"/>
<path fill-rule="evenodd" clip-rule="evenodd" d="M603.74 981.22C459.294 909.99 355.815 768.318 338.154 601.054C179.225 679.426 69.8906 843.075 69.8906 1032.26C69.8906 1297.63 285.017 1512.76 550.39 1512.76C648.582 1512.76 739.894 1483.31 815.975 1432.75C686.441 1346.68 601.061 1199.44 601.061 1032.26C601.061 1015.02 601.969 997.991 603.74 981.22Z" fill="#C21920"/>
<path fill-rule="evenodd" clip-rule="evenodd" d="M816.79 632.518C932.966 709.714 1013.63 836.112 1029.03 981.97C965.023 1013.53 892.977 1031.26 816.79 1031.26C740.603 1031.26 668.557 1013.53 604.555 981.97C619.955 836.112 700.614 709.714 816.79 632.518Z" fill="#542623"/>
<path fill-rule="evenodd" clip-rule="evenodd" d="M1026.46 981.593C1170.91 910.362 1274.39 768.69 1292.05 601.426C1228.04 569.864 1156 552.133 1079.81 552.133C981.62 552.133 890.307 581.586 814.227 632.14C930.403 709.336 1011.06 835.734 1026.46 981.593Z" fill="#F6DD73"/>
<path fill-rule="evenodd" clip-rule="evenodd" d="M1296.48 550.386C1296.48 567.627 1295.57 584.655 1293.8 601.426C1229.8 569.865 1157.75 552.133 1081.56 552.133C983.372 552.133 892.06 581.587 815.979 632.14C739.898 581.587 648.586 552.133 550.394 552.133C474.207 552.133 402.161 569.865 338.158 601.426C336.387 584.655 335.479 567.627 335.479 550.386C335.479 285.014 550.606 69.8867 815.979 69.8867C1081.35 69.8867 1296.48 285.014 1296.48 550.386Z" fill="#DAD0C7"/>
<path fill-rule="evenodd" clip-rule="evenodd" d="M1292.05 601.054C1274.39 768.317 1170.91 909.99 1026.46 981.22C1028.23 997.991 1029.14 1015.02 1029.14 1032.26C1029.14 1199.44 943.761 1346.68 814.227 1432.75C890.307 1483.31 981.62 1512.76 1079.81 1512.76C1345.18 1512.76 1560.31 1297.63 1560.31 1032.26C1560.31 843.075 1450.98 679.426 1292.05 601.054Z" fill="#F4B01B"/>
<path fill-rule="evenodd" clip-rule="evenodd" d="M1028.21 981.965C964.21 1013.53 892.164 1031.26 815.977 1031.26C739.79 1031.26 667.744 1013.53 603.741 981.965C601.97 998.736 601.062 1015.76 601.062 1033C601.062 1200.18 686.442 1347.42 815.977 1433.5C945.511 1347.42 1030.89 1200.18 1030.89 1033C1030.89 1015.76 1029.98 998.736 1028.21 981.965Z" fill="#EB5E3C"/>
</svg>
