<svg width="1748" height="612" viewBox="0 0 1748 612" fill="none" xmlns="http://www.w3.org/2000/svg">
<path d="M0 108.304H108.9L148.021 397.372L160.606 396.533L206.264 108.304H293.664L337.469 384.795L350.124 383.956L391.552 0H499.928L409.277 503.266L296.286 510.777L255.453 253.292H244.475L202.663 516.996L96.14 524.053L0 108.304Z" fill="#FF0558"/>
<path d="M535.448 108.305L465.213 503.091H549.816L559.36 439.296H639.419L648.753 503.091H734.16L663.121 108.305H535.448ZM570.023 367.501L594.495 203.298H604.983L629.035 367.501H570.023Z" fill="#FF0558"/>
<path d="M1676.96 108.305H1549.29L1479.05 503.091H1563.66L1573.2 439.296H1653.26L1662.59 503.091H1748L1676.96 108.305ZM1583.86 367.501L1608.33 203.298H1618.82L1642.88 367.501H1583.86Z" fill="#FF0558"/>
<path d="M1066.28 104.321C988.424 104.321 951.122 146.595 951.122 211.997V399.398C951.122 464.8 988.424 507.073 1066.28 507.073C1144.14 507.073 1181.44 464.8 1181.44 399.398V331.621H1094.88V407.399C1094.88 428.116 1086.94 435.348 1066.28 435.348C1045.62 435.348 1037.68 428.151 1037.68 407.399V203.996C1037.68 183.279 1045.62 176.047 1066.28 176.047C1086.94 176.047 1094.88 183.244 1094.88 203.996V248.68H1181.44V211.997C1181.44 146.735 1144.14 104.321 1066.28 104.321Z" fill="#FF0558"/>
<path d="M710.736 190.441H782.055V503.091H868.056V190.441H930.984V108.305H710.736V190.441Z" fill="#FF0558"/>
<path d="M1367.74 264.542H1306.14V108.305H1219.58V503.091H1306.14V344.897H1367.74V503.091H1454.3V108.305H1367.74V264.542Z" fill="#FF0558"/>
</svg>
