<svg width="1713" height="795" viewBox="0 0 1713 795" fill="none" xmlns="http://www.w3.org/2000/svg">
<path d="M1574.09 793.85C1561.57 793.85 1551.43 783.708 1551.43 771.196V659.174C1551.43 616.139 1586.32 581.253 1629.35 581.253V581.253C1682.13 581.253 1713 610.629 1713 655.44C1713 700.749 1682.13 730.125 1629.35 730.125H1596.74V771.196C1596.74 783.708 1586.6 793.85 1574.09 793.85V793.85ZM1596.74 690.044H1627.36C1652.51 690.044 1667.69 678.094 1667.69 655.44C1667.69 633.034 1652.51 621.334 1627.36 621.334V621.334C1610.45 621.334 1596.74 635.043 1596.74 651.955V690.044Z" fill="#222222"/>
<path d="M1414.97 794.101C1351.99 794.101 1305.43 749.041 1305.43 687.551C1305.43 626.06 1351.99 581 1414.97 581C1477.95 581 1524.51 626.06 1524.51 687.551C1524.51 749.041 1477.95 794.101 1414.97 794.101ZM1414.97 753.273C1451.81 753.273 1479.2 725.64 1479.2 687.551C1479.2 649.212 1451.81 621.828 1414.97 621.828C1378.12 621.828 1350.74 649.212 1350.74 687.551C1350.74 725.64 1378.12 753.273 1414.97 753.273Z" fill="#222222"/>
<path d="M1233.2 608.883C1233.2 596.371 1243.34 586.229 1255.85 586.229V586.229C1268.36 586.229 1278.5 596.371 1278.5 608.883V766.468C1278.5 778.98 1268.36 789.123 1255.85 789.123V789.123C1243.34 789.123 1233.2 778.98 1233.2 766.468V706.72H1143.57V766.468C1143.57 778.98 1133.43 789.123 1120.92 789.123V789.123C1108.41 789.123 1098.26 778.98 1098.26 766.468V608.883C1098.26 596.371 1108.41 586.229 1120.92 586.229V586.229C1133.43 586.229 1143.57 596.371 1143.57 608.883V666.639H1233.2V608.883Z" fill="#222222"/>
<path d="M989.497 581.246C1024.29 581.246 1052.32 597.537 1064.48 622.569C1070.62 635.2 1059.07 647.467 1045.03 647.467V647.467C1032.99 647.467 1023.68 637.423 1015.09 628.985C1008.61 622.622 998.957 619.086 986.51 619.086C965.349 619.086 953.649 627.551 953.649 639.749C953.649 654.935 969.332 660.163 1008.92 668.379C1055.72 678.088 1071.65 701.24 1071.65 731.612C1071.65 770.448 1035.06 794.098 989.746 794.098C949.997 794.098 918.731 776.975 906.555 748.22C901.182 735.533 912.637 723.645 926.415 723.645V723.645C938.569 723.645 948.166 733.736 956.462 742.619C964.319 751.031 976.928 756.009 992.983 756.009C1011.4 756.009 1025.1 746.798 1025.1 733.603C1025.1 717.422 1011.4 710.949 975.307 704.227C931.243 696.012 907.344 677.839 907.344 639.749C907.344 603.154 943.691 581.246 989.497 581.246Z" fill="#222222"/>
<path d="M691.346 213.101C628.361 213.101 581.808 168.041 581.808 106.551C581.808 45.0599 628.361 0 691.346 0C754.33 0 800.883 45.0599 800.883 106.551C800.883 168.041 754.33 213.101 691.346 213.101ZM691.346 172.273C728.19 172.273 755.575 144.64 755.575 106.551C755.575 68.2122 728.19 40.8278 691.346 40.8278C654.501 40.8278 627.116 68.2122 627.116 106.551C627.116 144.64 654.501 172.273 691.346 172.273Z" fill="#222222"/>
<path d="M425.452 27.8829C425.452 15.3713 435.595 5.22852 448.107 5.22852V5.22852C460.618 5.22852 470.761 15.3712 470.761 27.8829V117.38C470.761 145.36 493.443 168.042 521.422 168.042H552.043C563.111 168.042 572.084 177.014 572.084 188.082V188.082C572.084 199.15 563.111 208.123 552.043 208.123H498.768C458.277 208.123 425.452 175.298 425.452 134.807V27.8829Z" fill="#222222"/>
<path d="M370.958 208.123C361.109 208.123 352.318 201.948 348.976 192.684L340.355 168.789H261.687L252.655 193.825C249.56 202.404 241.418 208.123 232.297 208.123V208.123C217.084 208.123 206.619 192.841 212.119 178.657L270.858 27.1632C275.984 13.9416 288.708 5.22852 302.888 5.22852V5.22852C317.069 5.22852 329.792 13.9416 334.919 27.1632L392.746 176.306C398.684 191.622 387.384 208.123 370.958 208.123V208.123ZM275.628 129.454H326.414L301.962 61.3731C301.645 60.4905 300.397 60.4905 300.08 61.3731L275.628 129.454Z" fill="#222222"/>
<path d="M134.931 27.8829C134.931 15.3712 145.074 5.22852 157.585 5.22852V5.22852C170.097 5.22852 180.24 15.3712 180.24 27.8829V185.468C180.24 197.98 170.097 208.123 157.585 208.123V208.123C145.074 208.123 134.931 197.98 134.931 185.468V125.72H45.3089V185.468C45.3089 197.98 35.1661 208.123 22.6544 208.123V208.123C10.1427 208.123 0 197.98 0 185.468V27.8829C0 15.3712 10.1427 5.22852 22.6544 5.22852V5.22852C35.1661 5.22852 45.3089 15.3712 45.3089 27.8829V85.6393H134.931V27.8829Z" fill="#222222"/>
</svg>
