<svg width="400" height="51" viewBox="0 0 400 51" fill="none" xmlns="http://www.w3.org/2000/svg">
<path d="M367.315 50.0825C364.371 50.0825 361.984 47.696 361.984 44.7521V18.394C361.984 8.26817 370.193 0.0595703 380.319 0.0595703C392.737 0.0595703 400 6.97159 400 17.5153C400 28.1763 392.737 35.0883 380.319 35.0883H372.645V44.7521C372.645 47.696 370.259 50.0825 367.315 50.0825ZM372.645 25.6575H379.85C385.766 25.6575 389.34 22.8458 389.34 17.5153C389.34 12.2435 385.766 9.49038 379.85 9.49038C375.871 9.49038 372.645 12.7161 372.645 16.6953V25.6575Z" fill="#222222"/>
<path d="M329.875 50.1414C315.055 50.1414 304.102 39.5391 304.102 25.0707C304.102 10.6023 315.055 0 329.875 0C344.695 0 355.649 10.6023 355.649 25.0707C355.649 39.5391 344.695 50.1414 329.875 50.1414ZM329.875 40.5349C338.544 40.5349 344.988 34.0329 344.988 25.0707C344.988 16.0499 338.544 9.60654 329.875 9.60654C321.206 9.60654 314.762 16.0499 314.762 25.0707C314.762 34.0329 321.206 40.5349 329.875 40.5349Z" fill="#222222"/>
<path d="M287.105 6.56093C287.105 3.617 289.491 1.23047 292.435 1.23047C295.379 1.23047 297.766 3.617 297.766 6.56093V43.6398C297.766 46.5837 295.379 48.9703 292.435 48.9703C289.491 48.9703 287.105 46.5837 287.105 43.6398V29.5815H266.017V43.6398C266.017 46.5837 263.631 48.9703 260.687 48.9703C257.743 48.9703 255.356 46.5837 255.356 43.6398V6.56092C255.356 3.61699 257.743 1.23047 260.687 1.23047C263.631 1.23047 266.017 3.61699 266.017 6.56091V20.1507H287.105V6.56093Z" fill="#222222"/>
<path d="M229.764 0.0576172C237.95 0.0576172 244.547 3.89082 247.408 9.78069C248.851 12.7526 246.134 15.6389 242.83 15.6389C239.997 15.6389 237.807 13.2757 235.786 11.2903C234.261 9.79318 231.99 8.96123 229.061 8.96123C224.082 8.96123 221.329 10.9528 221.329 13.8231C221.329 17.3962 225.02 18.6263 234.333 20.5594C245.346 22.8438 249.095 28.2915 249.095 35.4378C249.095 44.5757 240.484 50.1405 229.823 50.1405C220.47 50.1405 213.113 46.1115 210.248 39.3456C208.984 36.3603 211.68 33.5633 214.921 33.5633C217.781 33.5633 220.039 35.9375 221.991 38.0276C223.84 40.007 226.807 41.1783 230.584 41.1783C234.919 41.1783 238.141 39.0109 238.141 35.9064C238.141 32.0989 234.919 30.5759 226.426 28.9944C216.057 27.0613 210.434 22.7853 210.434 13.8231C210.434 5.21235 218.986 0.0576172 229.764 0.0576172Z" fill="#222222"/>
<path d="M162.669 50.1414C147.849 50.1414 136.896 39.5391 136.896 25.0707C136.896 10.6023 147.849 0 162.669 0C177.489 0 188.443 10.6023 188.443 25.0707C188.443 39.5391 177.489 50.1414 162.669 50.1414ZM162.669 40.5349C171.338 40.5349 177.782 34.0329 177.782 25.0707C177.782 16.0499 171.338 9.60654 162.669 9.60654C154 9.60654 147.556 16.0499 147.556 25.0707C147.556 34.0329 154 40.5349 162.669 40.5349Z" fill="#222222"/>
<path d="M100.106 6.56093C100.106 3.617 102.493 1.23047 105.437 1.23047C108.381 1.23047 110.767 3.61699 110.767 6.56092V27.6191C110.767 34.2025 116.104 39.5395 122.688 39.5395H129.893C132.497 39.5395 134.608 41.6506 134.608 44.2549C134.608 46.8591 132.497 48.9703 129.893 48.9703H117.357C107.83 48.9703 100.106 41.2468 100.106 31.7195V6.56093Z" fill="#222222"/>
<path d="M87.2836 48.9703C84.9664 48.9703 82.8978 47.5174 82.1114 45.3377L80.0831 39.7152H61.5729L59.4477 45.6061C58.7194 47.6248 56.8037 48.9703 54.6577 48.9703C51.0782 48.9703 48.6158 45.3746 49.9098 42.0372L63.7307 6.39158C64.9369 3.28062 67.9307 1.23047 71.2673 1.23047C74.6039 1.23047 77.5977 3.28061 78.8039 6.39158L92.4103 41.484C93.8075 45.0877 91.1487 48.9703 87.2836 48.9703ZM64.8532 30.4601H76.8028L71.7691 16.4448C71.4521 15.5622 70.2038 15.5622 69.8868 16.4448L64.8532 30.4601Z" fill="#222222"/>
<path d="M31.7484 6.56092C31.7484 3.617 34.1349 1.23047 37.0789 1.23047C40.0228 1.23047 42.4093 3.61699 42.4093 6.56092V43.6398C42.4093 46.5837 40.0228 48.9703 37.0789 48.9703C34.1349 48.9703 31.7484 46.5837 31.7484 43.6398V29.5815H10.6609V43.6398C10.6609 46.5837 8.27438 48.9703 5.33046 48.9703C2.38653 48.9703 0 46.5837 0 43.6398V6.56093C0 3.617 2.38653 1.23047 5.33046 1.23047C8.27438 1.23047 10.6609 3.617 10.6609 6.56092V20.1507H31.7484V6.56092Z" fill="#222222"/>
</svg>
